<mxfile host="app.diagrams.net" modified="2024-05-16T18:45:38.150Z" agent="Mozilla/5.0 (Windows NT 10.0; Win64; x64) AppleWebKit/537.36 (KHTML, like Gecko) Chrome/124.0.0.0 Safari/537.36" etag="cHETP7qWAs0OgnwrrDuk" version="24.4.2" type="device">
  <diagram name="Page-1" id="boiouMonVe7sCUheWtZf">
    <mxGraphModel dx="-51" dy="809" grid="1" gridSize="10" guides="1" tooltips="1" connect="1" arrows="1" fold="1" page="1" pageScale="1" pageWidth="827" pageHeight="1169" math="0" shadow="0">
      <root>
        <mxCell id="0" />
        <mxCell id="1" parent="0" />
        <mxCell id="-p1IqklPGC9IZMc8WhPd-22" value="" style="whiteSpace=wrap;html=1;aspect=fixed;fillColor=#dae8fc;dashed=1;strokeColor=#6c8ebf;" vertex="1" parent="1">
          <mxGeometry x="1370" y="220" width="210" height="210" as="geometry" />
        </mxCell>
        <mxCell id="-p1IqklPGC9IZMc8WhPd-16" value="" style="whiteSpace=wrap;html=1;aspect=fixed;fillColor=#dae8fc;dashed=1;strokeColor=#6c8ebf;" vertex="1" parent="1">
          <mxGeometry x="1020" y="390" width="221" height="221" as="geometry" />
        </mxCell>
        <mxCell id="-p1IqklPGC9IZMc8WhPd-1" value="" style="rounded=0;whiteSpace=wrap;html=1;fillColor=none;" vertex="1" parent="1">
          <mxGeometry x="1000" y="60" width="600" height="570" as="geometry" />
        </mxCell>
        <mxCell id="-p1IqklPGC9IZMc8WhPd-2" value="" style="whiteSpace=wrap;html=1;aspect=fixed;fillColor=#dae8fc;dashed=1;strokeColor=#6c8ebf;" vertex="1" parent="1">
          <mxGeometry x="1020" y="120" width="221" height="221" as="geometry" />
        </mxCell>
        <mxCell id="-p1IqklPGC9IZMc8WhPd-3" value="" style="shape=image;verticalLabelPosition=bottom;labelBackgroundColor=default;verticalAlign=top;aspect=fixed;imageAspect=0;image=data:image/svg+xml,PHN2ZyB4bWxucz0iaHR0cDovL3d3dy53My5vcmcvMjAwMC9zdmciIHdpZHRoPSIyNTAwIiB2aWV3Qm94PSItMTEuOSAtMiAxMDAzLjkgOTk1LjYiIGhlaWdodD0iMjQ1NSI+PHBhdGggZmlsbD0iIzI0ODljYSIgZD0ibTEyLjEgMzUzLjlzLTI0LTE3LjMgNC44LTQwLjRsNjcuMS02MHMxOS4yLTIwLjIgMzkuNS0yLjZsNjE5LjIgNDY4Ljh2MjI0LjhzLS4zIDM1LjMtNDUuNiAzMS40eiIvPjxwYXRoIGZpbGw9IiMxMDcwYjMiIGQ9Im0xNzEuNyA0OTguOC0xNTkuNiAxNDUuMXMtMTYuNCAxMi4yIDAgMzRsNzQuMSA2Ny40czE3LjYgMTguOSA0My42LTIuNmwxNjkuMi0xMjguM3oiLz48cGF0aCBmaWxsPSIjMDg3N2I5IiBkPSJtNDUxLjkgNTAwIDI5Mi43LTIyMy41LTEuOS0yMjMuNnMtMTIuNS00OC44LTU0LjItMjMuNGwtMzg5LjUgMzU0LjV6Ii8+PHBhdGggZmlsbD0iIzNjOTlkNCIgZD0ibTY5Ny4xIDk3Ni4yYzE3IDE3LjQgMzcuNiAxMS43IDM3LjYgMTEuN2wyMjguMS0xMTIuNGMyOS4yLTE5LjkgMjUuMS00NC42IDI1LjEtNDQuNnYtNjcxLjJjMC0yOS41LTMwLjItMzkuNy0zMC4yLTM5LjdsLTE5Ny43LTk1LjNjLTQzLjItMjYuNy03MS41IDQuOC03MS41IDQuOHMzNi40LTI2LjIgNTQuMiAyMy40djg4Ny41YzAgNi4xLTEuMyAxMi4xLTMuOSAxNy41LTUuMiAxMC41LTE2LjUgMjAuMy00My42IDE2LjJ6Ii8+PC9zdmc+;" vertex="1" parent="1">
          <mxGeometry x="1201" y="191.32999999999998" width="79.81" height="78.35" as="geometry" />
        </mxCell>
        <mxCell id="-p1IqklPGC9IZMc8WhPd-4" value="" style="shape=image;verticalLabelPosition=bottom;labelBackgroundColor=default;verticalAlign=top;aspect=fixed;imageAspect=0;image=data:image/svg+xml,PHN2ZyB4bWxucz0iaHR0cDovL3d3dy53My5vcmcvMjAwMC9zdmciIHByZXNlcnZlQXNwZWN0UmF0aW89InhNaW5ZTWluIG1lZXQiIHZpZXdCb3g9IjAuMTQ0OTk5OTk1ODI3Njc0ODcgMC4wNzIwMDAwMDQzNTExMzkwNyAyNTUuMzgyMDAzNzg0MTc5NyAyNTQuMDU0MDAwODU0NDkyMiIgaGVpZ2h0PSIyNDgwLjc2MjU5NjU3OTE1OSIgd2lkdGg9IjI0OTMuOTY0ODgwNzA0ODc5OCI+PGRlZnM+PGxpbmVhckdyYWRpZW50IGlkPSJhIiB5Mj0iNzguMjAxJSIgeDI9Ijc5LjYzOSUiIHkxPSIxMi4wMzklIiB4MT0iMTIuOTU5JSI+PHN0b3Agb2Zmc2V0PSIwJSIgc3RvcC1jb2xvcj0iIzM4N0VCOCIvPjxzdG9wIG9mZnNldD0iMTAwJSIgc3RvcC1jb2xvcj0iIzM2Njk5NCIvPjwvbGluZWFyR3JhZGllbnQ+PGxpbmVhckdyYWRpZW50IGlkPSJiIiB5Mj0iODguNDI5JSIgeDI9IjkwLjc0MiUiIHkxPSIyMC41NzklIiB4MT0iMTkuMTI4JSI+PHN0b3Agb2Zmc2V0PSIwJSIgc3RvcC1jb2xvcj0iI0ZGRTA1MiIvPjxzdG9wIG9mZnNldD0iMTAwJSIgc3RvcC1jb2xvcj0iI0ZGQzMzMSIvPjwvbGluZWFyR3JhZGllbnQ+PC9kZWZzPjxwYXRoIGZpbGw9InVybCgjYSkiIGQ9Ik0xMjYuOTE2LjA3MmMtNjQuODMyIDAtNjAuNzg0IDI4LjExNS02MC43ODQgMjguMTE1bC4wNzIgMjkuMTI4aDYxLjg2OHY4Ljc0NUg0MS42MzFTLjE0NSA2MS4zNTUuMTQ1IDEyNi43N2MwIDY1LjQxNyAzNi4yMSA2My4wOTcgMzYuMjEgNjMuMDk3aDIxLjYxdi0zMC4zNTZzLTEuMTY1LTM2LjIxIDM1LjYzMi0zNi4yMWg2MS4zNjJzMzQuNDc1LjU1NyAzNC40NzUtMzMuMzE5VjMzLjk3UzE5NC42Ny4wNzIgMTI2LjkxNi4wNzJ6TTkyLjgwMiAxOS42NmExMS4xMiAxMS4xMiAwIDAgMSAxMS4xMyAxMS4xMyAxMS4xMiAxMS4xMiAwIDAgMS0xMS4xMyAxMS4xMyAxMS4xMiAxMS4xMiAwIDAgMS0xMS4xMy0xMS4xMyAxMS4xMiAxMS4xMiAwIDAgMSAxMS4xMy0xMS4xM3oiLz48cGF0aCBmaWxsPSJ1cmwoI2IpIiBkPSJNMTI4Ljc1NyAyNTQuMTI2YzY0LjgzMiAwIDYwLjc4NC0yOC4xMTUgNjAuNzg0LTI4LjExNWwtLjA3Mi0yOS4xMjdIMTI3LjZ2LTguNzQ1aDg2LjQ0MXM0MS40ODYgNC43MDUgNDEuNDg2LTYwLjcxMmMwLTY1LjQxNi0zNi4yMS02My4wOTYtMzYuMjEtNjMuMDk2aC0yMS42MXYzMC4zNTVzMS4xNjUgMzYuMjEtMzUuNjMyIDM2LjIxaC02MS4zNjJzLTM0LjQ3NS0uNTU3LTM0LjQ3NSAzMy4zMnY1Ni4wMTNzLTUuMjM1IDMzLjg5NyA2Mi41MTggMzMuODk3em0zNC4xMTQtMTkuNTg2YTExLjEyIDExLjEyIDAgMCAxLTExLjEzLTExLjEzIDExLjEyIDExLjEyIDAgMCAxIDExLjEzLTExLjEzMSAxMS4xMiAxMS4xMiAwIDAgMSAxMS4xMyAxMS4xMyAxMS4xMiAxMS4xMiAwIDAgMS0xMS4xMyAxMS4xM3oiLz48L3N2Zz4=;" vertex="1" parent="1">
          <mxGeometry x="1090.67" y="150" width="79.65" height="79.25" as="geometry" />
        </mxCell>
        <mxCell id="-p1IqklPGC9IZMc8WhPd-6" value="" style="shape=image;verticalLabelPosition=bottom;labelBackgroundColor=default;verticalAlign=top;aspect=fixed;imageAspect=0;image=data:image/svg+xml,PHN2ZyB4bWxucz0iaHR0cDovL3d3dy53My5vcmcvMjAwMC9zdmciIHZpZXdCb3g9IjAgMCAyNTYgMjE1IiBoZWlnaHQ9IjIxMDAiIHdpZHRoPSIyNTAwIj48ZyBmaWxsLXJ1bGU9ImV2ZW5vZGQiIGZpbGw9Im5vbmUiPjxwYXRoIGZpbGw9IiMzNjQ1NDgiIGQ9Ik0zOC42MTcgMTczLjk4NHYtMTYuMzYyYzAtMi4xNSAxLjM0NC0zLjg3NyAzLjU3LTMuODc3aC42MTZjMi4yMjUgMCAzLjU2MyAxLjcyOSAzLjU2MyAzLjg3N3YzNC40NDdjMCA4LjQtNC4xNSAxNS4wODQtMTEuMzgyIDE5LjM0MmEyMS4zNzQgMjEuMzc0IDAgMCAxLTEwLjk0NSAyLjk4NWgtMS41MzdjLTguNDAyIDAtMTUuMDc3LTQuMTUzLTE5LjM0Mi0xMS4zOGEyMS4zMTQgMjEuMzE0IDAgMCAxLTIuOTg0LTEwLjk0N3YtMS41MzVjMC04LjQwMyA0LjE1Mi0xNS4wODMgMTEuMzc4LTE5LjM0OWEyMS4yOTggMjEuMjk4IDAgMCAxIDEwLjk0OC0yLjk4NWgxLjUzN2M1LjY4NiAwIDEwLjUxIDIuMjA0IDE0LjU3OCA1Ljc4NHpNNy45MjQgMTkxLjNjMCA2LjA2OCAyLjk0MSAxMC42MyA4LjI1OCAxMy41NCAyLjE1IDEuMTc2IDQuNDg0IDEuODA4IDYuOTM3IDEuODA4IDUuOTU2IDAgMTAuMzc0LTIuODEgMTMuNDIxLTcuODU3IDEuNDE3LTIuMzQ4IDIuMDc3LTQuOTE3IDIuMDc3LTcuNjQ4IDAtNS4yNi0yLjQ5LTkuMzY1LTYuNzI5LTEyLjQxNC0yLjU3LTEuODQ4LTUuNDYzLTIuNzc1LTguNjE4LTIuNzc1LTYuNDkyIDAtMTEuMTY0IDMuMjgtMTMuOTY4IDkuMTA2LS45NDYgMS45Ny0xLjM3OCA0LjA2MS0xLjM3OCA2LjI0em02NS4zMjQtMjMuMWgxLjA3NGM4Ljk3OCAwIDE1LjgwNiA0LjM1NSAyMC4xMzMgMTIuMTkyIDEuNzMgMy4xMzUgMi42NTYgNi41NTcgMi42NTYgMTAuMTQydjEuNTM1YzAgOC40LTQuMTQyIDE1LjA5My0xMS4zODUgMTkuMzQzLTMuMzUzIDEuOTY3LTcuMDU3IDIuOTg0LTEwLjk0MyAyLjk4NGgtMS41MzVjLTguNDAyIDAtMTUuMDc5LTQuMTUzLTE5LjM0Mi0xMS4zOGEyMS4zMTYgMjEuMzE2IDAgMCAxLTIuOTg3LTEwLjk0N3YtMS41MzVjMC04LjQwNCA0LjE2OS0xNS4wNjIgMTEuMzc3LTE5LjM0NyAzLjM1MS0xLjk5MSA3LjA1OC0yLjk4NyAxMC45NTItMi45ODd6bS0xNC41OCAyMy4xYzAgNS44OSAyLjg5IDEwLjIyMyA3Ljg2NSAxMy4yNyAyLjMzNiAxLjQzIDQuOTA5IDIuMDc4IDcuNjM4IDIuMDc4IDUuODIgMCAxMC4xMjItMi45NTEgMTMuMTE2LTcuODYzIDEuNDI4LTIuMzQyIDIuMDc0LTQuOTE1IDIuMDc0LTcuNjQyIDAtNS40NzctMi42MzgtOS42NjEtNy4xNDgtMTIuNjkzLTIuNDcxLTEuNjYzLTUuMjIyLTIuNDk2LTguMTk4LTIuNDk2LTYuNDkyIDAtMTEuMTY0IDMuMjgtMTMuOTY3IDkuMTA2LS45NDggMS45Ny0xLjM4IDQuMDYxLTEuMzggNi4yNHptNzAuNjU2LTE0LjcyN2MtMS4xNy0uNTQ4LTMuMzYtLjczLTQuNjI0LS43NzgtNi40NzQtLjI0NC0xMS4xNTggMy40MDItMTMuOTA2IDkuMTEzLS45NDkgMS45Ny0xLjM4MiA0LjA1NS0xLjM4MiA2LjIzNSAwIDYuNjM3IDMuNDg1IDExLjI4NCA5LjQwOSAxNC4xMTcgMi4xNjQgMS4wMzQgNC45NTggMS4yMyA3LjMyMyAxLjIzIDIuMDggMCA1LjAyLTEuMjc0IDYuODY2LTIuMTUxbC4zMi0uMTUyaDEuNDMzbC4xNTguMDMyYzEuNzYyLjM2NyAzLjA5MiAxLjQ4NCAzLjA5MiAzLjM4di43NjdjMCA0LjcxOC04LjYyMiA1Ljc5OC0xMS45MTIgNi4wMjgtMTEuNjEuODAzLTIwLjI5My01LjU3My0yMy42MDMtMTYuNjQ3LS41NzUtMS45MjMtLjgzNC0zLjgzMy0uODM0LTUuODM3di0xLjUzM2MwLTguNDAzIDQuMTctMTUuMDU5IDExLjM3Ny0xOS4zNCAzLjM1MS0xLjk5IDcuMDU3LTIuOTkgMTAuOTUtMi45OWgxLjUzNmM0LjEzIDAgNy45MzQgMS4xNzMgMTEuMzQ0IDMuNTAybC4yOC4xOTQuMTc3LjI5MmMuMzY4LjYxLjY4NSAxLjMxNi42ODUgMi4wNDJ2Ljc2N2MwIDEuOTc4LTEuNDggMy4wNDItMy4yNjYgMy4zODZsLS4xNDguMDI2aC0uNDU4Yy0xLjE1NiAwLTMuNzg1LTEuMTk3LTQuODE3LTEuNjgzem0yNS4xMzQgNS4yNDdjMy4wMS0zLjAxNCA2LjAzLTYuMDIyIDkuMDg1LTguOTg2Ljg1MS0uODI3IDQuMDc0LTQuMzI3IDUuMzQzLTQuMzI3aDEuMzg4bC4xNTguMDMzYzEuNzY4LjM2NyAzLjA5MiAxLjQ4NiAzLjA5MiAzLjM4NnYuNzY2YzAgMS4yOTYtMS41MTggMi44MDItMi4zNTUgMy42ODktMS43OCAxLjg4Ny0zLjY1NCAzLjcxMi01LjQ3NiA1LjU2bC05LjM2MiA5LjUwNGM0LjAzMSA0LjA0IDguMDU4IDguMDgzIDEyLjA1NiAxMi4xNTRhMzEzLjMwNCAzMTMuMzA0IDAgMCAxIDMuMzAxIDMuMzk2Yy4zODUuNDA1Ljk1My45MDkgMS4yNzYgMS40Ny4zNDcuNTI2LjU2IDEuMTE5LjU2IDEuNzUydi44bC0uMDQ1LjE4NWMtLjQzNSAxLjc2OC0xLjU1NyAzLjE5NC0zLjUxNiAzLjE5NGgtLjYxN2MtMS4yODIgMC0yLjczLTEuNDUtMy42MDgtMi4yNzktMS44MS0xLjcwNi0zLjU1Ny0zLjUtNS4zMzEtNS4yNDNsLTUuOTQ5LTUuODR2OS4zMzRjMCAyLjE1LTEuMzQ2IDMuODc4LTMuNTY5IDMuODc4aC0uNjFjLTIuMjI2IDAtMy41Ny0xLjcyOC0zLjU3LTMuODc4di01Mi41OTZjMC0yLjE1IDEuMzQ1LTMuODcgMy41Ny0zLjg3aC42MWMyLjIyMyAwIDMuNTY5IDEuNzIgMy41NjkgMy44N3YyNC4wNDh6bTk2LjU3Ny0xMy4zMTNoLjc3YzIuMzI0IDAgMy44NzUgMS41NjYgMy44NzUgMy44NzcgMCAzLjIwOC0zLjA2NyA0LjAyOS01LjcyIDQuMDI5LTMuNDggMC02LjgwMyAyLjEwNy05LjIwMiA0LjQ3LTIuOTkxIDIuOTQ5LTQuMyA2LjcyNi00LjMgMTAuODc4djE4Ljc1OWMwIDIuMTUtMS4zNDMgMy44NzYtMy41NyAzLjg3NmgtLjYxMmMtMi4yMjcgMC0zLjU2OS0xLjcyNS0zLjU2OS0zLjg3NnYtMTkuODM2YzAtNy42MTcgMy43MDgtMTMuODM1IDkuODktMTguMTk2IDMuNjkxLTIuNjA1IDcuOTE5LTMuOTggMTIuNDM4LTMuOTh6bS01NS4wNzQgMzcuMTc2YzIuODIuOTg1IDYuMDM1Ljg0NCA4LjkyOC4zNCAxLjQ4LS42MjkgNS4yNjQtMi4yOCA2LjY1Ni0yLjAzOGwuMjE3LjAzNy4yLjA5OGMuODUuNDEyIDEuNjYxLjk5NSAyLjA5NSAxLjg2IDEuMDE0IDIuMDI3LjUyNyA0LjA2NS0xLjQ2NSA1LjIxNmwtLjY2My4zODNjLTcuMzUgNC4yNDItMTUuMTY4IDMuNjU0LTIyLjQ5NS0uMzA4LTMuNTAzLTEuODk0LTYuMTgzLTQuNzA1LTguMTYtOC4xMzJsLS40NjItLjgwMWMtNC43MTktOC4xNzItNC4wODItMTYuNzY4IDEuMjQtMjQuNTM5IDEuODM3LTIuNjg2IDQuMjM4LTQuNzYxIDcuMDQ1LTYuMzg0bDEuMDYyLS42MTNjNi45MjItMy45OTYgMTQuMzQxLTMuNzIyIDIxLjQ1LS4yMTUgMy44MjMgMS44ODYgNi45MiA0LjY5NyA5LjA1NCA4LjM5NGwuMzg0LjY2NmMxLjU1IDIuNjg2LS40NTggNS4wMjYtMi41MzEgNi42MjYtMi40MDYgMS44NTYtNC44MzUgNC4wOS03LjE0MSA2LjA4LTUuMTQyIDQuNDM5LTEwLjI3NiA4Ljg4OC0xNS40MTQgMTMuMzN6bS02LjY1NS00LjY3NGM1Ljc1LTQuOTMgMTEuNTAyLTkuODY1IDE3LjIzNy0xNC44MTYgMS45Ni0xLjY5IDQuMTA5LTMuNDQ0IDYuMDUzLTUuMjIxLTEuNTYtMS45NjYtNC4xNjYtMy4zODMtNi4zOC00LjIyOC00LjQ3LTEuNzAzLTguODc3LTEuMTMxLTEyLjk3NiAxLjIzNS01LjM2NSAzLjA5OC03LjY1IDguMDMxLTcuNDUgMTQuMTcuMDggMi40MTguNzMgNC43NDggMi4wMTMgNi44MDUuNDUyLjcyNS45NTcgMS40MDYgMS41MDMgMi4wNTV6TTE0Ny40ODggNDUuNzMyaDIyLjg2NnYyMy4zNzVoMTEuNTYxYzUuMzQgMCAxMC44MzEtLjk1MSAxNS44ODctMi42NjQgMi40ODUtLjg0MyA1LjI3My0yLjAxNSA3LjcyNC0zLjQ5LTMuMjI4LTQuMjE0LTQuODc2LTkuNTM1LTUuMzYtMTQuNzgtLjY2LTcuMTM1Ljc4LTE2LjQyMSA1LjYwOC0yMi4wMDVsMi40MDQtMi43OCAyLjg2NCAyLjMwM2M3LjIxMSA1Ljc5MyAxMy4yNzYgMTMuODg5IDE0LjM0NSAyMy4xMTggOC42ODMtMi41NTQgMTguODc4LTEuOTUgMjYuNTMxIDIuNDY3bDMuMTQgMS44MTItMS42NTIgMy4yMjZDMjQ2LjkzMyA2OC45NDYgMjMzLjQgNzIuODYgMjIwLjE3IDcyLjE2N2MtMTkuNzk3IDQ5LjMwOS02Mi44OTggNzIuNjUzLTExNS4xNTcgNzIuNjUzLTI3IDAtNTEuNzctMTAuMDkzLTY1Ljg3Ni0zNC4wNDdsLS4yMzEtLjM5LTIuMDU1LTQuMTgyYy00Ljc2OC0xMC41NDQtNi4zNTItMjIuMDk1LTUuMjc4LTMzLjYzN2wuMzIzLTMuNDU3SDUxLjQ1VjQ1LjczMmgyMi44NjVWMjIuODY2aDQ1LjczM1YwaDI3LjQ0djQ1LjczMiIvPjxwYXRoIGZpbGw9IiMyMkEwQzgiIGQ9Ik0yMjEuNTcgNTQuMzhjMS41MzMtMTEuOTE2LTcuMzg0LTIxLjI3NS0xMi45MTQtMjUuNzE5LTYuMzczIDcuMzY4LTcuMzYzIDI2LjY3OCAyLjYzNSAzNC44MDgtNS41OCA0Ljk1Ni0xNy4zMzcgOS40NDgtMjkuMzc2IDkuNDQ4SDM1LjM3Yy0xLjE3IDEyLjU2NyAxLjAzNiAyNC4xNCA2LjA3NSAzNC4wNDVsMS42NjcgMy4wNWE1Ni41MzYgNTYuNTM2IDAgMCAwIDMuNDU1IDUuMTg0YzYuMDI1LjM4NyAxMS41OC41MiAxNi42NjIuNDA4aC4wMDJjOS45ODctLjIyIDE4LjEzNi0xLjQgMjQuMzEyLTMuNTRhMS43NjEgMS43NjEgMCAwIDEgMS4xNTMgMy4zMjZjLS44MjIuMjg2LTEuNjc4LjU1Mi0yLjU2Mi44MDVoLS4wMDNjLTQuODYzIDEuMzg5LTEwLjA3OCAyLjMyMy0xNi44MDYgMi43MzguNC4wMDctLjQxNi4wNi0uNDE4LjA2LS4yMjkuMDE1LS41MTcuMDQ4LS43NDcuMDYtMi42NDguMTQ5LTUuNTA2LjE4LTguNDI4LjE4LTMuMTk2IDAtNi4zNDMtLjA2LTkuODYyLS4yNGwtLjA5LjA2YzEyLjIxIDEzLjcyNCAzMS4zMDIgMjEuOTU1IDU1LjIzNCAyMS45NTUgNTAuNjQ4IDAgOTMuNjA4LTIyLjQ1MiAxMTIuNjMyLTcyLjg1NyAxMy40OTYgMS4zODUgMjYuNDY3LTIuMDU3IDMyLjM2Ny0xMy41NzUtOS4zOTgtNS40MjMtMjEuNDg0LTMuNjk0LTI4LjQ0My0uMTk2Ii8+PHBhdGggZmlsbD0iIzM3QjFEOSIgZD0iTTIyMS41NyA1NC4zOGMxLjUzMy0xMS45MTYtNy4zODQtMjEuMjc1LTEyLjkxNC0yNS43MTktNi4zNzMgNy4zNjgtNy4zNjMgMjYuNjc4IDIuNjM1IDM0LjgwOC01LjU4IDQuOTU2LTE3LjMzNyA5LjQ0OC0yOS4zNzYgOS40NDhINDQuMDQ4Yy0uNTk4IDE5LjI0NiA2LjU0NCAzMy44NTUgMTkuMTggNDIuNjg3aC4wMDNjOS45ODctLjIyIDE4LjEzNi0xLjQgMjQuMzEyLTMuNTRhMS43NjEgMS43NjEgMCAwIDEgMS4xNTMgMy4zMjZjLS44MjIuMjg2LTEuNjc4LjU1Mi0yLjU2Mi44MDVoLS4wMDNjLTQuODYzIDEuMzg5LTEwLjUyNiAyLjQ0My0xNy4yNTQgMi44NTgtLjAwMiAwLS4xNjMtLjE1NS0uMTY1LS4xNTUgMTcuMjM3IDguODQyIDQyLjIzIDguODEgNzAuODg1LTIuMTk3IDMyLjEzLTEyLjM0NCA2Mi4wMjktMzUuODYgODIuODktNjIuNzU3LS4zMTQuMTQyLS42Mi4yODctLjkxNy40MzYiLz48cGF0aCBmaWxsPSIjMUI4MUE1IiBkPSJNMzUuNjQ1IDg4LjE4NmMuOTEgNi43MzIgMi44OCAxMy4wMzUgNS44IDE4Ljc3NmwxLjY2NyAzLjA1YTU2LjQzMiA1Ni40MzIgMCAwIDAgMy40NTUgNS4xODRjNi4wMjYuMzg3IDExLjU4MS41MiAxNi42NjQuNDA4IDkuOTg3LS4yMiAxOC4xMzYtMS40IDI0LjMxMi0zLjU0YTEuNzYxIDEuNzYxIDAgMCAxIDEuMTUzIDMuMzI2Yy0uODIyLjI4Ni0xLjY3OC41NTItMi41NjIuODA1aC0uMDAzYy00Ljg2MyAxLjM4OS0xMC40OTYgMi4zODMtMTcuMjI0IDIuNzk5LS4yMzEuMDE0LS42MzQuMDE3LS44NjcuMDMtMi42NDYuMTQ4LTUuNDc1LjIzOS04LjM5OC4yMzktMy4xOTUgMC02LjQ2My0uMDYxLTkuOTgtLjI0IDEyLjIxIDEzLjcyNCAzMS40MiAyMS45ODUgNTUuMzUyIDIxLjk4NSA0My4zNiAwIDgxLjA4NC0xNi40NTggMTAyLjk3OS01Mi44MjJIMzUuNjQ1Ii8+PHBhdGggZmlsbD0iIzFEOTFCNCIgZD0iTTQ1LjM2NyA4OC4xODZjMi41OTIgMTEuODIgOC44MjEgMjEuMDk5IDE3Ljg2NCAyNy40MTggOS45ODctLjIyIDE4LjEzNi0xLjQgMjQuMzEyLTMuNTRhMS43NjEgMS43NjEgMCAwIDEgMS4xNTMgMy4zMjZjLS44MjIuMjg2LTEuNjc4LjU1Mi0yLjU2Mi44MDVoLS4wMDNjLTQuODYzIDEuMzg5LTEwLjYxNSAyLjM4My0xNy4zNDQgMi43OTkgMTcuMjM2IDguODQgNDIuMTU3IDguNzEzIDcwLjgxLTIuMjkzIDE3LjMzNC02LjY2IDM0LjAxNy0xNi41NzQgNDguOTg0LTI4LjUxNUg0NS4zNjciLz48cGF0aCBmaWxsPSIjMjNBM0MyIiBkPSJNNTUuMjYgNDkuNTQzaDE5LjgxOHYxOS44MThINTUuMjZWNDkuNTQzem0xLjY1MSAxLjY1MmgxLjU2NFY2Ny43MWgtMS41NjRWNTEuMTk1em0yLjk0IDBoMS42MjdWNjcuNzFoLTEuNjI2VjUxLjE5NXptMy4wMDIgMGgxLjYyN1Y2Ny43MWgtMS42MjdWNTEuMTk1em0zLjAwNCAwaDEuNjI2VjY3LjcxaC0xLjYyNlY1MS4xOTV6bTMuMDAzIDBoMS42MjZWNjcuNzFINjguODZWNTEuMTk1em0zLjAwMiAwaDEuNTY1VjY3LjcxaC0xLjU2NVY1MS4xOTV6TTc4LjEyNiAyNi42NzdoMTkuODE5djE5LjgxN2gtMTkuODJWMjYuNjc3em0xLjY1MiAxLjY1MmgxLjU2M3YxNi41MTRoLTEuNTYzVjI4LjMyOXptMi45NCAwaDEuNjI2djE2LjUxNGgtMS42MjVWMjguMzI5em0zLjAwMiAwaDEuNjI2djE2LjUxNEg4NS43MlYyOC4zMjl6bTMuMDAzIDBoMS42MjZ2MTYuNTE0aC0xLjYyNlYyOC4zMjl6bTMuMDAzIDBoMS42Mjd2MTYuNTE0aC0xLjYyN1YyOC4zMjl6bTMuMDAyIDBoMS41NjZ2MTYuNTE0aC0xLjU2NlYyOC4zMjl6Ii8+PHBhdGggZmlsbD0iIzM0QkJERSIgZD0iTTc4LjEyNiA0OS41NDNoMTkuODE5djE5LjgxOGgtMTkuODJWNDkuNTQzem0xLjY1MiAxLjY1MmgxLjU2M1Y2Ny43MWgtMS41NjNWNTEuMTk1em0yLjk0IDBoMS42MjZWNjcuNzFoLTEuNjI1VjUxLjE5NXptMy4wMDIgMGgxLjYyNlY2Ny43MUg4NS43MlY1MS4xOTV6bTMuMDAzIDBoMS42MjZWNjcuNzFoLTEuNjI2VjUxLjE5NXptMy4wMDMgMGgxLjYyN1Y2Ny43MWgtMS42MjdWNTEuMTk1em0zLjAwMiAwaDEuNTY2VjY3LjcxaC0xLjU2NlY1MS4xOTV6Ii8+PHBhdGggZmlsbD0iIzIzQTNDMiIgZD0iTTEwMC45OTMgNDkuNTQzaDE5LjgxOHYxOS44MThoLTE5LjgxOFY0OS41NDN6bTEuNjUxIDEuNjUyaDEuNTYzVjY3LjcxaC0xLjU2M1Y1MS4xOTV6bTIuOTQgMGgxLjYyNlY2Ny43MWgtMS42MjZWNTEuMTk1em0zLjAwMyAwaDEuNjI2VjY3LjcxaC0xLjYyNlY1MS4xOTV6bTMuMDAzIDBoMS42MjZWNjcuNzFoLTEuNjI2VjUxLjE5NXptMy4wMDIgMGgxLjYyOFY2Ny43MWgtMS42MjhWNTEuMTk1em0zLjAwMyAwaDEuNTY0VjY3LjcxaC0xLjU2NFY1MS4xOTV6Ii8+PHBhdGggZmlsbD0iIzM0QkJERSIgZD0iTTEwMC45OTMgMjYuNjc3aDE5LjgxOHYxOS44MTdoLTE5LjgxOFYyNi42Nzd6bTEuNjUxIDEuNjUyaDEuNTYzdjE2LjUxNGgtMS41NjNWMjguMzI5em0yLjk0IDBoMS42MjZ2MTYuNTE0aC0xLjYyNlYyOC4zMjl6bTMuMDAzIDBoMS42MjZ2MTYuNTE0aC0xLjYyNlYyOC4zMjl6bTMuMDAzIDBoMS42MjZ2MTYuNTE0aC0xLjYyNlYyOC4zMjl6bTMuMDAyIDBoMS42Mjh2MTYuNTE0aC0xLjYyOFYyOC4zMjl6bTMuMDAzIDBoMS41NjR2MTYuNTE0aC0xLjU2NFYyOC4zMjl6TTEyMy44NTkgNDkuNTQzaDE5LjgxOHYxOS44MThoLTE5LjgxOFY0OS41NDN6bTEuNjUyIDEuNjUyaDEuNTYzVjY3LjcxaC0xLjU2M1Y1MS4xOTV6bTIuOTQgMGgxLjYyNlY2Ny43MWgtMS42MjZWNTEuMTk1em0zLjAwMiAwaDEuNjI2VjY3LjcxaC0xLjYyNlY1MS4xOTV6bTMuMDAzIDBoMS42MjdWNjcuNzFoLTEuNjI3VjUxLjE5NXptMy4wMDMgMGgxLjYyN1Y2Ny43MWgtMS42MjdWNTEuMTk1em0zLjAwMyAwaDEuNTY0VjY3LjcxaC0xLjU2NFY1MS4xOTV6Ii8+PHBhdGggZmlsbD0iIzIzQTNDMiIgZD0iTTEyMy44NTkgMjYuNjc3aDE5LjgxOHYxOS44MTdoLTE5LjgxOFYyNi42Nzd6bTEuNjUyIDEuNjUyaDEuNTYzdjE2LjUxNGgtMS41NjNWMjguMzI5em0yLjk0IDBoMS42MjZ2MTYuNTE0aC0xLjYyNlYyOC4zMjl6bTMuMDAyIDBoMS42MjZ2MTYuNTE0aC0xLjYyNlYyOC4zMjl6bTMuMDAzIDBoMS42Mjd2MTYuNTE0aC0xLjYyN1YyOC4zMjl6bTMuMDAzIDBoMS42Mjd2MTYuNTE0aC0xLjYyN1YyOC4zMjl6bTMuMDAzIDBoMS41NjR2MTYuNTE0aC0xLjU2NFYyOC4zMjl6Ii8+PHBhdGggZmlsbD0iIzM0QkJERSIgZD0iTTEyMy44NTkgMy44MWgxOS44MThWMjMuNjNoLTE5LjgxOFYzLjgxem0xLjY1MiAxLjY1MWgxLjU2M3YxNi41MTZoLTEuNTYzVjUuNDZ6bTIuOTQgMGgxLjYyNnYxNi41MTZoLTEuNjI2VjUuNDZ6bTMuMDAyIDBoMS42MjZ2MTYuNTE2aC0xLjYyNlY1LjQ2em0zLjAwMyAwaDEuNjI3djE2LjUxNmgtMS42MjdWNS40NnptMy4wMDMgMGgxLjYyN3YxNi41MTZoLTEuNjI3VjUuNDZ6bTMuMDAzIDBoMS41NjR2MTYuNTE2aC0xLjU2NFY1LjQ2eiIvPjxwYXRoIGZpbGw9IiMyM0EzQzIiIGQ9Ik0xNDYuNzI1IDQ5LjU0M2gxOS44MTh2MTkuODE4aC0xOS44MThWNDkuNTQzem0xLjY1IDEuNjUyaDEuNTY1VjY3LjcxaC0xLjU2NFY1MS4xOTV6bTIuOTQgMGgxLjYyN1Y2Ny43MWgtMS42MjZWNTEuMTk1em0zLjAwNCAwaDEuNjI3VjY3LjcxaC0xLjYyN1Y1MS4xOTV6bTMuMDAyIDBoMS42MjdWNjcuNzFoLTEuNjI3VjUxLjE5NXptMy4wMDQgMGgxLjYyNlY2Ny43MWgtMS42MjZWNTEuMTk1em0zLjAwMiAwaDEuNTY0VjY3LjcxaC0xLjU2NFY1MS4xOTV6Ii8+PHBhdGggZmlsbD0iI0QzRUNFQyIgZD0iTTk2LjcwNCAxMDEuNDkyYTUuNDY4IDUuNDY4IDAgMSAxLS4wMDIgMTAuOTM1IDUuNDY4IDUuNDY4IDAgMCAxIC4wMDItMTAuOTM1Ii8+PHBhdGggZmlsbD0iIzM2NDU0OCIgZD0iTTk2LjcwNCAxMDMuMDQzYy41IDAgLjk3Ny4wOTQgMS40MTcuMjY1YTEuNTk4IDEuNTk4IDAgMCAwIC43OTggMi45OGMuNjA1IDAgMS4xMy0uMzM1IDEuNDAyLS44MzFhMy45MTUgMy45MTUgMCAxIDEtMy42MTctMi40MTRNMCA5MC4xNjJoMjU0LjMyN2MtNS41MzctMS40MDQtMTcuNTItMy4zMDItMTUuNTQ0LTEwLjU2LTEwLjA3IDExLjY1Mi0zNC4zNTMgOC4xNzUtNDAuNDgyIDIuNDMtNi44MjQgOS44OTgtNDYuNTU0IDYuMTM1LTQ5LjMyNS0xLjU3Ni04LjU1NiAxMC4wNDEtMzUuMDY3IDEwLjA0MS00My42MjMgMC0yLjc3MyA3LjcxMS00Mi41MDIgMTEuNDc0LTQ5LjMyNyAxLjU3NS02LjEyOCA1Ljc0Ni0zMC40MSA5LjIyMy00MC40OC0yLjQyOEMxNy41MjIgODYuODYgNS41MzkgODguNzU4IDAgOTAuMTYzIi8+PHBhdGggZmlsbD0iI0JERDlENyIgZD0iTTExMS4yMzcgMTQwLjg5Yy0xMy41NC02LjQyNS0yMC45NzEtMTUuMTYtMjUuMTA2LTI0LjY5NC01LjAzIDEuNDM1LTExLjA3NSAyLjM1My0xOC4xIDIuNzQ3LTIuNjQ2LjE0OC01LjQzLjIyNC04LjM1LjIyNC0zLjM2OCAwLTYuOTE3LS4xLTEwLjY0My0uMjk3IDEyLjQxNyAxMi40MSAyNy42OTIgMjEuOTY0IDU1Ljk3NiAyMi4xMzggMi4wODggMCA0LjE2LS4wNCA2LjIyMy0uMTE4Ii8+PHBhdGggZmlsbD0iI0QzRUNFQyIgZD0iTTkxLjE2IDEyNC45OTRjLTEuODczLTIuNTQzLTMuNjktNS43MzktNS4wMjYtOC44LTUuMDMgMS40MzctMTEuMDc3IDIuMzU1LTE4LjEwMyAyLjc1IDQuODI2IDIuNjE5IDExLjcyNyA1LjA0NiAyMy4xMyA2LjA1Ii8+PC9nPjwvc3ZnPg==;" vertex="1" parent="1">
          <mxGeometry x="1427.38" y="255.00000000000006" width="95.24" height="80" as="geometry" />
        </mxCell>
        <mxCell id="-p1IqklPGC9IZMc8WhPd-8" value="" style="shape=image;verticalLabelPosition=bottom;labelBackgroundColor=default;verticalAlign=top;aspect=fixed;imageAspect=0;image=data:image/svg+xml,PHN2ZyB4bWxuczp4bGluaz0iaHR0cDovL3d3dy53My5vcmcvMTk5OS94bGluayIgeG1sbnM9Imh0dHA6Ly93d3cudzMub3JnLzIwMDAvc3ZnIiB4bWw6c3BhY2U9InByZXNlcnZlIiB2aWV3Qm94PSIwIDAgNTEyIDUxMiIgaGVpZ2h0PSI1MTJweCIgd2lkdGg9IjUxMnB4IiB5PSIwcHgiIHg9IjBweCIgaWQ9IkxheWVyXzEiIHZlcnNpb249IjEuMSI+ICA8aW1hZ2UgaHJlZj0iZGF0YTppbWFnZS9wbmc7YmFzZTY0LGlWQk9SdzBLR2dvQUFBQU5TVWhFVWdBQUFnQUFBQUlBQ0FZQUFBRDBlTlQ2QUFBQUJHZEJUVUVBQUxHUEMveGhCUUFBQUNCalNGSk4mIzEwO0FBQjZKZ0FBZ0lRQUFQb0FBQUNBNkFBQWRUQUFBT3BnQUFBNm1BQUFGM0NjdWxFOEFBQUFCbUpMUjBRQS93RC9BUCtndmFlVEFBQUEmIzEwO0NYQklXWE1BQUE5R0FBQVBSZ0ZvVXlDQ0FBQWJaRWxFUVZSNDJ1M2RXNHlrYVhuWThhY09QYjF6bnVrNWRPOEpGbmJCeThKaUMyd1omIzEwOzdNakdOaEdzUTJ5SWxKTlE3aUtETHdJR3lUY0xGaXlIelUwdUlsWVd6b1VqcjFhanlKQklKckV5aWtTRXJUam1JaWlLeldaWVFZQTEmIzEwO003UEw3TEhuMEYxZGgrN0tSWGYxVlBkVTliRzZ2cXA2ZmorcE5iMDkzVDFmdGJSNi8xM1BXKzlYYXJmYkFRRGtVaTc2QWdDQTRSTUEmIzEwO0FKQ1FBQUNBaEFRQUFDUWtBQUFnSVFFQUFBa0pBQUJJU0FBQVFFSUNBQUFTRWdBQWtKQUFBSUNFQkFBQUpDUUFBQ0FoQVFBQUNRa0EmIzEwO0FFaElBQUJBUWdJQUFCSVNBQUNRa0FBQWdJUUVBQUFrSkFBQUlDRUJBQUFKQ1FBQVNFZ0FBRUJDQWdBQUVoSUFBSkNRQUFDQWhBUUEmIzEwO0FDUWtBQUFnSVFFQUFBa0pBQUJJU0FBQVFFSUNBQUFTRWdBQWtKQUFBSUNFQkFBQUpDUUFBQ0FoQVFBQUNRa0FBRWhJQUFCQVFnSUEmIzEwO0FCSVNBQUNRa0FBQWdJUUVBQUFrSkFBQUlDRUJBQUFKQ1FBQVNFZ0FBRUJDQWdBQUVoSUFBSkNRQUFDQWhBUUFBQ1FrQUFBZ0lRRUEmIzEwO0FBa0pBQUJJU0FBQVFFSUNBQUFTRWdBQWtKQUFBSUNFQkFBQUpDUUFBQ0FoQVFBQUNRa0FBRWhJQUFCQVFnSUFBQklTQUFDUWtBQUEmIzEwO2dJUUVBQUFrSkFBQUlDRUJBQUFKQ1FBQVNFZ0FBRUJDQWdBQUVoSUFBSkNRQUFDQWhBUUFBQ1FrQUFBZ0lRRUFBQWtKQUFCSVNBQUEmIzEwO1FFSUNBQUFTRWdBQWtKQUFBSUNFQkFBQUpDUUFBQ0FoQVFBQUNRa0FBRWhJQUFCQVFnSUFBQklTQUFDUWtBQUFnSVFFQUFBa0pBQUEmIzEwO0lDRUJBQUFKQ1FBQVNFZ0FBRUJDQWdBQUVoSUFBSkNRQUFDQWhBUUFBQ1FrQUFBZ0lRRUFBQWtKQUFCSVNBQUFRRUlDSUpFSC85bW4mIzEwO3BvcStCZ0JHUTZuZGJoZDlEUnl3MlU4KzlXRHo2TXpUMWRxTlh6ajczRi9WSXVLSGZkNnVYTHA0WWFYbzZ3WGc0QW1BQ2RaWitCZlAmIzEwOzN2OUxLOVZEcFpPWG40MXp6MzVycXk5cFJNVHowVHNPZm5UcDRvV2xvaDhUQUlNaEFDYlE1b1cvOC9FZEJNQlcyaEh4UW15S2dzNzcmIzEwO2x5NWVlTFhveHczQXpnbUFDZEp2NGUvWVp3QnM1M29ZTFFDTURRRXdBYlpiK0RzT09BQzJZclFBTUdJRXdCamI2Y0xmVVdBQWJLWFgmIzEwO2FHRjl2R0MwQUhBd0JNQVkydTNDM3pHaUFiQWRvd1dBQXlBQXhzaGVGLzZPTVEyQXJUUWk0c2ZSdFJreGpCWUFka1FBaklIOUx2d2QmIzEwO0V4Z0FXK2szV3VqRWdkRUNrSm9BR0dHRFd2ZzdrZ1hBZG93V2dOUUV3QWdhOU1MZklRQjJyRE5hMkhEV1FSZ3RBQk5FQUl5UWcxcjQmIzEwO093VEFRQmd0QUJOQkFJeUFnMTc0T3dUQVVCZ3RBR05CQUJSb1dBdC9od0FvWFBkb1lmTjR3V2dCR0NvQlVJQmhML3dkQW1Da2JUVmEmIzEwOytPR2xpeGRlSy9vQ2dja2lBSVpvZGVFLy9mVGkyVGNNZGVIdkVBQmp6V2dCR0NnQk1BUkZML3dkQW1CaUdTMEF1eVlBRHRDb0xQd2QmIzEwO0FpQWxvd1dnSndGd0FFWnQ0ZThRQVBRd0g3MlBValphZ0FrbkFBWm9WQmYrRGdIQUxtMGVMWFNQRjR3V1lNd0pnQUVZOVlXL1F3QXcmIzEwO1FFWUxNT1lFd0Q2TXk4TGZJUUFZb3Zrd1dvQ1JKZ0QyWU53Vy9nNEJ3SWpvTlZyb2pCZU1GbUJJQk1BdWpPdkMzeUVBR0FOR0N6QWsmIzEwO0FtQUh4bjNoN3hBQVRJRDU2SDJYUnFNRjJDVUJzSVZKV2ZnN0JBQVR6bWdCZGtFQTlERDNpYTg4MURnMjh5ZVRzdkIzQ0FBU00xcUEmIzEwO1RRUkFsMGxkK0RzRUFQUTFINzJQVWpaYVlHSUpnSmo4aGI5REFNQ2U5QnN0L0RBaWZteTB3TGhLSFFCWkZ2NE9BUUFEWjdUQTJFb1omIzEwO0FOa1cvZzRCQUVNM0gwWUxqS2hVQWJDMjhEKzllUFlONzgyMDhIY0lBQmdwUmdzVUtrVUFaRi80T3dRQWpBMmpCUTdjUkFlQWhYOGomIzEwO0FRQVRZejU2MzZYUmFJRWRtOGdBc1BEM0pnQWdoWHBFUEI5R0MyeGpvZ0pnN3ZGbkhtcWVPUGZ2Rnc0ZCtYc1cvanNKQUVqUGFJRjEmIzEwO0V4RUFjNDgvODFEejlOelRpL2Yrekh2YnBVcHA1ZVhMUlYvU1NCSUF3RGJtby9kUnlrWUxFMmlzQStEMnd2L3dlMWVtcGtzUkVhVlcmIzEwO013UkFid0lBMkFlamhRa3psZ0hRYStGZmYwQUNvQzhCQUJ5UWRrUmNqZDUzYVRSYUdGRmpGUUJiTGZ6ckQwZ0E5Q1VBZ0lMTVIrOW4mIzEwO0RuNFVSZ3VGR1lzQTJNbkN2LzZBQkVCZkFnQVlRVVlMQlJucEFOak53ci8rZ0FSQVh3SUFHRE9kMFVLdm81U05GdlpwSkFOZzd2Rm4mIzEwO0htcWNubnU2dG91RmYvMEJDWUMrQkFBd1llYkRhR0hQUmlvQTlyUHdyejhnQWRDWEFBQVNNVnJZeGtnRXdDQVcvdlVISkFENkdxVUEmIzEwO1dMN3JXRno1clU5RmRXRStxcmZtbzdvNHYvcCsxMXVsZGl0V253RUVHS2p1MGNJZDQ0VXNvNFZxa2YvNCtzTC9qdmZ0ZStGbnpKUksmIzEwOzBUbzJFNjFqTXhHemZUNWxaZmwyREN4Y2orckM2M2RHd3RKQ2lBUmdsMG9SY2QvYTI2OXUvc3RISHZ2b2ZQUTVMVEVpcms3S2FLR1EmIzEwO0FKajc3SVczTkU2ZWY3cjJqdmU5eDhKUFArMXlKWnJIejBUeitKbStuMU5hYmtWMThmcGFKR3grRnVIMXFDNWNqOHJTcmFJZkNqQmUmIzEwO1RrWEV1OWZlTnFzLzh0aEhuNDhKR0MwTU5RRFdGLzVIZnNYQ3owQzBLOVVkUmtMWHFPSFdmRlFXZXoyVEFMQ3Q2WWo0bWJXM3pkcVAmIzEwO1BQYlJzUmt0RENVQUxQd1VhVFVTemtieitObStuMU5hYnQweFhyZzlmbGo3c3k0U2dDMk4xV2poUUFOZ2RlR2Z0ZkF6OHRxVmFqUlAmIzEwO25JM21pYTBpb2RrM0VqcHY1ZnBpMFE4RkdGMm5Zb1JHQ3djU0FCWitKbEc3TWhYTkUrZWllZUpjejcrdkxzeEg0M3ZmanFubVVsU2ImIzEwO1MxRnRyUDQ1MVZ5S2FxTzIvckhLY3JQb2h3S01udDJNRmphTUYvWTZXaGhvQUt3di9HLy8xZmVzVkE5WitFbW5YYTVFWS9wb05LYVAmIzEwOzl2MmMwc3B5bjBoWWltcHpOUlFxTFpFQXJEdVEwY0pBQXNEQ0R6c25Fb0FCT3hWN0dDM3NLd0FzL0hBdzlob0oxZVpTVEsyL1h4TUomIzEwO1FOL1J3cDRDWU80eno3eTFjZXJ1UDdId1EzRjJHZ25WWmoybW1yVStrYkFVbFZhajZJY0NGR0JYQVREM21XZmUyamg5OTlPMWQvemEmIzEwO0wxcjRZZlMxeTVWb1RoK0o1dlNSdnA5VFdsbFpHekgwaUlSV0k2b3JUZWNrd0FUYVVRQlkrR0Z5dGN2bHZwRndxRnlKNVovN2paN24mIzEwO0pEaE1DY2JibGdGZzRRY2lkbnBPUXI4VEY2ODdsaGxHVU04QW1QdnNoYmMyVHMxYStJRWQyL0dKaTExUnNIcVRKemQ0Z2lKc0NJRDEmIzEwO2hmL3R2MnJoQndadTU1SFE3d1pQSWdFR3BScGg0UWRHeDg1djhOUW5FaGF2Ui9YVzZ5SUJ0bEdkK1RmZi9MYUZIeGduTzRxRWxlV3UmIzEwO0d6cXQ3VU5ZdkI3VitXdFJtYjhXVTQyYWwwQ1NXblhoamU5OFQ5RVhBVEJvN1hLbFp5UWN1dnBjMUs3OUpDSWlTdTJWOVlPVTdqaDUmIzEwO3NWRnpUZ0lUYlNpM0F3WVlSZTFTT1pxSGprVHowSkdvOWZtY1VudWw3M0hNblFPVlJBTGpTQUFBYktGZHVuMU9RdDlJV0Q5TXFldk8mIzEwO2owNWNaTVFKQUlCOTJ1b3dwWTVlSnk2NndSTkZFZ0FBUTdDelNPaDNGOGphK3NjcXl5S0J3UkFBQUNOaVYzZUI3Qm92SEZwdVJmWFEmIzEwOzlQcExJOHYxeGFJZkNtTkFBQUNNa1Y2Uk1GMnRSdXVkdjc3KzM2VldZOE1Sek9zdmdldzZMMEVrSUFBQUpreTdlaWlhSjg5RjgrUzUmIzEwO3ZwK3pIZ25kOTIvWWRLaVNTSmhzQWdBZ29SMUZ3bkt6NTFITTNmZHlxTlRkQlhKY0NRQUFlbXBYcHFKNTRsdzBUK3drRWphTkhCYXUmIzEwO3J4L1RMQkpHa3dBQVlNOTJId21iYnV5MHNEcCtXTDEzQThNa0FBQTRVRHVMaE5hR01KaDY1WEtVWG5yZVlVb0hTQUFBVUxoMnBSck4mIzEwO0UyZWplV0wxVnRIVHgyZGk4ZERHbDBOdU9IR3g2M3dFa2JBM0FnQ0FzYkM3RXhlN0QxUnk3NFplQkFBQUUyTkhrZER6Qmsrcm9aQXAmIzEwO0VnUUFBS25zNkFaUENXNFZMUUFBWUpNZDN5cTZUeVIwUW1HVUkwRUFBTUFlN0R3UzZsRnQxT0xZalpmaTlFcy9MdnF5MTVXTHZnQUEmIzEwO21GU3JrWEE0YXNkbW9uYjBkTkdYczRFQUFJQ0VCQUFBSkNRQUFDQWhBUUFBQ1FrQUFFaElBQUJBUWdJQUFCSVNBQUNRa0FBQWdJUUUmIzEwO0FBQWtKQUFBSUNFQkFBQUpDUUFBU0VnQUFFQkNBZ0FBRWhJQUFKQ1FBQUNBaEFRQUFDUWtBQUFnSVFFQUFBa0pBQUJJU0FBQVFFSUMmIzEwO0FBQVNFZ0FBa0pBQUFJQ0VCQUFBSkNRQUFDQWhBUUFBQ1FrQUFFaElBQUJBUWdJQUFCSVNBQUNRa0FBQWdJU0dFZ0RWVzYvSDRSZSsmIzEwO0g5WEY2MFUvM3VGcHQrUFF3dXR4K0xXclVXa3VGWDAxQUxCQjlhQys4ZUVYdmgrbm52MVdUTDl5SlNwTHQ5WS92bno0ZU5UUDNoK3YmIzEwO3YvUDlzVFQ3cHFJZi84Q2R1SElwamw5OUxxWnZ2QnpsVm1QOTQ4M0RKMkxwMUZ5ODl0YjNSUFBJeWFJdkU0RGtCaDRBcFZZanpuem4mIzEwO3orUGtwYitLaVBZZGYxK3AzWXdqbHkvRmtTdmZpL2wzdkM5ZWU5ZHZScnR5WUIweU5OWDZRcHovN24rUEl5Ly9YYysvbjZyZGlLbmEmIzEwO2pUajYwby9qMVlkL09hNi80ZEdpTHhtQXhBYTY4cFphamJqdnYvemJPUFQ2aTl0L2Nyc2RwNzc3clRqOHdnL2k2b2MrT2RZUk1MVXcmIzEwO0gvZC8rMnRSYnRhMy9kenljalBPL2QrL2lMdGVmeUd1L2V3SGlyNTBBSklhNkI2QU05LzU4NTB0L2wybVg3MFNNLy83dnhiOWM5aTcmIzEwO2RqdG12L3ZOSFMzKzNZNi84UDA0OXVJUGlyNTZBSklhV0FBY2Z2RUhhMC83Nzk2cFovOGk3cnIyNDZKL0ZudTc5dWYvVDl5MXkranAmIzEwO09IZnBMNlBTcUJYOUVBQklhR0FCY1BwdnZobTladjQ3MG03SDZiLzladEUvaTcwOTdoOStaODlmVzJuVTR1VGxaNHQrQ0FBa05MQUEmIzEwO21IN2xjcUZmWDRTcHhldjdmb25mOVBXWGluNFlBQ1Ewa0FDWXV2bEtsUGY1VkhhbGRuUHN6Z21Zdm41dEFOOURBQUF3ZkFNSmdFT3YmIzEwOzdXMEdmbERmWjFpbWI3eXk3KzlSWGJxMTZ3MkVBTEJmQXdtQTBuSnJJQmRUV200VytzUFk5Zld1RE9oeHJ5d1gvVkFBU01hOUFBQWcmIzEwO0lRRUFBQWtKQUFCSVNBQUFRRUlDQUFBU0VnQUFrSkFBQUlDRUJBQUFKQ1FBQUNBaEFRQUFDUWtBQUVoSUFBQkFRZ0lBQUJJU0FBQ1EmIzEwO2tBQUFnSVFFQUFBa0pBQUFJQ0VCQUFBSkNRQUFTRWdBQUVCQ0FnQUFFaElBQUpDUUFBQ0FoQVFBQUNRa0FBQWdJUUVBQUFrSkFBQkkmIzEwO1NBQUFRRUlDQUFBU0VnQUFrSkFBQUlDRUJBQUFKQ1FBQUNBaEFRQUFDUWtBQUVoSUFBQkFRZ0lBQUJJU0FBQ1FrQUFBZ0lRRUFBQWsmIzEwO0pBQUFJQ0VCQUFBSkNRQUFTRWdBQUVCQ0FnQUFFaElBQUpDUUFBQ0FoQVFBQUNRa0FBQWdJUUVBQUFrSkFBQklTQUFBUUVJQ0FBQVMmIzEwO0VnQUFrSkFBQUlDRUJBQUFKQ1FBQUNBaEFRQUFDUWtBQUVoSUFBQkFRZ01KZ0pXcDZZRmN6S0MrRHdDd3RZRUVRT1BNdlFPNW1FRjkmIzEwO0h3Qmdhd01KZ05hUms3RjgrUGordnNleDA3RThmYlRvbndjQXBEQ3dQUUJMNTk2NHo2OS9vT2lmQlFDa01iQUFlTzNkdnhudGNtVlAmIzEwO1g5dXVUTVZyNy9wZzBUOExBRWhqWUFIUU9IMTN2UGF1eC9iMHRhLysvRCtJNXNuelJmOHNBQ0NOZ2I0TWNQN1JYNHZGKzkrK3E2OVomIzEwO2VPQm40L3JiZjZYb253TUFwRklkNkhjcmxlUEZ2Lzh2NDhSemZ4MW4vdGQvam5LejN2ZFRWdzRkamxkKzhTTng4eTIvVVBUUEFBRFMmIzEwO0dXd0FyTG54OEMvRjRuMFB4OG5uL2pxbVg3a2MwNjllaVhKOU1aYnZPaGIxTS9kRi9lejljZU50dnh5dEl5ZUxmdndBa05LQkJFQkUmIzEwO1JPdllUTHo2OHg5YS8rOUtmV0hpWHVhM2ZPand2cjlIdTFSMkFCSUFRemUwbzRBbmJmR1BpS2lmbk4zMzkyZ2VtOW56cXljQVlLL2MmIzEwO0MyQWZsZ1lRQUVzbnp4WDlNQUJJU0FEc3c4clVkTlNQbjkzWDk2ak5PUDRZZ09FVEFQdjA4dHZmRjFFcTdlbHJsMDdmSFRmdmViam8mIzEwO2h3QkFRZ0pnbjVaTzN4M3pEL3pjcnIrdVhhbkd0VWZmditkNEFJRDlFQUFEOE9wYjNoTUw1OSswNDg5ZnFSNkthNCsrUDVwSFR4VjkmIzEwOzZRQWtkV0F2QTh5a1hhbkdpKy8rVUJ5LytseWN1L1NYVVc0MStuNXU3Y3g5OGRLanZ4SE53eWVLdm13QUVoTUFBM1R6M29lamR2YismIzEwO09IcnRSekY5L2FXWXZ2RnlWT3NMVVQ5K051b256OGZTcWJsZFBWTUFBQWRGQUF4WWEvcG9YSC9EbzBWZkJnQnN5UjRBQUVoSUFBQkEmIzEwO1FnSUFBQklTQUFDUWtBQUFnSVFFQUFBa0pBQUFJQ0VCQUFBSkNRQUFTRWdBQUVCQ0FnQUFFaElBQUpDUUFBQ0FoQVFBQUNRa0FBQWcmIzEwO0lRRUFBQWtKQUFCSVNBQUFRRUlDQUFBU0VnQUFrSkFBQUlDRUJBQUFKQ1FBQUNBaEFRQUFDUWtBQUVpb1d2UUZBTUFrS2E4c1I2WFYmIzEwOzZIcXJSN1hWaUxzVzVvdSt0QTBFQUFCc29iU3lITlVOQy9ycVc3VlY3L0d4UnBSV2xvdSs1QjBSQUFDa1VscFpXZit0dk5jQ1h0bTAmIzEwO3NKZkhaRUhmTFFFQXdGZ3J0VmMyTHVETmVsU1cxeGJ3Wm1QVFFsK2YyQVY5dHdRQUFDT2x0TEljNWZwaVROZHVkUDFXZnVkTWZmMDMmIzEwOzlPVlcwWmM4bGdRQUFBZXF0TEljbGFWYlVhbmRpc3JTclNndnJmN1ovYkh1dDNKanFlaExUa0VBQUxBcnBlWFcybUs5c1BibnphZ3MmIzEwO0xhd3U3SnNYOU5xdEtEY3Q2S05JQUFBa3QzRkJ2M243L2RyTktIY3Y4clhWOXkzb2swRUFBRXlZMnd2Nm5VK3psN3NYK2RycSsrVm0mIzEwO3ZlaExwZ0FDQUdERWxWWlcxbmUxVjV0ckwxRmJYdDNoWG1rMW90cGVqc3BQL3ZiMmpOMkN6ZzRJQUlBaDIrcDE2SGZ1ZXZleU5RNkcmIzEwO0FBRFlwOUxhMGEvVkhTem1rM3l3RE9ORkFBQnNzdjJDbnVPa09DYWJBQUFtWHFuVldIL0oydFRyUDQycDE2NXVlWjY3QlowTUJBQXcmIzEwO2RtNHY2RGZYWHE1Mis3WG9tM2UrbDVkdVJiblZLUHFTWWVRSUFLQnc1VmFqNjNTNDFkZWZiM2hkZXUzV2hzVzlaRUdIZlJNQXdNQ3QmIzEwO0wrZzlqbm05OC9qWEJRczZGRUFBQU5zcXR4cWJUb1hiNGl6MzJxMG9MVGVMdm1SZ0c5VVR6LzNQTDlmUDN2Kzc5Yk52bUNuNllvRGgmIzEwO0tLMHM5OW5oWHI5engvdmYvRGNMT2t5ZzZzdC84SkhQUnNSblp6LzNwNy9kT0RYM1pHM3VvVWZhMWFtaXJ3dlloYTFmdG5ibm9sNnkmIzEwO3l4M1NXeDhCWEh2aW4zNGpJcjR4OTlrTGIyd2VtM2xxYWU3QngxcEhUeGtSUUFGSzdaWGJDM2F2bzE4ZExBUHMweDBML0UrLzlORy8mIzEwO2k0amZtbnY4bWVyeTRlTlBySTRIN2o5ZDlJWENPT3RlMFB1ZERyZitzV1lqeWl1dG9pOFptSEI5ZjhQLzZaUC9vaFVSbjRtSXp4Z1AmIzEwO3dFYWxsZVhiZDFkYmU0bmExTTFYNC9pTDMrLzU5SHQ1MllJT2pKWWRQY1hmR1EvTS9zRi9lS0IxN1BSVFM3TnYvcUR4QUpQa3pnVzkmIzEwOzF5NzMyL2RGTHpmY0R4MFliN3RheEs5OThaOC9IeEgvY083eFo2ckxSMDU4b1g3bXZvOGJEekNLMWhmMHJ0UGcrcjVzYmVtV0JSMUkmIzEwO1owKy94YStOQng2UGlNZG5QL2UxRHpkT3pYMjVOdmVnOFFBSHByVGN1dU8zOE1yU1F1L0RabXEzb3R5MG9BTnNaZDlQNDE5NzRwLzgmIzEwO1dVVDhtZkVBdTlKdVIzVmh2dXM4OTl0SHdKYTdGL25hNnZzV2RJQ0JhcFhhN2ZaQXYrTzVMMzFqS2lLZUtHbzhVR28xWStYbHk4UCsmIzEwO1o4ZkN5Y3ZQeHJsbnYxWDBaUUJ3c05vUmNTMGlMcSs5L2FUci9jN2Jpd01QZ0c2em4vdmFoeHVuNTU2c3pUNzR0bUdOQndSQWZ3SUEmIzEwO1lDSzhHbmN1Nk4xdlZ5OWR2TER0RFRZT05BQTZibzhISHZ4ZzYrakpBeDBQQ0lEK0JBREF5THNaV3kvdWx5OWR2TEE0aUg5b0tBSFEmIzEwO3NUNGVPSHYveCt0bjdqdVE4WUFBNkU4QUFCUnFLU0t1eEoyTCt2cFQ5SmN1WHJnK3JJc1phZ0IwTy8vNXIzKzRlV3IyeWRyY2cyOXImIzEwO1Z3WTNIaEFBL1FrQWdBUFRpb2dYb3YvTS9mS2xpeGRlTHZvaXV4VVdBQjJ6bi92VE43V09uSHBxYWZiTkh4akVlRUFBOUNjQUFQYWsmIzEwO0hSRS9qYTJmbW4veDBzVUxLMFZmNkc0VUhnQWRneG9QQ0lEK0JBQkFUOXR0cXJ0eTZlS0ZpYnNuOXNnRVFMZTE4Y0MvcnMwOStQQnUmIzEwO3h3TUNvRDhCQUNUVWExTmQ5MVAwVndhMXFXN2NqR1FBZEt5UEIrYmUvSUhXa1oyTkJ3UkFmd0lBbURDZFRYVTlaKzR4NUUxMTQyYWsmIzEwO0E2RGozSmUrTVJXbDBoZnFaKzc3MkhiakFRSFFud0FBeGtncklxN0cxaStIRzZsTmRlTm1MQUtnMi9uUC84ZVBORStkZjdMZmVFQUEmIzEwOzlDY0FnQkd4RWh0UHF1djFGUDFQeDIxVDNiZ1p1d0RvT1AvNXI3OTUrY2lKcnl6TmJod1BDSUQrQkFBd0pKczMxVzEraXY3cUpHNnEmIzEwO0d6ZGpHd0FkcStPQjhoZnJaKzc5bmZxWiswNExnUDRFQURBQU4yTDdrK3BxUlY4azJ4djdBT2gyL29uLzlJK2F4MmUrdUZpZWVxUmQmIzEwO2RrUEN6UVFBc0kybDJINXh0Nmx1UWt4VUFIU2MvL1FmdmJrMWZmUXJTNmZ2K1VEcnJxTktZSTBBZ05UNmJhcnJQb2IybGFJdmt1R1omIzEwO3lBRG9PUHY3Znp3VnBkSVg2eWZPL1U3OXhMbWgzNXA0MUFnQW1GamRtK3I2dlNUT3BqbzJtT2dBNkhiKzAvL3VJNDFqcDUrc3pkenomIzEwO2NOYnhnQUNBc2ZWS2JILzdWNXZxMkpVMEFkQ1JlVHdnQUdBazJWUkhJZElGUU1mWjMvL2pxWWo0UXYzaytZOWxHUThJQUJpNld0eDUmIzEwOys5Y05UOUZmdW5qaFJ0RVhTVTVwQTZEYjJuamd5N1daZTk0MnllTUJBUUFEMVl6VjI3OXVkUXl0VFhXTUxBSFE1ZnludnZxbTFsM0gmIzEwO25wclU4WUFBZ0IxYmllMXYvMnBUSFdOTkFQUndlenh3N21QMUUrY25aandnQUdEZFZwdnFmaElSTDloVXg2UVRBTnM0LytrLytuRGomIzEwOzJNeVRrekFlRUFBa3NYbFQzZWFuNksvWVZBY0NZTWR1andmdS9rRHJybU5qV1FJQ2dBbFFpKzEzek50VUJ6c2dBSFpwYlR6d1JQM2smIzEwO3VZK1AyM2hBQUREaW1ySDk3Vjl0cW9NQkVRRDdNRzdqQVFGQWdiYmFWTmQ1aXY2YVRYVXdQQUpnQU1abFBDQUFPRURkbStwNnZTek8mIzEwO3Bqb1lNUUpnZ0VaOVBDQUEyS1Byc2YzY2Zhbm9pd1IyUndBY2tQWHh3T2w3M3RhdWpNYVRBZ0tBSG15cWc2UUV3QUdiL2IwL2ZLQjEmIzEwOytQaFR0ZFAzZkxEbzhZQUFTS2ZmcHJydTI3KytXdlJGQXNVUUFFT3lPaDVvUDFFL2NmN2o5WlBGakFjRXdFVHAzbFRYN3loYW0rcUEmIzEwO3ZnUkFBYzUvNnFzZmJoeWIrWEp0NXQ1SGhqa2VFQUJqNWVYWS92YXZyYUl2RWhoZkFxQkF3eDRQQ0lDUllWTWRVRGdCTUFLR05SNFEmIzEwO0FFT3hHTnZmL3ZWbTBSY0pJQUJHekVHT0J3VEF2blUyMVcxMSsxZWI2b0N4SUFCRzFPenYvZUVEcmJ1T1AxV2JHZHg0UUFCc2FTVWkmIzEwO1hvenRiLy9xZnhoZ0lnaUFFVGYzaWE5VVc5Tkh2akNJOFVEeUFOaHFVMTNuOXE4MjFRRnBDSUF4Y3Y1VFgvM3QxWHNQN0cwOE1NRUImIzEwOzBMMnBydGZUODFkc3FnUFlTQUNNb2IyT0I4WTBBQlpqK3gzek50VUI3SklBR0dOem4vaEtkZm5Ra1NlV1RwNy8zWjJNQjBZd0FCcXgmIzEwOy9lMWZiYW9ET0FBQ1lFTHNaRHd3NUFEb3Q2bXUreW42YXpiVkFSUkRBRXlZMlU4KzljYlc0Uk5QMVdidWZXenplR0RBQWREWlZOZnYmIzEwO0pYRTIxUUdNTUFFd29XNlBCODU5dkg1eWRpWmlWd0V3SDF2UDNXMnFBeGh6QWlDQnpuamcwTUxyYnpuN3ZmL1JESnZxQU5JVEFJazgmIzEwOzlJLy8xYUgvOS9XbkdrVmZCd0RGRXdBQWtGQzU2QXNBQUlaUEFBQkFRZ0lBQUJJU0FBQ1FrQUFBZ0lRRUFBQWtKQUFBSUNFQkFBQUomIzEwO0NRQUFTRWdBQUVCQ0FnQUFFaElBQUpDUUFBQ0FoQVFBQUNRa0FBQWdJUUVBQUFrSkFBQklTQUFBUUVJQ0FBQVNFZ0FBa0pBQUFJQ0UmIzEwO0JBQUFKQ1FBQUNBaEFRQUFDUWtBQUVoSUFBQkFRZ0lBQUJJU0FBQ1FrQUFBZ0lRRUFBQWtKQUFBSUNFQkFBQUpDUUFBU0VnQUFFQkMmIzEwO0FnQUFFaElBQUpDUUFBQ0FoQVFBQUNRa0FBQWdJUUVBQUFrSkFBQklTQUFBUUVJQ0FBQVNFZ0FBa0pBQUFJQ0VCQUFBSkNRQUFDQWgmIzEwO0FRQUFDUWtBQUVoSUFBQkFRZ0lBQUJJU0FBQ1FrQUFBZ0lRRUFBQWtKQUFBSUNFQkFBQUpDUUFBU0VnQUFFQkNBZ0FBRWhJQUFKQ1EmIzEwO0FBQ0FoQVFBQUNRa0FBQWdJUUVBQUFrSkFBQklTQUFBUUVJQ0FBQVNFZ0FBa0pBQUFJQ0VCQUFBSkNRQUFDQWhBUUFBQ1FrQUFFaEkmIzEwO0FBQkFRZ0lBQUJJU0FBQ1FrQUFBZ0lRRUFBQWtKQUFBSUNFQkFBQUpDUUFBU0VnQUFFQkNBZ0FBRWhJQUFKQ1FBQUNBaEFRQUFDUWsmIzEwO0FBQWdJUUVBQUFrSkFBQklTQUFBUUVJQ0FBQVNFZ0FBa0pBQUFJQ0VCQUFBSkNRQUFDQWhBUUFBQ1FrQUFFaElBQUJBUWdJQUFCSVMmIzEwO0FBQ1FrQUFBZ0lRRUFBQWtKQUFBSUNFQkFBQUovWDhrWUVQYUxYUm5kUUFBQUNWMFJWaDBaR0YwWlRwamNtVmhkR1VBTWpBeU5DMHcmIzEwO05TMHhObFF4TkRvd09Ub3lNaXN3TWpvd01HU1FwQm9BQUFBbGRFVllkR1JoZEdVNmJXOWthV1o1QURJd01qUXRNRFV0TVRaVU1UUTYmIzEwO01EazZNaklyTURJNk1EQVZ6UnltQUFBQUdYUkZXSFJUYjJaMGQyRnlaUUIzZDNjdWFXNXJjMk5oY0dVdWIzSm5tKzQ4R2dBQUFBQkomIzEwO1JVNUVya0pnZ2c9PSIgeT0iMCIgeD0iMCIgaGVpZ2h0PSI1MTIiIHdpZHRoPSI1MTIiIGlkPSJpbWFnZTAiLz4mI3hhOzwvc3ZnPg==;" vertex="1" parent="1">
          <mxGeometry x="1430.38" y="350" width="80" height="80" as="geometry" />
        </mxCell>
        <mxCell id="-p1IqklPGC9IZMc8WhPd-9" value="&lt;b&gt;&lt;font color=&quot;#59c2ff&quot; face=&quot;Helvetica&quot;&gt;Dépot de code local&lt;/font&gt;&lt;/b&gt;" style="text;html=1;align=center;verticalAlign=middle;resizable=0;points=[];autosize=1;strokeColor=#247BFF;fillColor=none;" vertex="1" parent="1">
          <mxGeometry x="1060.5" y="80" width="140" height="30" as="geometry" />
        </mxCell>
        <mxCell id="-p1IqklPGC9IZMc8WhPd-10" value="&lt;b&gt;&lt;font color=&quot;#59c2ff&quot; face=&quot;Helvetica&quot;&gt;Docker Engine&lt;/font&gt;&lt;/b&gt;" style="text;html=1;align=center;verticalAlign=middle;resizable=0;points=[];autosize=1;strokeColor=#247BFF;fillColor=none;" vertex="1" parent="1">
          <mxGeometry x="1420" y="179.99999999999997" width="110" height="30" as="geometry" />
        </mxCell>
        <mxCell id="-p1IqklPGC9IZMc8WhPd-12" value="" style="shape=image;verticalLabelPosition=bottom;labelBackgroundColor=default;verticalAlign=top;aspect=fixed;imageAspect=0;image=data:image/svg+xml,PHN2ZyB4bWxuczp4bGluaz0iaHR0cDovL3d3dy53My5vcmcvMTk5OS94bGluayIgeG1sbnM9Imh0dHA6Ly93d3cudzMub3JnLzIwMDAvc3ZnIiB2aWV3Qm94PSIwLCAwLCAxNTAwLCAxNTAwIiBoZWlnaHQ9IjE1MDAiIHdpZHRoPSIxNTAwIiB5PSIwIiB4PSIwIiB2ZXJzaW9uPSIxLjEiPiYjeGE7ICA8ZyBpZD0icHl0ZXN0X2xvZ28iPiYjeGE7ICAgIDxnIGlkPSJncmFwaGljcyI+JiN4YTsgICAgICA8cGF0aCBpZD0iaG9yaXpvbnRhbF9iYXIiIGZpbGw9IiM2OTY5NjkiIGQ9Ik01MjEuNTc2LDIxMy43NSBMOTUyLjYxNiwyMTMuNzUgQzk2NC4yODMsMjEzLjc1IDk3My43NDEsMjIzLjIwOCA5NzMuNzQxLDIzNC44NzUgTDk3My43NDEsMjM0Ljg3NSBDOTczLjc0MSwyNDYuNTQyIDk2NC4yODMsMjU2IDk1Mi42MTYsMjU2IEw1MjEuNTc2LDI1NiBDNTA5LjkwOSwyNTYgNTAwLjQ1MSwyNDYuNTQyIDUwMC40NTEsMjM0Ljg3NSBMNTAwLjQ1MSwyMzQuODc1IEM1MDAuNDUxLDIyMy4yMDggNTA5LjkwOSwyMTMuNzUgNTIxLjU3NiwyMTMuNzUgeiIvPiYjeGE7ICAgICAgPGcgaWQ9InRvcF9iYXJzIj4mI3hhOyAgICAgICAgPHBhdGggZmlsbD0iIzAwOUZFMyIgZD0iTTUyNS4zMzMsMTcxIEw2MTIsMTcxIEw2MTIsMTkxIEw1MjUuMzMzLDE5MSBMNTI1LjMzMywxNzEgeiIvPiYjeGE7ICAgICAgICA8cGF0aCBmaWxsPSIjQzdEMzAyIiBkPSJNNjM4LjY2NywxNzEgTDcyNS4zMzMsMTcxIEw3MjUuMzMzLDE5MSBMNjM4LjY2NywxOTEgTDYzOC42NjcsMTcxIHoiLz4mI3hhOyAgICAgICAgPHBhdGggZmlsbD0iI0YwN0UxNiIgZD0iTTc1MC41LDE3MSBMODM3LjE2NywxNzEgTDgzNy4xNjcsMTkxIEw3NTAuNSwxOTEgTDc1MC41LDE3MSB6Ii8+JiN4YTsgICAgICAgIDxwYXRoIGZpbGw9IiNERjI4MTUiIGQ9Ik04NjEuODYxLDE3MSBMOTQ4LjUyOCwxNzEgTDk0OC41MjgsMTkxIEw4NjEuODYxLDE5MSBMODYxLjg2MSwxNzEgeiIvPiYjeGE7ICAgICAgPC9nPiYjeGE7ICAgICAgPGcgaWQ9ImJvdHRvbV9iYXJzIj4mI3hhOyAgICAgICAgPHBhdGggZmlsbD0iI0RGMjgxNSIgZD0iTTg2MS44NjEsMjc4IEw5NDguNTI4LDI3OCBMOTQ4LjUyOCw0MjQuNSBMODYxLjg2MSw0MjQuNSBMODYxLjg2MSwyNzggeiIvPiYjeGE7ICAgICAgICA8cGF0aCBmaWxsPSIjRjA3RTE2IiBkPSJNNzUwLjUsMjc4IEw4MzcuMzI4LDI3OCBMODM3LjMyOCw1MTYgTDc1MC41LDUxNiBMNzUwLjUsMjc4IHoiLz4mI3hhOyAgICAgICAgPHBhdGggZmlsbD0iI0M3RDMwMiIgZD0iTTYzOC42NjcsMjc4IEw3MjUuMzI4LDI3OCBMNzI1LjMyOCw2MzQuNSBMNjM4LjY2Nyw2MzQuNSBMNjM4LjY2NywyNzggeiIvPiYjeGE7ICAgICAgICA8cGF0aCBmaWxsPSIjMDA5RkUzIiBkPSJNNTI1LjMzMywyNzggTDYxMiwyNzggTDYxMiw3MTIuNSBMNTI1LjMzMyw3MTIuNSBMNTI1LjMzMywyNzggeiIvPiYjeGE7ICAgICAgPC9nPiYjeGE7ICAgIDwvZz4mI3hhOyAgICA8ZyBpZD0icHl0ZXN0Ij4mI3hhOyAgICAgIDxwYXRoIGZpbGw9IiM2OTY5NjkiIGQ9Ik0yNTIuOTU5LDExNzMuODQ2IFEyNDAuMTM5LDExNzMuODQ2IDIyOS43MSwxMTcxLjAyMSBRMjE5LjI4LDExNjguMTk2IDIxMC45MTQsMTE2My41MjUgUTIwMi41NDksMTE1OC44NTMgMTk2LjEzOSwxMTUyLjU1MiBRMTg5LjcyOSwxMTQ2LjI1IDE4NC43MzIsMTEzOS4yOTcgTDE4Mi4xMjQsMTEzOS4yOTcgUTE4Mi43NzYsMTE0Ni42ODUgMTgzLjQyOCwxMTUzLjQyMSBRMTgzLjg2MiwxMTU5LjA3IDE4NC4yOTcsMTE2NS4wNDYgUTE4NC43MzIsMTE3MS4wMjEgMTg0LjczMiwxMTc0LjQ5OCBMMTg0LjczMiwxMjc2LjQwNCBMMTQ1LjE4NiwxMjc2LjQwNCBMMTQ1LjE4Niw5MzAuOTIxIEwxNzcuMzQ0LDkzMC45MjEgTDE4Mi45OTMsOTYzLjA3OSBMMTg0LjczMiw5NjMuMDc5IFExODkuNzI5LDk1NS40NzQgMTk2LjAzLDk0OC44NDcgUTIwMi4zMzIsOTQyLjIyIDIxMC42OTcsOTM3LjMzMSBRMjE5LjA2Myw5MzIuNDQyIDIyOS40OTIsOTI5LjUwOSBRMjM5LjkyMiw5MjYuNTc1IDI1Mi45NTksOTI2LjU3NSBRMjczLjM4NCw5MjYuNTc1IDI5MC4xMTUsOTM0LjM5NyBRMzA2Ljg0Niw5NDIuMjIgMzE4LjY4OCw5NTcuNzU2IFEzMzAuNTMsOTczLjI5MiAzMzcuMDQ4LDk5Ni4zMjQgUTM0My41NjcsMTAxOS4zNTYgMzQzLjU2NywxMDQ5Ljc3NiBRMzQzLjU2NywxMDgwLjQxMyAzMzcuMDQ4LDExMDMuNTU0IFEzMzAuNTMsMTEyNi42OTUgMzE4LjY4OCwxMTQyLjMzOSBRMzA2Ljg0NiwxMTU3Ljk4NCAyOTAuMTE1LDExNjUuOTE1IFEyNzMuMzg0LDExNzMuODQ2IDI1Mi45NTksMTE3My44NDYgeiBNMjQ1LjM1NCw5NTkuMzg1IFEyMjguODQsOTU5LjM4NSAyMTcuNDMzLDk2NC4zODMgUTIwNi4wMjUsOTY5LjM4IDE5OC45NjQsOTc5LjU5MyBRMTkxLjkwMiw5ODkuODA1IDE4OC41MzQsMTAwNS4wMTUgUTE4NS4xNjYsMTAyMC4yMjUgMTg0LjczMiwxMDQwLjg2NyBMMTg0LjczMiwxMDQ5Ljc3NiBRMTg0LjczMiwxMDcxLjcyMiAxODcuNjY1LDEwODguNzc5IFExOTAuNTk4LDExMDUuODM1IDE5Ny42NiwxMTE3LjQ2IFEyMDQuNzIyLDExMjkuMDg1IDIxNi40NTUsMTEzNS4wNiBRMjI4LjE4OSwxMTQxLjAzNiAyNDUuNzg5LDExNDEuMDM2IFEyNzUuMTIyLDExNDEuMDM2IDI4OC45MiwxMTE3LjM1MiBRMzAyLjcxNywxMDkzLjY2NyAzMDIuNzE3LDEwNDkuMzQxIFEzMDIuNzE3LDEwMDQuMTQ2IDI4OC45Miw5ODEuNzY2IFEyNzUuMTIyLDk1OS4zODUgMjQ1LjM1NCw5NTkuMzg1IHoiLz4mI3hhOyAgICAgIDxwYXRoIGZpbGw9IiM2OTY5NjkiIGQ9Ik0zNzAuMjkzLDkzMC45MjEgTDQxMS4zNiw5MzAuOTIxIEw0NTguMDc2LDEwNjQuMTE3IFE0NjEuMTE4LDEwNzIuODA4IDQ2NC4yNjksMTA4Mi4zNjkgUTQ2Ny40MiwxMDkxLjkyOSA0NzAuMTM2LDExMDEuNDkgUTQ3Mi44NTIsMTExMS4wNSA0NzQuODA3LDExMTkuOTU5IFE0NzYuNzYzLDExMjguODY4IDQ3Ny42MzIsMTEzNi40NzMgTDQ3OC45MzYsMTEzNi40NzMgUTQ4MC4wMjIsMTEzMS4wNDEgNDgyLjQxMiwxMTIxLjY5NyBRNDg0LjgwMiwxMTEyLjM1NCA0ODcuNzM2LDExMDEuODE2IFE0OTAuNjY5LDEwOTEuMjc3IDQ5My44MiwxMDgxLjA2NSBRNDk2Ljk3LDEwNzAuODUzIDQ5OS4zNiwxMDYzLjY4MiBMNTQyLjYsOTMwLjkyMSBMNTgzLjQ1LDkzMC45MjEgTDQ4OS4xNDgsMTIwMC41NzIgUTQ4My4wNjQsMTIxOC4xNzIgNDc2LjAwMiwxMjMyLjE4NyBRNDY4Ljk0MSwxMjQ2LjIwMiA0NTkuNTk3LDEyNTUuOTc5IFE0NTAuMjU0LDEyNjUuNzU3IDQzNy42NTEsMTI3MS4wODEgUTQyNS4wNDksMTI3Ni40MDQgNDA3LjY2NiwxMjc2LjQwNCBRMzk2LjM2NywxMjc2LjQwNCAzODguMTEsMTI3NS4yMDkgUTM3OS44NTQsMTI3NC4wMTQgMzczLjk4NywxMjcyLjcxIEwzNzMuOTg3LDEyNDEuMjA0IFEzNzguNTUsMTI0Mi4yOTEgMzg1LjUwMywxMjQzLjA1MSBRMzkyLjQ1NiwxMjQzLjgxMiA0MDAuMDYxLDEyNDMuODEyIFE0MTAuNDkxLDEyNDMuODEyIDQxOC4wOTYsMTI0MS4zMTMgUTQyNS43MDEsMTIzOC44MTQgNDMxLjM1LDEyMzQuMDM0IFE0MzcsMTIyOS4yNTMgNDQxLjAxOSwxMjIyLjMgUTQ0NS4wMzksMTIxNS4zNDcgNDQ4LjI5OCwxMjA2LjQzOCBMNDYwLjY4NCwxMTcxLjY3MyB6Ii8+JiN4YTsgICAgICA8cGF0aCBmaWxsPSIjMDA5RkUzIiBkPSJNNjk1LjU2OCwxMTQxLjQ3IFE2OTkuNDc5LDExNDEuNDcgNzA0LjM2OCwxMTQxLjAzNiBRNzA5LjI1NywxMTQwLjYwMSA3MTMuODIsMTEzOS45NDkgUTcxOC4zODMsMTEzOS4yOTcgNzIyLjE4NiwxMTM4LjQyOCBRNzI1Ljk4OCwxMTM3LjU1OSA3MjcuOTQ0LDExMzYuOTA3IEw3MjcuOTQ0LDExNjYuODkzIFE3MjUuMTE5LDExNjguMTk2IDcyMC43NzMsMTE2OS41IFE3MTYuNDI4LDExNzAuODA0IDcxMS4yMTMsMTE3MS43ODEgUTcwNS45OTgsMTE3Mi43NTkgNzAwLjM0OSwxMTczLjMwMiBRNjk0LjY5OSwxMTczLjg0NiA2ODkuMjY3LDExNzMuODQ2IFE2NzUuNzk1LDExNzMuODQ2IDY2NC4yNzksMTE3MC4zNjkgUTY1Mi43NjMsMTE2Ni44OTMgNjQ0LjM5OCwxMTU4LjQxOCBRNjM2LjAzMiwxMTQ5Ljk0NCA2MzEuMjUyLDExMzUuNDk1IFE2MjYuNDcyLDExMjEuMDQ1IDYyNi40NzIsMTA5OS4xIEw2MjYuNDcyLDk2MC42ODkgTDU5Mi43OTIsOTYwLjY4OSBMNTkyLjc5Miw5NDMuMDg5IEw2MjYuNDcyLDkyNi4xNDEgTDY0My40Miw4NzYuMTY1IEw2NjYuMjM1LDg3Ni4xNjUgTDY2Ni4yMzUsOTMwLjkyMSBMNzI2LjIwNiw5MzAuOTIxIEw3MjYuMjA2LDk2MC42ODkgTDY2Ni4yMzUsOTYwLjY4OSBMNjY2LjIzNSwxMDk5LjEgUTY2Ni4yMzUsMTEyMC4xNzYgNjczLjA3OSwxMTMwLjgyMyBRNjc5LjkyNCwxMTQxLjQ3IDY5NS41NjgsMTE0MS40NyB6Ii8+JiN4YTsgICAgICA8cGF0aCBmaWxsPSIjMDA5RkUzIiBkPSJNODY4LjUyNywxMTczLjg0NiBRODQ0LjYyNiwxMTczLjg0NiA4MjQuODUzLDExNjUuODA2IFE4MDUuMDgsMTE1Ny43NjcgNzkwLjg0OCwxMTQyLjMzOSBRNzc2LjYxNiwxMTI2LjkxMiA3NjguNzkzLDExMDQuMDk3IFE3NjAuOTcxLDEwODEuMjgyIDc2MC45NzEsMTA1MS45NDkgUTc2MC45NzEsMTAyMi4zOTggNzY4LjE0Miw5OTkuMTQ4IFE3NzUuMzEyLDk3NS44OTkgNzg4LjM0OSw5NTkuNzExIFE4MDEuMzg2LDk0My41MjMgODE5LjUyOSw5MzUuMDQ5IFE4MzcuNjczLDkyNi41NzUgODU5LjYxOSw5MjYuNTc1IFE4ODEuMTMsOTI2LjU3NSA4OTguMjk1LDkzNC4yODkgUTkxNS40NjEsOTQyLjAwMiA5MjcuNDEyLDk1Ni4wMTcgUTkzOS4zNjIsOTcwLjAzMiA5NDUuNzcyLDk4OS42OTcgUTk1Mi4xODIsMTAwOS4zNjEgOTUyLjE4MiwxMDMzLjI2MiBMOTUyLjE4MiwxMDU3LjgxNSBMODAxLjgyMSwxMDU3LjgxNSBRODAyLjkwNywxMDk5Ljc1MSA4MTkuNTI5LDExMTkuNTI0IFE4MzYuMTUyLDExMzkuMjk3IDg2OC45NjIsMTEzOS4yOTcgUTg4MC4wNDMsMTEzOS4yOTcgODg5LjQ5NSwxMTM4LjIxMSBRODk4Ljk0NywxMTM3LjEyNSA5MDcuNzQ3LDExMzUuMDYgUTkxNi41NDcsMTEzMi45OTYgOTI0LjgwNCwxMTI5Ljg0NSBROTMzLjA2MSwxMTI2LjY5NSA5NDEuNTM1LDExMjIuNzg0IEw5NDEuNTM1LDExNTcuOTg0IFE5MzIuODQ0LDExNjIuMTEyIDkyNC40NzgsMTE2NS4xNTQgUTkxNi4xMTMsMTE2OC4xOTYgOTA3LjMxMywxMTcwLjE1MiBRODk4LjUxMywxMTcyLjEwNyA4ODkuMDYxLDExNzIuOTc3IFE4NzkuNjA5LDExNzMuODQ2IDg2OC41MjcsMTE3My44NDYgeiBNODU4Ljc0OSw5NTkuMzg1IFE4MzMuOTc5LDk1OS4zODUgODE5LjUyOSw5NzYuMzMzIFE4MDUuMDgsOTkzLjI4MiA4MDIuNjksMTAyNS42NTcgTDkwOS41OTQsMTAyNS42NTcgUTkwOS41OTQsMTAxMC44ODIgOTA2LjY2MSw5OTguNjA1IFE5MDMuNzI3LDk4Ni4zMjkgODk3LjUzNSw5NzcuNjM3IFE4OTEuMzQyLDk2OC45NDYgODgxLjc4Miw5NjQuMTY2IFE4NzIuMjIxLDk1OS4zODUgODU4Ljc0OSw5NTkuMzg1IHoiLz4mI3hhOyAgICAgIDxwYXRoIGZpbGw9IiMwMDlGRTMiIGQ9Ik0xMTU1LjEyNiwxMTA0LjA5NyBRMTE1NS4xMjYsMTEyMS40OCAxMTQ4LjgyNSwxMTM0LjUxNyBRMTE0Mi41MjQsMTE0Ny41NTQgMTEzMC42ODIsMTE1Ni4zNTQgUTExMTguODQsMTE2NS4xNTQgMTEwMi4xMDksMTE2OS41IFExMDg1LjM3OCwxMTczLjg0NiAxMDY0LjUxOCwxMTczLjg0NiBRMTA0MC44MzQsMTE3My44NDYgMTAyMy44ODYsMTE3MC4wNDMgUTEwMDYuOTM4LDExNjYuMjQxIDk5NC4xMTgsMTE1OC44NTMgTDk5NC4xMTgsMTEyMi43ODQgUTEwMDAuODU0LDExMjYuMjYgMTAwOS4xMTEsMTEyOS42MjggUTEwMTcuMzY4LDExMzIuOTk2IDEwMjYuNDk0LDExMzUuNjA0IFExMDM1LjYyLDExMzguMjExIDEwNDUuMjg5LDExMzkuODQxIFExMDU0Ljk1OCwxMTQxLjQ3IDEwNjQuNTE4LDExNDEuNDcgUTEwNzguNjQyLDExNDEuNDcgMTA4OC41MjgsMTEzOS4wOCBRMTA5OC40MTUsMTEzNi42OSAxMTA0LjYwOCwxMTMyLjIzNiBRMTExMC44LDExMjcuNzgxIDExMTMuNjI1LDExMjEuMzcxIFExMTE2LjQ1LDExMTQuOTYxIDExMTYuNDUsMTEwNy4xMzkgUTExMTYuNDUsMTEwMC40MDMgMTExNC4yNzcsMTA5NC45NzEgUTExMTIuMTA0LDEwODkuNTM5IDExMDYuMzQ2LDEwODQuMjE2IFExMTAwLjU4OCwxMDc4Ljg5MiAxMDkwLjU5MywxMDczLjQ2IFExMDgwLjU5OCwxMDY4LjAyOCAxMDY0Ljk1MywxMDYxLjI5MiBRMTA0OS4zMDgsMTA1NC41NTYgMTAzNi44MTUsMTA0OC4wMzggUTEwMjQuMzIxLDEwNDEuNTE5IDEwMTUuNjI5LDEwMzMuNDc5IFExMDA2LjkzOCwxMDI1LjQ0IDEwMDIuMjY2LDEwMTQuOTAyIFE5OTcuNTk1LDEwMDQuMzYzIDk5Ny41OTUsOTg5LjgwNSBROTk3LjU5NSw5NzQuNTk1IDEwMDMuNTcsOTYyLjc1MyBRMTAwOS41NDUsOTUwLjkxMSAxMDIwLjQxLDk0Mi44NzIgUTEwMzEuMjc0LDkzNC44MzIgMTA0Ni40ODQsOTMwLjcwNCBRMTA2MS42OTQsOTI2LjU3NSAxMDgwLjM4LDkyNi41NzUgUTExMDEuNDU3LDkyNi41NzUgMTExOC45NDgsOTMxLjEzOCBRMTEzNi40NCw5MzUuNzAxIDExNTIuMDg0LDk0My4wODkgTDExMzguMzk1LDk3NS4wMyBRMTEyNC4yNzIsOTY4LjcyOSAxMTA5LjM4OCw5NjQuMDU3IFExMDk0LjUwNCw5NTkuMzg1IDEwNzkuMDc3LDk1OS4zODUgUTEwNTYuOTEzLDk1OS4zODUgMTA0Ni4yNjYsOTY2LjY2NCBRMTAzNS42Miw5NzMuOTQzIDEwMzUuNjIsOTg3LjQxNSBRMTAzNS42Miw5OTUuMDIgMTAzOC4xMTgsMTAwMC42NjkgUTEwNDAuNjE3LDEwMDYuMzE5IDEwNDYuNzAxLDEwMTEuMzE2IFExMDUyLjc4NSwxMDE2LjMxNCAxMDYyLjk5NywxMDIxLjQyIFExMDczLjIxLDEwMjYuNTI2IDEwODguNDIsMTAzMi44MjggUTExMDQuMDY0LDEwMzkuMzQ2IDExMTYuMzQxLDEwNDUuODY1IFExMTI4LjYxOCwxMDUyLjM4MyAxMTM3LjMwOSwxMDYwLjUzMSBRMTE0NiwxMDY4LjY4IDExNTAuNTYzLDEwNzkuMTA5IFExMTU1LjEyNiwxMDg5LjUzOSAxMTU1LjEyNiwxMTA0LjA5NyB6Ii8+JiN4YTsgICAgICA8cGF0aCBmaWxsPSIjMDA5RkUzIiBkPSJNMTI4NS4yOCwxMTQxLjQ3IFExMjg5LjE5MSwxMTQxLjQ3IDEyOTQuMDgsMTE0MS4wMzYgUTEyOTguOTY5LDExNDAuNjAxIDEzMDMuNTMyLDExMzkuOTQ5IFExMzA4LjA5NSwxMTM5LjI5NyAxMzExLjg5OCwxMTM4LjQyOCBRMTMxNS43LDExMzcuNTU5IDEzMTcuNjU2LDExMzYuOTA3IEwxMzE3LjY1NiwxMTY2Ljg5MyBRMTMxNC44MzEsMTE2OC4xOTYgMTMxMC40ODUsMTE2OS41IFExMzA2LjE0LDExNzAuODA0IDEzMDAuOTI1LDExNzEuNzgxIFExMjk1LjcxLDExNzIuNzU5IDEyOTAuMDYsMTE3My4zMDIgUTEyODQuNDExLDExNzMuODQ2IDEyNzguOTc5LDExNzMuODQ2IFExMjY1LjUwNywxMTczLjg0NiAxMjUzLjk5MSwxMTcwLjM2OSBRMTI0Mi40NzUsMTE2Ni44OTMgMTIzNC4xMDksMTE1OC40MTggUTEyMjUuNzQ0LDExNDkuOTQ0IDEyMjAuOTY0LDExMzUuNDk1IFExMjE2LjE4MywxMTIxLjA0NSAxMjE2LjE4MywxMDk5LjEgTDEyMTYuMTgzLDk2MC42ODkgTDExODIuNTA0LDk2MC42ODkgTDExODIuNTA0LDk0My4wODkgTDEyMTYuMTgzLDkyNi4xNDEgTDEyMzMuMTMyLDg3Ni4xNjUgTDEyNTUuOTQ3LDg3Ni4xNjUgTDEyNTUuOTQ3LDkzMC45MjEgTDEzMTUuOTE3LDkzMC45MjEgTDEzMTUuOTE3LDk2MC42ODkgTDEyNTUuOTQ3LDk2MC42ODkgTDEyNTUuOTQ3LDEwOTkuMSBRMTI1NS45NDcsMTEyMC4xNzYgMTI2Mi43OTEsMTEzMC44MjMgUTEyNjkuNjM2LDExNDEuNDcgMTI4NS4yOCwxMTQxLjQ3IHoiLz4mI3hhOyAgICA8L2c+JiN4YTsgIDwvZz4mI3hhOzwvc3ZnPg==;" vertex="1" parent="1">
          <mxGeometry x="1091.97" y="249.99999999999997" width="78.35" height="78.35" as="geometry" />
        </mxCell>
        <mxCell id="-p1IqklPGC9IZMc8WhPd-13" value="" style="shape=image;verticalLabelPosition=bottom;labelBackgroundColor=default;verticalAlign=top;aspect=fixed;imageAspect=0;image=data:image/svg+xml,PHN2ZyB4bWxucz0iaHR0cDovL3d3dy53My5vcmcvMjAwMC9zdmciIHByZXNlcnZlQXNwZWN0UmF0aW89InhNaW5ZTWluIG1lZXQiIHZpZXdCb3g9IjAgMCAyNTYgMjU2IiBoZWlnaHQ9IjI1MDAiIHdpZHRoPSIyNTAwIj48cGF0aCBmaWxsPSIjREU0QzM2IiBkPSJNMjUxLjE3MiAxMTYuNTk0TDEzOS40IDQuODI4Yy02LjQzMy02LjQzNy0xNi44NzMtNi40MzctMjMuMzE0IDBsLTIzLjIxIDIzLjIxIDI5LjQ0MyAyOS40NDNjNi44NDItMi4zMTIgMTQuNjg4LS43NjEgMjAuMTQyIDQuNjkzIDUuNDggNS40ODkgNy4wMiAxMy40MDIgNC42NTIgMjAuMjY2bDI4LjM3NSAyOC4zNzZjNi44NjUtMi4zNjUgMTQuNzg2LS44MzUgMjAuMjY5IDQuNjU3IDcuNjYzIDcuNjYgNy42NjMgMjAuMDc1IDAgMjcuNzQtNy42NjUgNy42NjYtMjAuMDggNy42NjYtMjcuNzQ5IDAtNS43NjQtNS43Ny03LjE4OC0xNC4yMzUtNC4yNy0yMS4zMzZsLTI2LjQ2Mi0yNi40NjItLjAwMyA2OS42MzdhMTkuODIgMTkuODIgMCAwIDEgNS4xODggMy43MWM3LjY2MyA3LjY2IDcuNjYzIDIwLjA3NiAwIDI3Ljc0Ny03LjY2NSA3LjY2Mi0yMC4wODYgNy42NjItMjcuNzQgMC03LjY2My03LjY3MS03LjY2My0yMC4wODYgMC0yNy43NDZhMTkuNjU0IDE5LjY1NCAwIDAgMSA2LjQyMS00LjI4MVY5NC4xOTZhMTkuMzc4IDE5LjM3OCAwIDAgMS02LjQyMS00LjI4MWMtNS44MDYtNS43OTgtNy4yMDItMTQuMzE3LTQuMjI3LTIxLjQ0Nkw4MS40NyAzOS40NDJsLTc2LjY0IDc2LjYzNWMtNi40NCA2LjQ0My02LjQ0IDE2Ljg4NCAwIDIzLjMyMmwxMTEuNzc0IDExMS43NjhjNi40MzUgNi40MzggMTYuODczIDYuNDM4IDIzLjMxNiAwbDExMS4yNTEtMTExLjI0OWM2LjQzOC02LjQ0IDYuNDM4LTE2Ljg4NyAwLTIzLjMyNCIvPjwvc3ZnPg==;" vertex="1" parent="1">
          <mxGeometry x="1250.81" y="270" width="30" height="30" as="geometry" />
        </mxCell>
        <mxCell id="-p1IqklPGC9IZMc8WhPd-14" value="" style="shape=image;verticalLabelPosition=bottom;labelBackgroundColor=default;verticalAlign=top;aspect=fixed;imageAspect=0;image=data:image/svg+xml,PHN2ZyB4bWxucz0iaHR0cDovL3d3dy53My5vcmcvMjAwMC9zdmciIHdpZHRoPSIyNTAwIiB2aWV3Qm94PSI4LjczOCAtNS4wMzYyMjgzNCAxNy40NTk5MjQyMiAzOS40MDYxOTQ4NCIgaGVpZ2h0PSIyNTAwIj48cGF0aCBmaWxsPSIjNTk5NjM2IiBkPSJtMTUuOS4wODcuODU0IDEuNjA0Yy4xOTIuMjk2LjQuNTU4LjY0NS44MDJhMjIuNDA2IDIyLjQwNiAwIDAgMSAyLjAwNCAyLjI2NmMxLjQ0NyAxLjkgMi40MjMgNC4wMSAzLjEyIDYuMjkyLjQxOCAxLjM5NC42NDUgMi44MjQuNjYyIDQuMjcuMDcgNC4zMjMtMS40MTIgOC4wMzUtNC40IDExLjEyYTEyLjcgMTIuNyAwIDAgMSAtMS41NyAxLjM0MmMtLjI5NiAwLS40MzYtLjIyNy0uNTU4LS40MzZhMy41ODkgMy41ODkgMCAwIDEgLS40MzYtMS4yNTVjLS4xMDUtLjUyMy0uMTc0LTEuMDQ2LS4xNC0xLjU4NnYtLjI0NGMtLjAyNC0uMDUyLS4yODUtMjQuMDUyLS4xODEtMjQuMTc1eiIvPjxwYXRoIGZpbGw9IiM2Y2FjNDgiIGQ9Im0xNS45LjAzNGMtLjAzNS0uMDctLjA3LS4wMTctLjEwNS4wMTcuMDE3LjM1LS4xMDUuNjYyLS4yOTYuOTYtLjIxLjI5Ni0uNDg4LjUyMy0uNzY3Ljc2Ny0xLjU1IDEuMzQyLTIuNzcgMi45NjMtMy43NDcgNC43NzYtMS4zIDIuNDQtMS45NyA1LjA1NS0yLjE2IDcuODA4LS4wODcuOTkzLjMxNCA0LjQ5Ny42MjcgNS41MDguODU0IDIuNjg0IDIuMzg4IDQuOTMzIDQuMzc1IDYuODg1LjQ4OC40NyAxLjAxLjkwNiAxLjU1IDEuMzI1LjE1NyAwIC4xNzQtLjE0LjIxLS4yNDRhNC43OCA0Ljc4IDAgMCAwIC4xNTctLjY4bC4zNS0yLjYxNHoiLz48cGF0aCBmaWxsPSIjYzJiZmJmIiBkPSJtMTYuNzU0IDI4Ljg0NWMuMDM1LS40LjIyNy0uNzMyLjQzNi0xLjA2My0uMjEtLjA4Ny0uMzY2LS4yNi0uNDg4LS40NTNhMy4yMzUgMy4yMzUgMCAwIDEgLS4yNi0uNTc1Yy0uMjQ0LS43MzItLjI5Ni0xLjUtLjM2Ni0yLjI0OHYtLjQ1M2MtLjA4Ny4wNy0uMTA1LjY2Mi0uMTA1Ljc1YTE3LjM3IDE3LjM3IDAgMCAxIC0uMzE0IDIuMzUzYy0uMDUyLjMxNC0uMDg3LjYyNy0uMjguOTA2IDAgLjAzNSAwIC4wNy4wMTcuMTIyLjMxNC45MjQuNCAxLjg2NS40NTMgMi44MjR2LjM1YzAgLjQxOC0uMDE3LjMzLjMzLjQ3LjE0LjA1Mi4yOTYuMDcuNDM2LjE3NC4xMDUgMCAuMTIyLS4wODcuMTIyLS4xNTdsLS4wNTItLjU3NXYtMS42MDRjLS4wMTctLjI4LjAzNS0uNTU4LjA3LS44MnoiLz48L3N2Zz4=;" vertex="1" parent="1">
          <mxGeometry x="1070.5" y="440.5" width="120" height="120" as="geometry" />
        </mxCell>
        <mxCell id="-p1IqklPGC9IZMc8WhPd-15" value="" style="shape=image;verticalLabelPosition=bottom;labelBackgroundColor=default;verticalAlign=top;aspect=fixed;imageAspect=0;image=data:image/svg+xml,PHN2ZyB4bWxuczp4bGluaz0iaHR0cDovL3d3dy53My5vcmcvMTk5OS94bGluayIgeG1sbnM9Imh0dHA6Ly93d3cudzMub3JnLzIwMDAvc3ZnIiB4bWw6c3BhY2U9InByZXNlcnZlIiB2aWV3Qm94PSIwIDAgMTMxNSA3MzciIGhlaWdodD0iNzM3cHgiIHdpZHRoPSIxMzE1cHgiIHk9IjBweCIgeD0iMHB4IiBpZD0iTGF5ZXJfMSIgdmVyc2lvbj0iMS4xIj4gIDxpbWFnZSBocmVmPSJkYXRhOmltYWdlL3BuZztiYXNlNjQsaVZCT1J3MEtHZ29BQUFBTlNVaEVVZ0FBQlNNQUFBTGhDQVlBQUFDa01iR05BQUFBQkdkQlRVRUFBTEdQQy94aEJRQUFBQ0JqU0ZKTiYjMTA7QUFCNkpnQUFnSVFBQVBvQUFBQ0E2QUFBZFRBQUFPcGdBQUE2bUFBQUYzQ2N1bEU4QUFBQUJtSkxSMFFBL3dEL0FQK2d2YWVUQUFBQSYjMTA7Q1hCSVdYTUFBQkowQUFBU2RBSGVaaDk0QUFCYlpVbEVRVlI0MnUzZGVaeWRkMW4vLytzNk0wbmFBbTB5TTJrcGhaWm1hVXNWTnhCUSYjMTA7Uk53MzNKWGlUM0ZCd1RSTHJZaWdvbGlLb2dJQ2xqWkpLeW9nNmhlS3lLb0NJaGFScFVEWkRXMHpTVnRvNlpKTXV0QXRtWmx6L2Y0byYjMTA7U0lHbVRab3o1M1Btbk9mendRTktvUGQ1M1RPZFNmTE9mWjg3QXdBQUZscFZyajUvejVPekc3OFVFWStMaktOYko0MkVpdXNyNC8xUiYjMTA7M2RmdTJERDFsc2lzMWtrQXdHakwxZ0VBQUF5M2g1KzM1NFR4VHIwaElyNjlkY3NvcTZyM0xSbnJQdVhTMDQrK3RuVUxBREM2akpFQSYjMTA7QUN5WWsxNXg0NG56NC9NWForVEsxaTFFVk1VMTQ5M3VZeTQ3WStVWFdyY0FBS09wMHpvQUFJQWhkV0dOelkvUC80c2hjbkJreG5IeiYjMTA7WS9tR3FISlJBZ0RRaERFU0FJQUZzZmFHbVYvT3lHOXAzY0hYeXU5Y3MzWG1aMXRYQUFDanlSZ0pBTUNDcU14ZmJkM0FmbFQrU3VzRSYjMTA7QUdBMEdTTUJBRmdRRmZYNDFnM3NUejJoZFFFQU1KcU1rUUFBOU55cUxkY2VuWmxMV25ld0g1a3JUbmpWRlllMXpnQUFSbzh4RWdDQSYjMTA7bmx1U2h4M1J1b0g3Y05OeVl5UUEwSGZHU0FBQUFBQ2dMNHlSQUFBQUFFQmZHQ01CQUFBQWdMNHdSZ0lBQUFBQWZXR01CQUFBQUFENiYjMTA7d2hnSkFBQUFBUFNGTVJJQUFBQUE2QXRqSkFBQUFBRFFGOFpJQUFBQUFLQXZqSkVBQUFBQVFGOFlJd0VBQUFDQXZqQkdBZ0FBQUFCOSYjMTA7WVl3RUFBQUFBUHJDR0FrQUFBQUE5SVV4RWdBQUFBRG9DMk1rQUFBQUFOQVh4a2dBQUFBQW9DK01rUUFBQUFCQVh4Z2pBUUFBQUlDKyYjMTA7TUVZQ0FBQUFBSDFoakFRQUFBQUErc0lZQ1FBQUFBRDBoVEVTQUFBQUFPZ0xZeVFBQUFBQTBCZkdTQUFBQUFDZ0w0eVJBQUFBQUVCZiYjMTA7R0NNQkFBQUFnTDR3UmdJQUFBQUFmV0dNQkFBQUFBRDZ3aGdKQUFBQUFQU0ZNUklBQUFBQTZBdGpKQUFBQUFEUUY4WklBQUFBQUtBdiYjMTA7akpFQUFBQUFRRjhZSXdFQUFBQ0F2akJHQWdBQUFBQjlZWXdFQUFBQUFQckNHQWtBQUFBQTlJVXhFZ0FBQUFEb0MyTWtBQUFBQU5BWCYjMTA7eGtnQUFBQUFvQytNa1FBQUFBQkFYeGdqQVFBQUFJQytNRVlDQUFBQUFIMWhqQVFBQUFBQStzSVlDUUFBQUFEMGhURVNBQUFBQU9nTCYjMTA7WXlRQUFBQUEwQmZHU0FBQUFBQ2dMNHlSQUFBQUFFQmZHQ01CQUFBQWdMNHdSZ0lBQUFBQWZXR01CQUFBQUFENndoZ0pBQUFBQVBTRiYjMTA7TVJJQUFBQUE2QXRqSkFBQUFBRFFGOFpJQUFBQUFLQXZqSkVBQUFBQVFGOFlJd0VBQUFDQXZqQkdBZ0FBQUFCOVlZd0VBQUFBQVByQyYjMTA7R0FrQUFBQUE5SVV4RWdBQUFBRG9DMk1rQUFBQUFOQVh4a2dBQUFBQW9DK01rUUFBQUFCQVh4Z2pBUUFBQUlDK01FWUNBQUFBQUgxaCYjMTA7akFRQUFBQUErc0lZQ1FBQUFBRDBoVEVTQUFBQUFPZ0xZeVFBQUFBQTBCZkdTQUFBQUFDZ0w0eVJBQUFBQUVCZkdDTUJBQUFBZ0w0dyYjMTA7UmdJQUFBQUFmV0dNQkFBQUFBRDZ3aGdKQUVEUHpYVzc4NjBidUhkTE92UGQxZzBBd09neFJnSUEwSE01dCtLRzFnM3NYMFh0blQ1eiYjMTA7NnBiV0hRREE2REZHQWdEUWM5Tm5kdlpXMVk3V0hlelhaMXNIQUFDanlSZ0pBTUNDeUl3M3RXN2dubVg1M0FBQWJSZ2pBUUJZRU9PZCYjMTA7N3N1aTR2YldIWHlOcXB1WExoMC9yM1VHQURDYWpKRUFBQ3lJUzA4Lyt0cHUxb2JXSFh5TmpOL1k5b3psZTFwbkFBQ2p5UmdKQU1DQyYjMTA7MmJsaDZqV1ZkVVpVZWJwMlkxVTFHMVcvUHIxaDZvMnRXd0NBMFdXTUJBQmdRZTFZUDNWZVpUMjJJdDRWVmRXNlovUlV0NnJlM3UzbSYjMTA7bzZZM1RyMnFkUTBBTU5xeWRRQUFBS1BqeEZkZWQweG5kdXl4V1oySFJOWmhyWHVHV1diZVVaWFhkTWJHUDNUNXVpTjN0KzRCQUFBQSYjMTA7QUFBQUFBQUFBQUFBQUFBQUFBQUFBQUFBQUFBQUFBQUFBQUFBQUFBQUFBQUFBQUFBQUFBQUFBQUFBQUFBQUFBQUFBQUFBQUFBQUFBQSYjMTA7QUFBQUFBQUFBQUFBQUFBQUFBQUFBQUFBQUFBQUFBQUFBQUFBQUFBQUFBQUF2bGEyRGdDQWUzTHkzK3g2VUhkdi9tQkZycTJJdzF2MyYjMTA7REx1TXVDT2p0dGRjdkh2NnpLbGIrdjM2cXk3WWM5VFlYUGY3ZmI3N0l5UHU2SGJxOGlWTDZ0MlhQWDNsRi92NTJtdTIzUGl0RWQzSCYjMTA7UmRUUlZlblhvZ3NvbzdyWnlldm41dUlEVjV3eCtlbldQUUFBRWNaSUFBYk1DUysvY2ZuNDB1NVpFYlVoTTVlMjdoazFWYlV2TXkvWSYjMTA7RjJObmZXN0Q4aHNYK3ZWT2ZlVk5FL3Yyelo5ZFViL3A4OTEvVmJVdk1qZlA3ZTI4NEtwbnJyaHBJVjlyN2VhWkozVWpYcHdacDdZKyYjMTA7NzFGVVZaL3NaUHp1OWcxVDcyN2RBZ0NNTm1Na0FBTmo5WG5YcjhrYy83ZklXTnU2WmRSVjFjNXV0L3VqVjV4eDlPVUw5Um9uWGJEciYjMTA7bFBtNS9OZk1YTlg2ZkluTHF6djNwQjJianBsZWlJT3Yzckw3THpMeTkxcWZKQkVaOWJ6dEc2Yit0SFVIQURDNmpKRUFESVJUWDNuVCYjMTA7eEw3WitZc2pZazNyRnU1U1ZWY3U2UzU1OUtWbkhEWFQ2Mk9mY3U3Tms3T2QyWTltNXNOYm55Zi9aM3BmakQybTExZkVydDB5OCt5SyYjMTA7ZUhIcmsrTnVLdFpQYjV3OHYzVUdBRENhT3EwREFDQWlZdCsrK1JlRUlYS2daT2JENXpxemY3WVF4NTdyelA2RklYTGdyRmxhOHkvbyYjMTA7NlFIUHYybDF0K3FGclUrTXI1SHhzcFBQM2ZXUTFoa0F3R2d5UmdMUTNLbXZ2R21pb242emRRZjM2RGZXbkhQTHlsNGVjTldXYTQrTyYjMTA7aUtlMVBqRytYa1d0TzM3TFRTdDZkcnp1M085azVwTFc1OFhYT1h4dUxNOXNIUUVBakNaakpBRE43WnVkL3hHRHhZREtIS3Z4ZlQvYSYjMTA7MDBQV2toK0p6TEhXcDhiWHk4d2xTMk8raDUvdi9Nblc1OFQrNUUrMExnQUFScE14RW9EbXF1S2sxZzNzWDJhZU1zakhvOGVxZXZKMiYjMTA7Q1NlODZvckRNdUtoclUrSC9lalI1eGtBNEdBWkl3Rm9MMk41NndUMnJ5S082UEh4am01OVR1eGZaVTcwNGpoais0N3llUjVnbWJuayYjMTA7aEpmZnVMeDFCd0F3ZW95UkFFQmZaY1Y0NndZVzNwSnUrblVtQUFCZnh5OFNBUUFBQUlDK01FWUNBQUFBQUgxaGpBUUFBQUFBK3NJWSYjMTA7Q1FBQUFBRDBoVEVTQUFBQUFPZ0xZeVFBQUFBQTBCZkdTQUFBQUFDZ0w0eVJBQUFBQUVCZkdDTUJBQUFBZ0w0d1JnSUFBQUFBZldHTSYjMTA7QkFBQUFBRDZ3aGdKQUFBQUFQU0ZNUklBQUFBQTZBdGpKQUFBQUFEUUY4WklBQUFBQUtBdmpKRUFBQURRWnllOC9NYmxhN2JNUExsMSYjMTA7QjBDL0dTTUJBQUNnejhhWHptK09pQXRYYjk3OTM2dlB2ZUhiV3ZjQTlJc3hFZ0FBQVBwbzllYVpwMlRtTDBaRVpPWVRzdFA1NkpyTiYjMTA7dTE5NTRpdXZPNloxRzhCQ00wWUNBQUJBbjZ6ZHV2dTRpTnJ5VlQrWW1aSDU5TTYrSmR2WGJKNTV6cWtYMXRMV25RQUx4UmdKQUFBQSYjMTA7L1ZDVjNjcS95OHlKZS9xZk0rTkJrZkdpdmJ0bXRxMCtiOWRQdGM0RldBakdTQUFBQU9pRDFWdG1ObVhFRDkzWC95OHpWMmVuOCtiViYjMTA7bTJmK1k5V1dtVzlzM1EzUVM4WklBQUFBV0dBblhiRHJsTXg4MGNIOFBabnhBNTJxVDZ6ZXNudnpLZWZlUE5uNkhBQjZ3UmdKQUFBQSYjMTA7QytoUkY5U1M3bHpudFJGeCtFSC96WmxqR2JsaHJqTzdmZTJXM2IvMXhMTnF2UFg1QUJ3S1l5UUFBQUFzb0p2bTlqd3ZNaDU5U0FmSiYjMTA7WEZHUjUxeDl6SjVQcmRtOCt6NXY5UVlZVk1aSUFBQUFXQ0JydHV4K1hFWTl0MWZIeTRoSFJPWTcxMnpaL2JvVHpydit3YTNQRCtCZyYjMTA7R1NNQkFBQmdBWHpUUzY1OVFFUytOakxIZW4vMGZNcVNITHQwemVZOUcrS3M4bnQ3WU5Id0RRc0FBQUFXd0cxSExIbHBSS3hac0JmSSYjMTA7UENxeU5xOCtadVk5SjczaXhoTmJueS9BZ1RCR0FnQUFRSSt0Mmpyelk1bTVyaCt2bFpGUG5CL3ZmbnIxbHBuZmpLcHNmZTRBOThZWSYjMTA7Q1FBQUFEMTAwZ1czVEhVcS9yYWZyNWtSRDhpSUM5WnNtWG43bW5OdVdkbjZZd0N3UDhaSUFBQUE2S0g1K2RtdEVkSG00VEtaUDFiaiYjMTA7czU5Y2RkNnU3Mi85Y1FDNEo4WklBQUFBNkpFMTUrMysrWXo0K1pZTm1YRnNKL00vMW15WitiTW5ubFhqclQ4bUFIZG5qQVFBQUlBZSYjMTA7T09IbE55NlBUcDdidWlNaUlqSXpJdjdnbXFObkxqcmwvQnVPYlowRDhHWEdTQUFBQU9pQjhhWHpmeEd0YnMvZW44ekh6M1hIUHJicSYjMTA7dkQzZjFUb0ZJTUlZQ1FBQUFJZHM5ZWFaNzh5STMyemRzUjhQems3M3YxWnYzbjFHNnhBQVl5UUFBQUFjaWd0ckxLSzJmT25XNklHVSYjMTA7a2VPWitZclZXM2EvOXFFdi9kemhyWHVBMFdXTUJBQUFnRU93ZG1iUDB6UHptMXQzSElpTWZPcXl3NDU0LzhubjducEk2eFpnTkJraiYjMTA7QVFBQTRINDY0ZVUzTHU5MjYwOWJkeHlNelB6V3VVN25vNnZPMy9YbzFpM0E2REZHQWdBQXdQMDB2cXo3L015Y2F0MXhzRExqMkU2MyYjMTA7ODk5ck4rLysyZFl0d0dneFJnSUFBTUQ5c0hiejdrZGsxYWJXSFlmZzhNcDR3NW90dTMrN2RRZ3dPb3lSQUFBQWNEOVV4c3NpYzZ4MSYjMTA7eDZISlRrUytmUFdXbWIrS3FvRjlBQTh3UEl5UkFBQUFjSkJXbmJmcit5UHlSMXAzOUVwR25MbG15OHcvblhwaExXM2RBZ3czWXlRQSYjMTA7QUFBY2pLcnNkRG92YXAzUmM1bS9zRy9YekZ1UHZlQ2FJMXFuQU1QTEdBa0FBQUFIWWRYV1BVK0ppRWUxN2xnUW1UOTh4TnhoLzdYcSYjMTA7Z2oxSHRVNEJocE14RWdBQUFBN1FFOCtxOGF6NjA5WWRDeWt6SHBOejNmZXVPZWVXbGExYmdPRmpqQVFBQUlBRDlJV1ZNMC9Oek5XdCYjMTA7T3haYVpuNXpqTzk3ejlxdHU0OXIzUUlNRjJNa0FBQUFISUJUTDZ5bDFZa1h0TzdvbTh4djdIYmp2V3ZPMmYzUTFpbkE4REJHQWdBQSYjMTA7d0FIWXQydlByMGZrdzFwMzlGTm1ycTd4dU1nZ0NmU0tNUklBQUFEdXc2a1gxdExJZW03cmpoWU1ra0F2R1NNQkFBRGdQdXk5WWMrdiYjMTA7anRwVmtYZDMxeUNaNy9SUUcrQlFHU01CQUFEZ1hqenhyQnFQck45cjNkRmFacHdhUzJiZnNlcUNQVWUxYmdFV0wyTWtBQUFBM0l1ciYjMTA7ajU3NXhWRjRndllCK3JiT1hQZGZqNzNnbWlOYWh3Q0xrekVTQUFBQTlxY3FNK0xaclRNR1N1YmpqNWcvN0UyblhsaExXNmNBaTQ4eCYjMTA7RWdBQUFQWmoxZmw3ZmpReXY3RjF4NkRKaUIvYXQzdlBLNk1xVzdjQWk0c3hFZ0FBQVBhajAzVlY1TDM0bGRWYlovNjhkUVN3dUJnaiYjMTA7QVFBQTRCNmN1SG5YdDBmRzk3VHVHR1FaK1h1cnQrN2UxTG9EV0R5TWtRQUFBSEFQeGpLZjFicGhNY2lLYzladW5ubFM2dzVnY1RCRyYjMTA7QWdBQXdOZFl1M1gzY1JYeGM2MDdGb2ZzZEROZWQrTG1QZC9VdWdRWWZNWklBQUFBK0JyZGJwNmVrZU90T3hhTGpIamdXSFRmZHNKNSYjMTA7MXorNGRRc3cySXlSQUFBQWNEZHJ6dWt1aTZ4MXJUc1duY3pqeHp2amIxNXpUbmRaNnhSZ2NCa2pBUUFBNEc2NlMvYjhRa2F1Yk4yeCYjMTA7R0dYRVkydjh4aTJ0TzREQlpZd0VBQUNBdThuS0RhMGJGclBNK1BYVlcyWitzM1VITUppTWtRQUFBUEFsSjU0Nzg4ak1lRXpyamtXdiYjMTA7NnJ6VjU4OThSK3NNWVBBWUl3RUFBT0JMeGpyaGlyNGV5TXdsTVI5dlhMWGwycU5idHdDRHhSZ0pBQUFBRVhIc0JkY2NFVkcvM0xwaiYjMTA7V0dUR3NWbEwveUhPS3RzRDhIOThRd0FBQUlDSWVPRHNzdE1pODZqV0hjTWtNMzV3elRFM1BxZDFCekE0akpFQUFBQVFFZDFPUEsxMSYjMTA7dzFDcTdwK3VPbS9QZDdYT0FBYURNUklBQUlDUmQ5SXJiand4STcrN2RjZFF5aHpMck5jZHYrV21GYTFUZ1BhTWtRQUFBSXk4N3ZqOCYjMTA7VTFzM0RMUE1PRzVwekcxdDNRRzBaNHdFQUFDQVNnK3VXWEQ1bExYbnpmeC9yU3VBdG95UkFBQUFqTFMxNSsxK2JHU3NiZDB4Q2lwciYjMTA7NityTk13OXIzUUcwWTR3RUFBQmdwSFU3OFN1dEcwWkc1bEdaOFpxb3l0WXBRQnZHU0FBQUFFYlhXZFhKeXA5cm5URml2bmYxNWoxUCYjMTA7YngwQnRHR01CQUFBWUdTdFBlYkd4MGZHTWEwN1JrNG4vbkx0MXQzSHRjNEErczhZQ1FBQXdNaXFxdE5hTjR5aWpEaXlXK0hwMmpDQyYjMTA7akpFQUFBQ01wck9xVXhGdTBXNGtJMzlpMVphWlgyamRBZlNYTVJJQUFJQ1J0UGFZR3grZkdjZTI3aGhsbllwelZsMnc1NmpXSFVELyYjMTA7R0NNQkFBQVlTZDBvVjBXMmxuRjBaNzcrcEhVRzBEL0dTQUFHUU8xdFhjRCtaZFZjTDQ5WEdUZTFQaWZ1VGQzWms2TjB4bTV0ZlNiYyYjMTA7dXdjY3QvejIxZzNRWE5XUHQwNGdJcW8yck4yNjU1dGJad0Q5WVl3RW9MbE94RFd0RzlpL3lyeTJ0d2VNcTF1ZkUvZWlldlAxZVBtNiYjMTA7STNkSFJVK0dUUlpBeFEzYlRzdDlyVE9ncFpPMzdEbzVNMWUzN2lBaU1zZXEyOTBjVmRrNkJWaDR4a2dBbXB1YnovOXEzY0M5bUovdiYjMTA7N2VjbnV6N2ZBNnl5bDErUDVYTTlzT3FpMWdYUTJseDFudFM2Z2J2SmZQenFyYnVmMmpvRFdIakdTQUNhdStLTXlVOUh4VWRiZC9EMSYjMTA7cXVyak84NDQrbU85UE9hTzlWTWZxNnBQdGo0M3ZsNVZmSGpuaHNuUDlPeUFHWC9iK3B6WUw1OGJSbDVtdUVWNzBGVG56eC82MHM4ZCYjMTA7M2pvRFdGakdTQUFHUXJjVHZ4MVIzZFlkM0YxMU16clA3UGxoTXlzNjlkcyszd09tYWo0aWV2cjVubDQvK1M5UmNWSHJVK09yVmRTLyYjMTA7VG0rY2VsZnJEbWhwelRtN2o2eW9KN1R1NEt0bHhuSExEanZpZDFwM0FBdkxHQW5BUU5pNWZ2TDlFYm1wZFFkZmtSSFBuTjQ0OGQ2RiYjMTA7T1BhTzlTc3ZpZ3EvMlJnZzJjbU5PelpPZnFDM0I4M3E1cjZuUk1YMjF1ZkhsMVI5Wm03dm1Oc2dZVW44WUVhT3Q4N2dudVR2cmRweSYjMTA7N2RHdEs0Q0ZZNHdFWUdCTWI1amNtbFUvRnhYWHQyNFpaUlcxS3lKTzI3NWg2aFVMK1RyVEc2Zk9pWWpUcW1wMzYzTWVhUlhYZDdOKyYjMTA7ZHZ2NnlRc1c0dkE3Tnh4N3c5S2xZNCtMaXJlMlB0V1JWM1Zoek1YanIzcm1pcHRhcDBCclZmR0RyUnU0WjVueG9FNHQvZVBXSGNEQyYjMTA7OGFRcUFBYk9xZWRkLzhDOW5jNnZadVZQUk9TcWlQS240d3N1YjRpb25SWHhyK1BMNnRXWFBYM2xGL3YxeWlmL3phNEh6ZTNOWDh1SSYjMTA7SjBYbTZxaGEyZnFqTWZ6dStueEhkTjY2dEdiL2Z0dW1ZMjd0eDZ1dTJqcnorT3pXTDBYRWQyYmtzUkcxclBWSFlyamxuUlgxaGN6OCYjMTA7bit6V1AyN2ZOSFZ4NnlJWUZLczN6MXlhR1NlMzdtQS9xdWFyNWsvWnNlbVk2ZFlwUU84Wkl3RUFBQmdaYTdmdVBxNHFyMjdkd1gybyYjMTA7ZU0zMHhzbGZhNTBCOUo3YnRBRUFBQmdaMWUxOGIrc0dEa1E5OWFRTGRwM1N1Z0xvUFdNa0FBQUFJNk95dnFkMUF3Y2djNnc3bjg5diYjMTA7blFIMG5qRVNBQUNBa1pGUlA5QzZnUU5VY2RxYXJidFBiWjBCOUpZeEVnQUFnSkZ3OHJtN0hoS1JKN1R1NEFCbFpuVGplYTB6Z040eSYjMTA7UmdJQUFEQVNac2Z6c2EwYk9HaFBQbm5yalE5dkhRSDBqakVTQUFDQWtaQVZ4c2pGSm5Oc3J0dDladXNNb0hlTWtRQUFBSXlFTEZkRyYjMTA7TGtvWnYzSDhscHRXdE00QWVzTVlDUUFBd1BDN3NNWXE0OUd0TXpoNEdmR0FKVEczdm5VSDBCdkdTQUFBQUliZXF0MTdIcEVSRDJ6ZCYjMTA7d2YyVGtXZXNPYWU3ckhVSGNPaU1rUUFBQUF5OWpIaGM2d1lPeVlOajZVMC8zem9DT0hUR1NBQUFBSVplVm4xNzZ3WU9VWFZQYjUwQSYjMTA7SERwakpBQUFBTU12NHh0YkozQ284cnRXYlpueGVZUkZ6aGdKQUFEQThLdjRodFlKSExwT3hicldEY0NoeWRZQkFBQUFzSkRXYnQxOSYjMTA7WEZWZTNicURRMWNWWDN6QTdmdU8vZFN6ajcydGRRdHcvN2d5RWdBQWdLRldFYWUyYnFBM011TkJ0ejlneVZOYWR3RDNuekVTQUFDQSYjMTA7NGVZVzdlRlMrY3V0RTREN3p4Z0pBQURBY0ROR0RwbDY0cHB6ZGorMGRRVncveGdqQVFBQUdHN3BOdTJoa3BreG5yL1VPZ080ZjhaYiYjMTA7QndBY2pKTzMzdmp3K1pyZkdCRS9HcFdySStPdzFrM0RyaXErbUJtWFI5UmJPbU5MdDE2KzdzamRDLzJhcDV4L3c3R3o4Mk1iSXV2SCYjMTA7STNKdFJqeWc5Y2RoQk54UlZaZG41citOelhmUHUreU1sVi9vMXd1ZmZPNnVoOHlQZFRaRjFKTWljbTFFSE43Nmd6SHNLdUsycUxvOCYjMTA7SXQrK1pHeCs2NlduSDMzdHdyOW81WnF0TXo4YmtVK05pdStJcUtNajA4TVVGMVIxcS9MNnlIaC9SUGUxT3phc2ZHdS9Ybm5WbG11UCYjMTA7emxxNklhSitNakpQOG4yOEwrNklxTzBWOGU5UnVYbkh4c25QdHc0YUpCVnhzbTg0dzZhZUdoRXZhbDBCSER6Zmo0SEZvU3JYYkwzeCYjMTA7OTZxNloyZm0wdFk1STZ2cTV1aDBOazZ2bi9qSGhYcUpOWnRuVHErTXYvUWIxNmJ1cUt6bjdGZy9kZDVDdjlEcXpidlB5TWdYKzRPRiYjMTA7ZGlyaXRrN0dzN2F2bjd4Z29WN2o0ZWZ0T1dHc1U2L1BpTWUyUHQ5UlZsSC9QZGVkZjhwVm00NjViaUZmWjgyVzNiOWVrZWRreEFOYiYjMTA7bi9QSXFyaXpJcDYzWStQa1g3Wk9HUVRIWG5ETkVRK1lQOHlUbDRkUVpuN0w5dlVUbjJ6ZEFSd2N0MmtEaThLYUxYdk9qYWcvTjBRMiYjMTA7bG5sVVZQM0RtczI3ejF5SXc2L1pzdnVzeU5ocWlHenU4S3c4ZDgyV21UOWR5QmRaczNubWhabjVDa05rV3hueGdLbzRmODNtM1grOCYjMTA7RU1jL2VldU5EeC9QdXRnUTJWNUdmdmVTenRpSFR6bi9obU1YNmpYV2JwbDVka1QrclNHeXNZekRNdU1sYTdic2ZtbnJsRUh3d0xsbCYjMTA7SjdSdVlHRlV0MDVyM1FBY1BHTWtNUEJXYjluMXk1R3hzWFVIZDVQeHNsVmJaeDdmeTBPdTJqTHpveEg1L05hbnhsZjV3OVZiZHYzayYjMTA7UWh4NDlYbTdmaW95bnR2NkJMbWJ6TFB2K2pyc29iT3FNMWZ6YjRxTVkxcWZIbCtXRDV1Yjc3d2hxbnAraDlUcXpidSt0NnJjTWpsUSYjMTA7OG5kV2I1MForYkdtVzJtTUhGSVY4ZE90RzRDRFo0d0VCdHFhYzdyTElqcC8wYnFEcjVXZFRyZGUwclBEVldWV3VKVnNBR1YwWGhKbiYjMTA7Vlc5L3ZYQldkVEk3dmZ2bmg1N3BSTDJrbHlQVnFtTm1mamtqdjZYMWVmRTFNaCsvNnZ5Wm4rNzlZVHQvNlgxQUIwOVd2ZmhSRjlTUyYjMTA7MWgxTlB3WVpEMi9kd01MSWpGTlhiYjFoYmVzTzRPQVlJNEdCMWwxNjQvZG54RU5hZDNBUE1yK2pWNy80TzNITDdrZW5wMXdPcXBOVyYjMTA7SDczbmNiMDg0S29INy9tT3lQQWJoNEdVMzdEcWd0MlA2dFhST3BHLzJ2cU11R2VkYnY1YUw0KzNhc3ZNTjBiRXQ3VStMKzVKbm5EaiYjMTA7N083dmJsM1I5a01ReDdkT1lPR00xZGhQdDI0QURvNHhFaGhvMmEwbnRHNWcvenJWNmNubnB4TzlPUTRMSXlONit2bnBkT083V3A4VCYjMTA7KzllWnk1NTl2cXZLNTNwZzlmYm4xMDc1dWg1a21hUDk4MnhGUGJ4MUF3dW5vbjY2ZFFOd2NJeVJ3R0RMOUQ1akE2d2lIdHlMNDJUVyYjMTA7Z2oxTWdVTlh2WDYvdjR6aldwOFQrMWNaUGZsNlhMWGwycU16YzZSdkRSMW9tU3RPZU5VVnZYdDRWTVpEVzU4Uys1Y3g0ai9QbG44KyYjMTA7aDFyRmQ2emFjdTNSclRPQUEyZU1CQVphbHU5VEE2MTY4M1R6Q29QRmdPdnQxMkhGa2ExUGlIdVJ2Zm02WHBLSEhkSDZWTGdQTnkzdiYjMTA7MlJoWm5wNDk0SEpaNjRMRzU3K3lkUUVMS0RPemx2eEk2d3pnd1BsTlBnQUFBRU1ySXlaYU43Q3dNdlA3V3pjQUI4NFlDUUFBd05DcSYjMTA7TEdQa2tLdUlIMmpkQUJ3NFl5UUFBQUJEYWMwNXU0L015UEhXSFN5c2pIakkyczI3SDlHNkF6Z3d4a2dBQUFDR1VpNFpuMnJkUUg5MCYjMTA7TytGV2JWZ2tqSkVBQUFBTXBibWFuV3pkUUg5a3BWdTFZWkV3UmdJQUFEQ1VPdG54ZnBHam91cTdveXBiWndEM3pSZ0pBQURBY0tydSYjMTA7NGEwVDZKUE1GU2VldDJ0dDZ3emd2aGtqQVFBQUdGS2RaYTBMNkovT1dENjJkUU53MzR5UkFBQUFES1ZPbFNzalIwbmxkN1JPQU82YiYjMTA7TVJJQUFBQlk5REx6TWEwYmdQdG1qQVFBQUdBb1ZjWlJyUnZvbjRyNjVvZSs5SE91aG9VQlo0d0VBQUJnT0dWNHV2SUl5Y2p4WlljOSYjMTA7NEZ0YmR3RDN6aGdKQUFEQWNLcjBBSnRSVS9FTnJST0FlMmVNQkFBQVlDaGwxcExXRGZSWGR1S1JyUnVBZXpmZU9nQUFBQUFXUWtYYyYjMTA7MnJxQnZ2dkdmcjNRcWd2MkhMV2tteXU2ODdFOG9vNnNUaHlaM1hwUU4rS0IyYWtIUk9XeWlqZzhzZzZQK0txcmRJL00rdXFMd3lyaiYjMTA7cHJ2OXR6dWo4czZNdUQyeTlsWGtyWkZ4Uzh6SExURWVOOGRjM0xKa2ZIN1BBM0xsN2t2VzVXempqemNjTkdNa0FBQUFNQndxVGoyVSYjMTA7di8ya0MyNlo2czdQUDZ5YjNXT3o0aUVSZFhSVVBEUXlWMmJVZ3l0eU1pc21JMm95NW10c1B1cXI3am10VG56cGpVcnp5LytLdUtlMyYjMTA7THMxNys2OTV0eC80MGh1ZlZ0ejFPdDI3L25PdU94WTN4NTVZdldYbWxveTRvU3AyUjhRMUdYRmRaRjVkMWYxQ2RPcHo0ekYrNVlPdiYjMTA7VzM3MWU4L091ZGFmR3ZneVl5UUFBQUJEcVNKdjl3U2JFWk54ekttdnZHbGkyek9XNzdtbi8vbVVjMitlbkIrZlhWMlZhekpxVmJmeSYjMTA7eElnNFBpSWVsaEVuZE9kbkQ0dUk2TlJYRHZoMXcrQlgvcTI1akRneUlvN01qRFZmK2RHS3pJeW9qUG5veGpWSHo4eXYyYkw3NnFpNCYjMTA7dERJdmpZaHRuVzVlbWt2R3QxMis3c2pkcmMrQjBXT01CQUFBWUNoMXVyV3ZPb014R3RFL2Q4N09QM2J0MWoxZjZFYWRuTjA2cFNKTyYjMTA7am9oSFJPYnF1Wmc3TXVxdWZ5WXFNbklVL3ZISUhJdUlFeUxqaEl6NDRZaUk2bFRVL0d5czNySjdKaXEyWmNSbnEvS2oyZWw4OUxqciYjMTA7bDMvYWxaUXNKR01rQUFBQVEybStFK1dwcmFPbkUvRnZWZldsQ3hoelFLNWhIRXdaT1JrWlQ0aUlKMlRHYjBaMDQ1cWo5OXk1ZXZQTSYjMTA7SnpMakk1RjU4VmpOZi9TeURTc3ZhOTNLOERCR0FnQUFNSlN5NnViUnVQUU5laWpqc0l4NFhFUThMcXJPbUk5T3JOazhjMzFrWFZTUiYjMTA7NzRudTNIdDJiRHBtdW5VbWk1Y3hFZ0FBZ0tHVU9UWjMxNU0vZ0VPU2NVeEVQaVVqbmhLZDhWaTllZWFheVBxdnFQaVBKZDBsLzNycCYjMTA7R1VmTnRFNWs4VEJHQWdBQU1KU3FhbzhMSTZIM011TzRpSHhxWkR4MWJteTJ1M3J6N3ZkM010L1dpZTViM2RMTmZURkdBZ0FBTUpURyYjMTA7c3pzekg5NDFFaFpXZGpMakNSWHhoUG5vdkhqTjVwbnRsZlV2M2ZuOHh5dk9tUHgwNnpvR2p6RVNBQUNBb1ZSankyWmlmcloxQm95VyYjMTA7akxVWitYdGpZL0Y3YXpidi9reGs1eC9udXZIL3J0dzBjVlhyTkFhRFB5SUNBQUJnS0YzK2hRZnRhZDBBSXkzekd5UHF6OGM3ZGVYcSYjMTA7emJ2L2UvV1dYYjk4d3F1dU9LeDFGbTBaSXdFQUFCaE9aMmUzcWd5U01BQXk4d2tabmI5ZmN2dUR2ckI2eTh4Zm5YVEJybE5hTjlHRyYjMTA7TVJJQUFJQ2hsWkdlOGd1REpITkZScHpabmU5OGRzM21tZjljdFhYbXg2TEtvNlpHaURFU0FBQ0FvVlVacm95RVFaWHhmWjJLZjEyeiYjMTA7ZGViVGF6YnZmdHFwRjliUzFra3NQR01rQUFBQVF5dWpybXpkQU55WC9JYkkvTHQ5dTJlbTEyeWVPZDBvT2R5TWtRQUFBQXl0aXJpeSYjMTA7ZFFOd29QSmhrYkgxeTZQa295Nm9KYTJMNkQxakpBQUFBRU1ySzY5czNRQWNyTHRHeVp2bjl2enZxcTI3ZjZaMURiMWxqQVFBQUdCbyYjMTA7VmJreUVoYXRqTFdkeW45WnMyWDMrOVp1M2ZQTnJYUG9EV01rQUFBQVEydTgwNzJpZFFOd3FQSzdxdHU5WlBXV21iOWFjODd1STF2WCYjMTA7Y0dpTWtRQUFBQXl0K2RuSksxczNBRDJRT1pZUlo4YVMrTXpxTFRNLzNEcUgrODhZQ1FBQXdOQ2FQck96dHlxdWFkMEI5RW8rTENQZSYjMTA7c1hyejd2TWYrdExQSGQ2NmhvTm5qQVFBQUdEWWJXc2RBUFJXWnE0NzdMQWpQcngyOCs1SHRHN2g0QmdqQVFBQUdHb1o5YW5XRGNBQyYjMTA7eVB6R2J1YUhWMi9aOVpPdFV6aHd4a2dBQUFDR1dqZmowNjBiZ0lXUkVRL002THhsOWVhWjUwZFZ0dTdodmhrakFRQUFHR3FkR0hObCYjMTA7SkF5NXpEaHI5ZGFadDNqYTl1QXpSZ0lBQUREY1pvL2FGbFh6clRPQWhaV1JQMUhqK2VHVEx0aDFTdXNXOXM4WUNRQUF3RkNiUHJPeiYjMTA7dHpJdmI5MEJMTHpNT0xrN2x4OWFzMlhQajdkdTRaNFpJd0VBQUJoNldmWEoxZzFBbjJRZUZkVjk2NW90dTUvbmZTUUhqekVTQUFDQSYjMTA7NFpkeGNlc0VvSTh5TXlKZnNHYnJubjg1K1c5MlBhaDFEbDloakFRQUFHQVVmS2gxQU5ERVQ4L3Q2MXg4L0phYlZyUU80UzdHU0FBQSYjMTA7QUliZjdNVEhxMnBmNnd5Zy83THF3U3ZIanJxMWRRZDNNVVlDQUFBdzlLYlA3T3pOaUkrMDdnQWF5UGpuUzlibGJPc003bUtNQkFBQSYjMTA7WURSa1h0UTZBZWkvYnJkZTM3cUJyekJHQWdBQU1CSXE0bjJ0RzREK3FxaGRPNCtldXFoMUIxOWhqQVFBQUdBa0xPdk92YitxM0tvSiYjMTA7SXlRclh4K241WHpyRHI3Q0dBa0FBTUJJMkxicG1Gc2o0d090TzREK3ljd0xXemZ3MVl5UkFBQUFqSkozdFE0QStxTXFydGwrL1lyMyYjMTA7dCs3Z3F4a2pBUUFBR0NIMXp0WUZRSDlrMXV2ajdPeTI3dUNyR1NNQkFBQVlHVHZXVDMwc0lxNXIzUUgweFJ0YUIvRDFqSkVBQUFDTSYjMTA7anN5S3FyZTN6Z0FXVmxYdG5GNC9lWEhyRHI2ZU1SSUFBSUNSVWxsdmE5MEFMTENNTjBSbXRjN2c2eGtqQVFBQUdDbDc3N2pqUHlyaSYjMTA7dHRZZHdNTHBkTWRlMTdxQmUyYU1CQUFBWUtSYy9hemo3OGh3cXpZTXIvcmY3WnRXZktKMUJmZk1HQWtBQU1BbzhtQUxHRklWK2FyVyYjMTA7RGV5Zk1SSUFBSUNSYytjZHQvK2JXN1ZoK0ZUVTNtVkx4b3lSQTh3WUNRQUF3TWk1K2xuSDM1RVYvOUs2QStpdHJIemR0bWNzMzlPNiYjMTA7Zy8welJnSUFBRENpNmg5YUZ3QzkxUjNybnRlNmdYdG5qQVFBQUdBa1RhK2MvTStJdUs1MUI5QWpGUmZ0UEgzbFIxdG5jTytNa1FBQSYjMTA7QUl5bTAzSytvbDdUT2dQb2xmcnoxZ1hjTjJNa0FBQUFJNnV5KzdldEc0Q2UrTmoweHFsM3RZN2d2aGtqQVFBQUdGazcxeCs5dmFMZSYjMTA7MjdvRE9HUi8wVHFBQTJPTUJBQUFZS1IxdW5sQjZ3YmcvcXVJejA1ZlAvSEcxaDBjR0dNa0FBQUFJMjNKMFJOdmpJcnJXM2NBOTArbiYjMTA7Nm8vaTdPeTI3dURBR0NNQkFBQVlhZHRPeTMyVjRlcElXSVFxNmhQYk4weStxWFVIQjg0WUNRQUF3TWpyWlAxMVZjMjI3Z0FPVGlmaSYjMTA7MlpGWnJUczRjTVpJQUFBQVJ0NzI5VlBYWk9iL2E5MEJISVNxZjkrK1llcmRyVE00T01aSUFBQUFpSWo1eXBlMmJnQU9VTlg4ZkRkLyYjMTA7cjNVR0I4OFlDUUFBQUJGeHhjYUpUMVhFdTFwM0FQZXRNaTY0NG96SlQ3ZnU0T0FaSXdFQUFPRExzdnZuclJPQWUxZFJNOHVXakQrdiYjMTA7ZFFmM2p6RVNBQUFBdm1USCtwVVhSZFQvdE80QTlxK1QrWWZibnJGOFQrc083aDlqSkFBQUFOeE5kZk9GclJ1QWUxWVZIOXArM2NRciYjMTA7VzNkdy94a2pBUUFBNEc1MmJKcDhSMFZjM0xvRCtHb1ZOZGZ0eG0vRzJkbHQzY0w5WjR3RUFBQ0FyNVhkMzIrZEFIeTFqSHlKaDlZcyYjMTA7ZnNaSUFLRFBhcloxQVF0dnJ0dWRiOTNBdlJzN29xcFh4MHBmMXd5aEhldFhYbFJSNzIzZEFkeWxLaTZiUGZ5V0Y3VHU0TkFaSTRIQiYjMTA7bG5GTDZ3VHVSYWQyOStRdzBadmpzRUNxeDErSG1kZTNQaVh1VGQzUWk2UGszSXFlSEllRlVWWDdkcTZidUxsM3gvTjFQY2lxUjEvWCYjMTA7bzZpVDhaeldEVUJFUkhVejY5ZXVldHFKZDdZdTRkQVpJNEhCVnJHdGRRTDcxNm00dEJmSHFXNXZqc1BDcU96dDEyRjI0MzlibnhQNyYjMTA7bHhHWDllSTQwMmQyOWxiVmp0Ym53MzU5dHBjSHE0NmZyd2RacHA5bjc2L3Q2NmMrSEZVWHR1NEE4a1hURzZZKzFMcUMzakJHQW9OdCYjMTA7cnQ0ZVZXNzFHMFJWTng0NU50bVRXNWZHRHF0M1JvVS81UnhBRmJWM2ZtL25IYjA4NXQ3TzJEc3FhbS9yYytNZTNiRzBPLy9PWGgwcyYjMTA7STk3YytvUzRaNW54cGw0ZWIvNndXOTVURlY5c2ZWNTh2WXFhNjhiczIxdDNMR3BqNDgrdDhsWUUwRXpWWjJKMnhkbXRNK2dkWXlRdyYjMTA7MEtiUG5McTZNbC9kdW9Pdmw1bC9mc202N01rdnpDOTcrc292UnNUTFdwOFRYeThyenJ2cW1TdHU2dVV4UDdkaCtZMFpzYm4xdVhFUCYjMTA7S2w2K2JkTXh0L2JxY09OajNaZEd4QjJ0VDR1dlVYWHorUHlTODNwNXlLdWVkdUtkbWZXUzFxZkcxOHZLQzNadU9OWnQyb2RnK3ZUbCYjMTA7T3pMajNOWWRNSW9xYW04MzgvK2JQclBqRDdLSGlERVNHSGpMbG93OUp5S21XM2Z3RlZYMXZpVlRFK2YwOHBpM2pkLzV3cXI2ZU90eiYjMTA7NCs3cVUwdHIvdmtMY2VTbDNmbXpJc3FURUFmTHgyNGJ2L09GdlR6Z3BhY2ZmVzFVYld4OVlueU56R2RjZXNaUk16MC83dXpFaXl2aSYjMTA7NHRhbngxZFV4YVhkOGZ6RDFoM0RvRHZXZVVGVUdIV2h6N0k2djdOencrUm5XbmZRVzhaSVlPQnRlOGJ5UFJsalAxemVQM0lnVk5SNyYjMTA7bHkwZC8rbHRwK1crWGg3MzJuWEgzVDVYOHo4V0VSOXBmWTVFUk1RbG1mRmp2YnhLN3U2MmJUcm0xc3o0MFlqNFdPc1RKYUlxUGp6YiYjMTA7blh2U3RldU91NzNYeDU3ZU9QV3FqRG96b3JxdHozUFVWZFZzVkQxOWVzUGtHeGJpK05ObmR2Ym03SktmaUtyM3R6NVhJaUxxVS9PViYjMTA7UDlMTEJ4V05zcDNySm02dURNTXU5RlBGVzZjM1RteHBuVUh2R1NPQlJXSDdodVU3SDNEN3ZzZFV4WjlFMVkydGUwWlJWVnhUVmIrMSYjMTA7Zkd6eUI3YzlZL21laFhpTnF6WWRjOTNzNGJkOGQwWThwNkoydFQ3blVYVFh4ejMvWVBid1c3NXIrL3FwYXhieXRiYXZuN3BtOXZCYiYjMTA7SGw5UmYxamxpZXBOVk55UUVjK1pPK0tXSjE2MTZaanJGdXBsdG0rWWVzVjgxZU9pNGoxUlZhMVBlL1JVTjZyK3ZkUHBmUHYweHFtLyYjMTA7WGNoWG1qN3p5RjFIalU5K2IzVHJkeUppd2Y2Wll2K3FhazlFL2ZFUnQ4MSs1NVdiSnE1cTNUTk1kbHcvOFhkVjhlSFdIVEFhNnZQaiYjMTA7M2ZGZmIxM0J3c2pXQVFBSDYxRVgxSkpiNW05OFhMZTZKMmJHUk91ZTRaYzN6RmQzK3hVYnBqNGFtZjBiRVM2c3NkVjc5andtNTNOMSYjMTA7WkhlcTlVZGg2RlZuZDBYdDNMRnk0dUk0TGZ2LzBLZ0xhMnoxcmoyUHpjaFZQdDk5VUozZE5WWTdkbHc3Y1hHY25YMjlZdkdVODI4NCYjMTA7ZG5ZK0g1dlpPVGFpbHJYK1VBeTMzRnZSdmFaaTdrTk4zalB3ck9xc2ZmRE1vNnR5VFVRZDNmcWpNZXlxWWs4bk8xZHNuMXJ4Z1NiZiYjMTA7eDBmRW1pMDNmbXZVL0VjaWM2eDFDd3lycXRyWDZjUVR0cStmTXY0UEtXTWtBQUFBSEtEVlcyYitLaVBPYk4wQlE2dGkvZlRHeWZOYiYjMTA7WjdCdzNLWU5BQUFBQitDa0MzYWRFbFdyVzNmQUVQdDdRK1R3RzI4ZEFBQUFBSU5zOVhuWHI0a2MvNFB1WFAxcXVrVWJGc3BIN3J6aiYjMTA7dHROYlI3RHczS1lOQUFBQTkyRHQ1dDJQcU1qZmk2aW5lcDlJV0RoVmNjMlNzZmx2di9UMG82OXQzY0xDYzJVa0FBQUFmRmxWcnQ2NiYjMTA7NTRjeTZyY3I4a2Z1K2tIWDhjQ0NxYmc5dXZNL2VlbEdRK1NvOEIwVkFBQ0FrWGZzQmRjY2NjVDhZVStOaWpNejQ5VFdQVEFxdWxrLyYjMTA7dTNQOTFKdGFkOUEvcm93RUFBQmdaSzNac3Z0eEVmSHJOWmUva0JrUGNza085Rk05MHhBNWVveVJBQUFBakpRVHpydit3VXM3NDcvYyYjMTA7cmZqMWlEZ2xJaUtOa05CWFZmV1NIUnVuL3FwMUIvM24yeTBBQUFCRDcrUnpkejFrcnBNL0Z4ay9ueEhmRlpHZDFrMHd3djUrZXYzRSYjMTA7cjBWbXRRNmgvMXdaQ1FBQXdGQmFkY0dlNDNPdSsxT1pjZHA4eGVNelhmOEl6Vlc5YytuS3lXY1lJa2VYTVJJQUFJRGhjR0dOcmIzaCYjMTA7eHNkM085MGZ5NGdmaS9sNjVQL2RmMjJHaEVId1g3ZU43LzNaNmROeVgrc1Eydkh0R0FBQWdFVnI5WG5YcittTWpYOS9WWHgvUlAxZyYjMTA7UkM1djNRVGNrL3FmMjhiMi92QzE2NDY3dlhVSmJSa2pBUUFBV0RUV2JybHBWWFRudnJzNitiMVY4ZjJaY1Z6ckp1RGVWY1dIYXp4LyYjMTA7YU9lNmladGJ0OUNlTVJJQUFJQ0J0T2FjN3JKYWR1TzN4WHc4UGlPK015SytNektPYWQwRkhEaERKRi9MR0FrQUFFQnpqN3FnbHR5MCYjMTA7Yjljakk4Y2VGVm1QeXNoSFZkUTNaZWJTMW0zQS9WWC8weDNyL0xnaGtyc3pSZ0lBQU5CWGE4N1ovZER1a254a3ArS1JsZlhJcUhoayYjMTA7Ukp5YW1VdGF0d0c5VVJYdnZuMzh6cC95SHBGOExVL1RCZ0FBb09mV25MUDd5UG54enNQSG83dW1tM0ZLUnA1Y0ZhZEV4aWtSY1dRbiYjMTA7SWlJajhxNS9BNFpKeFZ1WHJaeDQ4ZzVQemVZZStKWVBBQURBUVR2bDNKc241OFpuajRucXJLcnNQank3OGZDS2ZIaG1uQmhWSjBibSYjMTA7aXRhTlFQOVZ4S3QzVEUwOFBVN0wrZFl0RENaakpDeFdaMVZuMVVOdWZPalliRTVVMWxFWjljQnVkTjNXQWdEQUljbks4WXg0WUdVYyYjMTA7VlJFUGpJZ0hSdVRSR1hWc1JLNnNqSWRFMVVxM1ZBTmZxeXJPM3JGaDR1eklyTll0REM1akpDd1NKMTJ3NjVUdVhPZDdJdXA3SStNUiYjMTA7RlhGU1JpNXIzUVVBQU1Cb3E2clpqRmczdlhIcVZhMWJHSHpHU0JoZ2E3YnVQclc2OGNzWjhZdVJlWHpySGdBQUFMaTdpcmdscTU0OCYjMTA7dlhIcVhhMWJXQnlNa1RCb3FuTE5saHQvUExMNyt4SDVuYTF6QUFBQTRCNVZiSTlPL2ZUMCtxbHRyVk5ZUEl5Uk1FRFdicDU1VWpmcSYjMTA7aFpuNXphMWJBQUFBWUwrcS9tMTIzOWd2WGZYTUZUZTFUbUZ4TVViQ0FIajRlWHRPR005NmVXVDhUT3NXQUFBQXVBOS9QajAxOFR4UCYjMTA7ek9iK0dHOGRBS051emVZOVQ2MnM4eVBpQWExYkFBQUFZSDhxNHRiczF0T21OMDM5YytzV0ZpOVhSa0lqeDE1d3pSRkh6Qi8yaW96NCYjMTA7amRZdEFBQUFjQjgrVnQyNXArellkTXgwNnhBV04yTWtOTERtbkZ0VzF2anMyelBqTWExYkFBQUE0TjVVeE11WFRVMzgvcmJUY2wvciYjMTA7RmhZL1l5VDAyWnB6ZGorMHh1T2l6RnpkdWdVQUFBRDJwNkptT3BXL3VuM2o1TCsyYm1GNGpMVU9nRkd5ZHV2dTR5cmp2WVpJQUFBQSYjMTA7QmxsVi9NZDR0Mzc0OGsxVEgydmR3bkR4QUJ2b2t6WG43RDZ5MjQxL05VUUNBQUF3c0twdWpvaG43ZGd3K1hlUldhMXpHRDZkMWdFdyYjMTA7RXFveWx1UnJNdk9iVzZjQUFBREFQYXI2dCt6RU4weHZuUHBiUXlRTHhaV1IwQWRydHM2Y0daRS8zYm9EQUFBQXZrN1Z6Vm54MjlzMyYjMTA7VGIyNmRRckR6d05zWUlHdDNyTHJVVkg1d2N4YzByb0ZBQUFBdmtyVjY4Ykh1cjl6NmVsSFg5czZoZEhneWtoWVNHZFZKMlBQQlpGaCYjMTA7aUFRQUFHQ1FURWZXaHVrTlUvL1JPb1RSWW95RUJiVDZtTjNySXpxUGF0MEJBQUFBRVJFVmNXdFcvT25TbFJNdjMzWmE3bXZkdytoeCYjMTA7bXpZc2tGUFB1LzZCZXp0alYyYmtaT3NXQUFBQVJseFZWZWFyNTdweno3MXEwekhYdGM1aGRMa3lFaGJJdnM2U1RSbGxpQVFBQUtDdCYjMTA7cW5mT1IrYzVWMnlZK0ZUckZIQmxKQ3lBaDc3MGM0Y3ZPL3lJcXpKeVplc1dBQUFBUmxORlhGemQ3aC91M0xUeVAxdTN3SmU1TWhJVyYjMTA7d0dHSFArQm5Jc0lRQ1FBQVFOOVYxQ2NpNnF3ZEcxYSt0WFVMZkMxakpDeUFxdmkxZE4weEFBQUEvVlR4MFlydUMzZHNtSHBMWkZiciYjMTA7SExnbjVoTG9zWlBQM2ZXUStVNWVIV21PQkFBQW9BOHFMcXFLRiszWU5QbU8xaWx3WDF3WkNUM1d6ZndoUXlRQUFBQUxxbW8rTXY5bCYjMTA7dnJvdnVXTGp5byswem9FRFpZeUVIdXRtL0lBbEVnQUFnSVZRVlhzaTQ1WHoxZGw2NWNhSnExcjN3TUV5UmtMUDVmZTBMZ0FBQUdEbyYjMTA7ZkNTaXp0OTc1KzMvNytwbkhYOUg2eGk0djF6QUJUMTA2aXR2bXRnM096L1R1Z01BQUlBaFVIVnpSTDQycS9PMzJ6ZXQrRVRySE9nRiYjMTA7VjBaQ0Q5MDVOLytJVHVzSUFBQUFGcTJLbW91SWQwYm0zODhkL3NXM1h2VzBFKzlzM1FTOVpJeUVIdXBVbmV5Q1l3QUFBQTVLVlVYRyYjMTA7KzZ2aXdzcloxKy9jY093TnJaTmdvUmdqb1pjcVY5b2lBUUFBdUcvVnJZai9pWXAvSHUvV0d5ODdZK1VYV2hkQlB4Z2pvYmVPYkIwQSYjMTA7QUFEQVlLcUtMMmJFdTd0WmIxazZ2K1R0bDU1eGxHY09NSEtNa2RCYnhrZ0FBQUR1VWxVVjhZbUllR2RHNXgzTHgxZDg0SkoxT2RzNiYjMTA7QzFveVJrSlAxV0hlTXhJQUFHQ1UxZjlHNVVVVjNYY3ZXN3JrdjdjOVkvbWUxa1V3U0l5UjBFT1ZlWnNwRWdBQVlEUlV4SzBaY1hGViYjMTA7ZktBeVBqZ1hZeC82M0libE43YnVna0ZtakFRQUFBQzREMVcxT3pNL0hWR1hkQ012R1IvcmZ1THlMMHhkSG1kbnQzVWJMQ2JHU0FBQSYjMTA7QUlDSWlLcUtpTTlINUhSbFhkNkorT3g4MUdjNnM4cyt2ZVBNSTNlMXpvTmhZSXdFQUFBQVJzS1hubVo5WFdWZEd4R2Z5OGpQUjhYbiYjMTA7dXAzNDNIaW51N043NStRVjAyZDI5cmJ1aEdGbWpBUUFBQUNhcUloM1pjUWRkLzExTFkrSXlNZ0hWdFc5N1JXM1JFWTNLeXN5Ym82SSYjMTA7ZlZGeGUwVGNXbG0zUmNWTm1YbFRkdU9tK1U3Y05OYXRQYlBSdWE0ZWNQUDFWejN0eER0Ym56T01PbU1rQUFBQTBIZFY4Y1VIM0w3diYjMTA7WnovMTdHTnZhOTBDOUUrbmRRQUFBQUF3aXVvZkRKRXdlb3lSQUFBQVFOOTFhdXl2V3pjQS9XZU1CQUFBQVBydEk5czNyZmhFNndpZyYjMTA7LzR5UjBGUGx6WkFCQUFEdVM5WFcxZ2xBRzhaSTZLVktZeVFBQU1DOXFicjV0dkc5cjIrZEFiUmhqQVFBQUFENktGOTc3YnJqYm05ZCYjMTA7QWJSaGpJUWV5b2c3V2pjQUFBQU1zdmx1ZUhBTmpEQmpKUFJTMXQ3V0NRQUFBQU9yNm9OWG5ESDU2ZFlaUUR2R1NPaWhpcHB0M1FBQSYjMTA7QURDb3Nsd1ZDYVBPR0FrOTFPbm1iYTBiQUFBQUJsTFZqWGZzdmQyRGEyREVHU09oaCtZN1VhMGJBQUFBQmxGRnZ1YnFaeDN2ZmZaaCYjMTA7eEJram9ZZXk2dWJXRFFBQUFJT29Pdk5iV2pjQTdSa2pBUUFBZ0FWVkZmK3hjLzNSMjF0M0FPMFpJNkdIT3BtM3RtNEFBQUFZUEYxWCYjMTA7UlFJUllZeUVudXBtemJWdUFBQUFHQ3oxK1IwcnA5N1d1Z0lZRE1aSTZLR3N2TE4xQXdBQXdDQ3BpZ3ZpdEp4djNRRU1CbU1rOU5COCYjMTA7ZFc1djNRQUFBREFvcW1xMnUzVHViMXAzQUlQREdBazl0TFNUdDdSdUFBQUFHQlFaOGNZcm52SGc2MXQzQUlQREdBazlORFp1akFRQSYjMTA7QVBpeXpJNEgxd0JmeFJnSnZYVFVVWjZtRFFBQUVCRVI5ZW50R3liZTE3b0NHQ3pHU09paGJhZmx2Z3BQMUFZQUFJaEtWMFVDWDhjWSYjMTA7Q1QyV0VhNk9CQUFBUmxwRjNMSzA1djZoZFFjd2VJeVIwSHMzdHc0QUFBQm9LYVArWnR1bVkxeW9BWHlkOGRZQk1JVDhoQXNBQUl5dSYjMTA7cXVyTWo1M1hPZ01ZVEs2TWhCNnJTR01rQUFBd3d2SnRsLy9XaWl0YVZ3Q0R5UmdKUFpZVnQ3VnVBQUFBYUtWYjNWZTBiZ0FHbHpFUyYjMTA7ZWkzamk2MFRBQUFBV3FpS2JUczNUcjJuZFFjd3VJeVIwR01WY1dQckJnQUFnQll5NHR6SXJOWWR3T0F5UmtLUFpkU2UxZzBBQUFEOSYjMTA7VnpjZGNmdSsxN2F1QUFhYk1SSjZyQ3FNa1FBQXdNaXBpbGQrNnRuSGVnOTk0RjRaSTZISE10TVlDUUFBakpqcWpuZkd0clN1QUFhZiYjMTA7TVJKNnJPczlJd0VBZ0pHVGI3MXMvWW9yVzFjQWc4OFlDVDNXS2U4WkNRQUFqSmJLN2ptdEc0REZ3UmdKUGRZZE0wWUNBQUNqbzZvKyYjMTA7dm1QOXlvdGFkd0NMZ3pFU2VteXN1OFFZQ1FBQWpJenNkRjdhdWdGWVBJeVIwR1B6WTkyWjFnMEFBQUQ5VUJYWEhOVlpjV0hyRG1EeCYjMTA7TUVaQ2orMWNOM0Z6UkhWYmR3QUFBQ3kwakhqRkpldHl0blVIc0hnWUkyRUJWSVZidFFFQWdLRldFYmZON3V2OGRlc09ZSEV4UnNLQyYjMTA7eU4ydEN3QUFBQlpTUnZ6ZFZjOWNjVlByRG1CeE1VYkNBc2lJNjFvM0FBQUFMSnpxWm96OVZlc0tZUEV4UnNKQ3lMcStkUUlBQU1CQyYjMTA7cWNvM2JkK3dmR2ZyRG1EeE1VYkNBcWhLWXlRQUFEQzBxaE12YjkwQUxFN0dTRmdRNVRadEFBQmdLRlhGaDNhdW4zeC82dzVnY1RKRyYjMTA7d2dMSURGZEdBZ0FBUXlrelh0YTZBVmk4akpHd0FMcVIxN1p1QUFBQTZMV3EyakU5TmZFdnJUdUF4Y3NZQ1FzZ28zdEQ2d1lBQUlCZSYjMTA7eThpL2pOTnl2blVIc0hnWkkyRUJqTStIS3lNQkFJRGhVbkg5blhmZTlwcldHY0RpWm95RUJmREFwVk83V2pjQUFBRDBVa1dkYy9XeiYjMTA7anIramRRZXd1QmtqWVFGY3NpNW5LOG9nQ1FBQURJV3ErT0xjdnJHdHJUdUF4YzhZQ1Fza3l4TzFBUUNBWVZIblgvWE1GVGUxcmdBVyYjMTA7UDJNa0xKelB0UTRBQUFBNFZGVTF1MlNzKy9MV0hjQndNRWJDQXFtSXo3ZHVBQUFBT0ZRWjhacExUei9hUXpxQm5qQkd3a0pKVjBZQyYjMTA7QUFDTFhGWE5kN3N2YVowQkRBOWpKQ3lZY21Va0FBQ3dxRlhtbTY0NDQrakxXM2NBdzhNWUNRdWw0dXJXQ1FBQUFJZWlrL1dpMWczQSYjMTA7Y0RGR3dnTEpzU1Z1MHdZQUFCYXovOXErZnVyRHJTT0E0V0tNaElXeTkwaFhSZ0lBQUl0V1pmY0ZyUnVBNFdPTWhBVXlmV1puYjFSYyYjMTA7MzdvREFBRGdZRlhWKzNhc1gzbFI2dzVnK0JnallXRjVpQTBBQUxENFZQNVo2d1JnT0JrallXRVpJd0VBZ0VXbElpN2VzV255SGEwNyYjMTA7Z09Ga2pJUUZWQkZYdFc0QUFBQTRHRm41d3RZTndQQXlSc0tDcXAydEN3QUFBQTVVUlgxaWVzT0t0N2Z1QUlhWE1SSVdVSFZ5UitzRyYjMTA7QUFDQUExVVpMNGpNYXQwQkRDOWpKQ3lnbXB1ZmJ0MEFBQUJ3SUNyaXN6dXZtM3hMNnc1Z3VCa2pZUUVkZnN6S0t5T3EyN29EQUFEZyYjMTA7dmxURUMrTHM5UHNYWUVFWkkyRUJiVHN0OTBYRjFhMDdBQUFBN2xYRjlwM1hUMXpZT2dNWWZzWklXR2pwZlNNQkFJREJsbFYvNXFwSSYjMTA7b0IrTWtiRFFxb3lSQUFEQXdLcXFIUS9aTmZrUHJUdUEwV0NNaElXV0hXTWtBQUF3c0RJNnozL3YyVG5YdWdNWURlT3RBMkQ0dVRJUyYjMTA7QUFBWVRCWHgyUjAzclBpbjFoM0E2SEJsSkN5d21wODNSZ0lBQUFQSkU3U0Jmak5Hd2dMTGJtZTZkUU1BQU1EWHFxaFBlSUkyMEcvRyYjMTA7U0ZoZzAyZE8zVklSVjdmdUFBQUErQ3BWWjdzcUV1ZzNZeVQwUVVaYzFyb0JBQURneTZycTR6czJUTDJsZFFjd2VveVIwQi9iV2djQSYjMTA7QUFEOG44cm5SbWExemdCR2p6RVMrcUh5MHRZSkFBQUFFUkVWY2ZHT1RaUHZhTjBCakNaakpQUkJ4ZnhuV3pjQUFBQkVSSFNpL3FoMSYjMTA7QXpDNmpKSFFCM1BWTlVZQ0FBRE5WZFI3dDIrWWVuZnJEbUIwR1NPaEQ2N2FkTXgxVVhWejZ3NEFBR0MwWlhYT2F0MEFqRFpqSlBSSiYjMTA7UmJvNkVnQUFhS2ZxMzZZM1RyeTNkUVl3Mm95UjBDOFp4a2dBQUtDTnFwcVB6aCswemdBd1JrS2ZkTUlZQ1FBQXRKTC9jTVhHaVUrMSYjMTA7cmdBd1JrS2Z6RWQ4cG5VREFBQXdlcXBxMzF6bDgxcDNBRVFZSTZGdmxzeDNQOW02QVFBQUdFR1ptNi9jTkhGVjZ3eUFDR01rOU0xbCYjMTA7WjZ6OFFrWE50TzRBQUFCR1NOWE5ZMk5ML3F4MUJzQ1hHU09oajdMUzFaRUFBRURmVk1STExsOTM1TzdXSFFCZlpveUVQcW9NWXlRQSYjMTA7QU5BdjE5MCt2dmZsclNNQTdzNFlDWDFVVWNaSUFBQ2dMekxqK2RldU8rNzIxaDBBZDJlTWhENGE2NDRaSXdFQWdJVlhzZjBoMTAzOCYjMTA7YmVzTWdLOWxqSVErV25MMDhtMFZOZGU2QXdBQUdISlZ6MzN2MmVuM0hzREFNVVpDSDIwN0xmZGx4YVd0T3dBQWdPRlZFUmRQYjV4OCYjMTA7WStzT2dIdGlqSVErcS9BUUd3QUFZQUYxNHBtUldhMHpBTzZKTVJMNnJKTnBqQVFBQUJaRzFldDJuRDc1d2RZWkFQdGpqSVErbTQvdSYjMTA7SmEwYkFBQ0FJVlJ4NTF4MWZyOTFCc0M5TVVaQ255MVpHaCtKS3JkTUFBQUF2ZmF5S3pkTlhOVTZBdURlR0NPaHp5NTcrc292VnVUbCYjMTA7clRzQUFJQ2hjdDNTbXZ2ejFoRUE5OFVZQ1Exa3hJZGJOd0FBQU1Pay9uRGJwbU51YlYwQmNGK01rZEJBWm4yMGRRTUFBREFjS3VvVCYjMTA7MDlkUHZycDFCOENCTUVaQ0ErWEtTQUFBb0ZleW5obG5aN2QxQnNDQk1FWkNBM2ZlY2Zzbm8ycStkUWNBQUxEb3ZYbkgrcFVYdFk0QSYjMTA7T0ZER1NHamc2bWNkZjBkbGZMcDFCd0FBc0hoVjFXeDE1NTdkdWdQZ1lCZ2pvWkdzOEw2UkFBREEvWllaNSs3WWRNeDA2dzZBZzJHTSYjMTA7aEVhcTB2dEdBZ0FBOTB0RjdlcU9kVjdRdWdQZ1lCa2pvWkZ1NXNXdEd3QUFnTVVwSTM1LzU3cUptMXQzQUJ3c1l5UTBjc1VOS3o1VCYjMTA7RWJlMDdnQUFBQmFYcXZqdzlQV1RyMjdkQVhCL0dDT2hsYk96bTFVZmJKMEJBQUFzSWxYVjZkUVpjWFoyVzZjQTNCL0dTR2dwNC8ydCYjMTA7RXdBQWdNV2pJbCsxZmYyVTk1OEhGaTFqSkRUVWpUSkdBZ0FBQjZicTVzcDlmOUE2QStCUUdDT2hvUWZlTm5keFZNMjM3Z0FBQUFaZiYjMTA7WmYzaHpnM0gzdEM2QStCUUdDT2hvVTg5KzlqYkl2TGpyVHNBQUlEQlZsR2YyREUxZFg3ckRvQkRaWXlFeGlyaUE2MGJBQUNBQVZaViYjMTA7blc2Y0hxZWx1NnFBUmM4WUNhMTFQTVFHQUFDNFYzKzdmZFBVeGEwakFIckJHQW1OamM5MS82ZDFBd0FBTUpncWFtYnAwdkhmYTkwQiYjMTA7MEN2R1NHanNzak5XZnFHaXJtamRBUUFBREtCdS9zRzJaeXpmMHpvRG9GZU1rVEFROGoydEN3QUFnRUZUSDlpeGNlSnZXbGNBOUpJeCYjMTA7RWdaQVZsN1V1Z0VBQUJnY0ZUVlgzZnpOeUt6V0xRQzlaSXlFQVREV25YZGxKQUFBOEg4eThpVTdOazMrYitzT2dGNHpSc0lBdU95TSYjMTA7bFYrb2lzdGFkd0FBQU8xVjFjNDc3N2p0VDFwM0FDd0VZeVFNakxxb2RRRUFBTkJlUnF5LytsbkgzOUc2QTJBaEdDTmhRR1RGdTFzMyYjMTA7QUFBQWpWVzlibnJqMUx0YVp3QXNGR01rRElyNXBlOXRuUUFBQUxSVFZYdTZPWHRtNnc2QWhXU01oQUV4ZmVhUnU2THFNNjA3QUFDQSYjMTA7TmlyamQzWnVPUGFHMWgwQUM4a1lDUU9rTXYremRRTUFBTkIvVmZFZk96ZE12YVoxQjhCQ00wYkNJT2wyLzZ0MUFnQUEwSGQzak0xMyYjMTA7MXJXT0FPZ0hZeVFNa1BIRDRqMFZOZGU2QXdBQTZKK3ErS1BMZjJ2RkZhMDdBUHJCR0FrRDVMS25yL3hpUkx5L2RRY0FBTkFuRlIvZCYjMTA7c1hMaW5OWVpBUDFpaklRQms1WC8zcm9CQUFCWWVGVzFyNXZ4dERndDUxdTNBUFNMTVJJR1RGYm5uYTBiQUFDQXZuakJ6ZzJUbjJrZCYjMTA7QWRCUHhrZ1lNTnMzTHY5a1ZWemJ1Z01BQUZoUUgzdm9EWk12YWgwQjBHL0dTQmcwbVJVWnJvNEVBSUFoVlZGejJlMzh4bnZQVGcrdiYjMTA7QkVhT01SSUdVY1U3V2ljQUFBQUxwUEtGMnpldCtFVHJESUFXakpFd2dHWno3RjBSMVczZEFRQUE5RlpWZlhMNStNUUxXM2NBdEdLTSYjMTA7aEFIMHVRM0xiNnpLRDdmdUFBQUFlcWVxOW5VNm5WKzlaRjNPdG00QmFNVVlDUU1xby82OWRRTUFBTkJUTDlpK2Z1S1RyU01BV2pKRyYjMTA7d29ES0dudHI2d1lBQUtBM0t1TGlIU3NuLzZKMUIwQnJ4a2dZVU5zM3JmaEVWSDJ1ZFFjQUFIREk3aGdiNi81YW5KYnpyVU1BV2pORyYjMTA7d2lETGZFdnJCQUFBNEZEVmN5OWZ0L0xTMWhVQWc4QVlDUU9zRzkwM3QyNEFBQUFPUWNWN3B0ZFBudE02QTJCUUdDTmhnSzBZbTNwZiYjMTA7Uk4zVXVnTUFBTGcvNnFhWXExK056R3BkQWpBb2pKRXd3QzVabDdOVjhXK3RPd0FBZ0lQWGpWdy9mZWJVMWEwN0FBYUpNUklHWGNmNyYjMTA7UmdJQXdHSlRWZiswYzhQazYxcDNBQXdhWXlRTXVQRWwzWCt2cW4ydE93QUFnQU5WbjUvYk43YXhkUVhBSURKR3dvQzc3T2tydjVnWiYjMTA7NzJuZEFRQUFISUNxcXF4ZnVlcVpLMjVxblFJd2lJeVJzQmlVVzdVQkFHQXhxSXdYNzFpLzhxTFdIUUNEeWhnSmkwQTM5LzFMUkhWYiYjMTA7ZHdBQUFQZnFJOHZISnAvWE9nSmdrQmtqWVJIWXVlSFlHNkx5b3RZZEFBREFQYXVJVzZNejl2OWRzaTVuVzdjQURESmpKQ3dlYjJnZCYjMTA7QUFBQTdFOTN3L1RweTNlMHJnQVlkTVpJV0NTV0xoMjdzS0xtV25jQUFBQmZyYXIrYWNlR2xhOXQzUUd3R0JnallaSFk5b3psZTdMaSYjMTA7UDF0M0FBQUFYMUZWTzNNdTFyZnVBRmdzakpHd3VMaFZHd0FBQmtSVnpkWllQV1g2ektsYldyY0FMQmJHU0ZoRWxpNGRmNU5idFFFQSYjMTA7WURCa3huTjJucjd5bzYwN0FCWVRZeVFzSW03VkJnQ0FnZkhtNmZXVDU3U09BRmhzakpHd3lIUXovbC9yQmdBQUdHMzErYVZMeG40aiYjMTA7TXF0MUNjQmlZNHlFeFdhczgrYUsydHM2QXdBQVJsRkZ6VlVubjdMdEdjdjN0RzRCV0l5TWtiREk3RnczY1hOR3ZyVjFCd0FBaktUSyYjMTA7UDloeCt1UUhXMmNBTEZiR1NGaVU4dTliRndBQXdBaDY4NDRORXk5dEhRR3dtQmtqWVJFNmFtekZPeXRxVitzT0FBQVlGVlcxYzNadiYjMTA7NTJuZUp4TGcwQmdqWVJHNlpGM09SdVEvdGU0QUFJQ1JVSEZucDhaKzdxcG5ycmlwZFFyQVltZU1oRVdyKzlyV0JRQUFNQnBxMC9aTiYjMTA7S3o3UnVnSmdHR1RyQU9EK1c3MTU1bjh6NDlUV0hRQUFNS3dxNHRVN05rdytyWFVId0xCd1pTUXNZaG5oUVRZQUFMQkFLdW9UZSsrNCYjMTA7YlVQckRvQmhZb3lFUlN3NzlROVI1UTIwQVFDZ3g2cHF6M2lPL2N6Vnp6citqdFl0QU1QRUdBbUwyUGIxVTlkVTVIKzI3Z0FBZ09GUyYjMTA7M1l6NC95NWJ2K0xLMWlVQXc4WVlDWXRjWnJ5cWRRTUFBQXlYemg5T2I1eDZWK3NLZ0dGa2pJVEZibmJGRzZQcXh0WVpBQUF3REtyaSYjMTA7amRQclY3eW9kUWZBc0RKR3dpSTNmV1puYjBXK3RuVUhBQUFzZGhYeDJmRmwzYWRGcHZkbEIxZ2d4a2dZQXQxdS9FM3JCZ0FBV056cSYjMTA7cHNyNW43cnM2U3UvMkxvRVlKZ1pJMkVJWEhIRzVLZXI0c090T3dBQVlIR3FibVNjdG5QOTBkdGJsd0FNTzJNa0RJbU0rdXZXRFFBQSYjMTA7c0NoMTQzZW4xMC85UitzTWdGRmdqSVFoY2NUdHM2K3JpRnRhZHdBQXdLSlM4WnJwVFZNdmI1MEJNQ3FNa1RBa1B2WHNZMi9MaXI5diYjMTA7M1FFQUFJdEZSVndjY3l2V3RlNEFHQ1hHU0JnbW5kcmFPZ0VBQUJhRGlyaDZTV2YrWjZiUDdPeHQzUUl3U295Uk1FU20xMDl0cTZqLyYjMTA7YnQwQkFBQURyZUwyak01UFhucjYwZGUyVGdFWU5jWklHRElWNmVwSUFBRFluNnFxNnY3aTlJWVZIMitkQWpDS2pKRXdaQTZibXZpWCYjMTA7aUxpdWRRY0FBQXltL1AwZG0xYStwWFVGd0tneVJzS1EyWFphN291bzgxdDNBQURBb0ttS3Y1dmVPUG5pMWgwQW84d1lDVU5vZnNuYyYjMTA7K1ZVMTI3b0RBQUFHUlVXOWQ5bktpZld0T3dCR25URVNodEFWejNqdzlaSHgrdFlkQUFBd0NLcmlzbVZMeG4vMnJydUlBR2pKR0FsRCYjMTA7cXBOeGJ1c0dBQUJvcmFKMmpjMTNmblRiTTVidmFkMENnREVTaHRiMjlWTWZqcW9QdHU0QUFJQ0c3dWhrL1BqbHY3WGlpdFloQU56RiYjMTA7R0FuRHJPSmxyUk1BQUtDTjZuYXpmbW43K3FrUHR5NEI0Q3VNa1RERXBvK2VmRk5GK1ZOZ0FBQkdUa1k4YytmNnFUZTE3Z0RncXhraiYjMTA7WVppZGx2T2RpTDlxblFFQUFQMVVFZWRzM3pEMWl0WWRBSHc5WXlRTXVTWGQrYitMcUp0YWR3QUFRRjlVWGJoai9jUXpXMmNBY00rTSYjMTA7a1REa3RtMDY1dGFxT0w5MUJ3QUFMTFNxZVBmU2xaTy9ISm5WdWdXQWUyYU1oQkd3Wkt6N2lxaTRzM1VIQUFBc2xLcjZlTTdWejIwNyYjMTA7TGZlMWJnRmcvNHlSTUFJdVBmM29heXZxTmEwN0FBQmdJVlRWanU3U3VSK2RQblBxbHRZdEFOdzdZeVNNaXByL3k2aWFiNTBCQUFDOSYjMTA7VkZHN291Wi81SXBuUFBqNjFpMEEzRGRqSkl5SUhadU9tWTZNZjI3ZEFRQUF2VklSdDBiVWorN1lkTXgwNnhZQURvd3hFa2JLMkl0YSYjMTA7RndBQVFDOVUxYjZLN2svdDJMRHlrdFl0QUJ3NFl5U01rT2tOS3o1ZVVXOXIzUUVBQUllbXVwSDE1SjBiVnI2bmRRa0FCOGNZQ1NNbSYjMTA7SS82c2RRTUFBQnlTN1B6S2pnMHIzOW82QTRDRFo0eUVFVE85WWVwRFVmWE8xaDBBQUhDL1ZHNmNYai94ajYwekFMaC9qSkV3Z21vcyYjMTA7ejI3ZEFBQUFCNnVxbmp1OWNXSkw2dzRBN2o5akpJeWdIYWRQZnJDaTN0dTZBd0FBRGxSRnZYakh4cWsvYjkwQndLRXhSc0tJcW03biYjMTA7ajFvM0FBREFnYWlvODNlc24vejkxaDBBSERwakpJeW9uWnNtL3NkN1J3SUFNT2dxNGxVNzFrOXVpTXhxM1FMQW9UTkd3aWpMZUg3ciYjMTA7QkFBQTJKK3ErcWNkVXhQUE1FUUNEQTlqSkl5dzZRMVRINHFJdDdUdUFBQ0FyMVZWLzdSajVlU3Z4R2s1MzdvRmdONHhSc0xJNjNpeSYjMTA7TmdBQWc2WGlUWVpJZ09Ga2pJUVJONzFoeGNlajZuV3RPd0FBSUNLaW90NjJkT1hFTHhnaUFZYVRNUktJcXZublZkUmM2dzRBQUVaYiYjMTA7UmIxdDJkVGt6Mjg3TGZlMWJnRmdZUmdqZ2RpeDZaanBpUGpyMWgwQUFJd3VReVRBYURCR0FoRVJzYVRUL2RPS3VLMTFCd0FBbzhjUSYjMTA7Q1RBNmpKRkFSRVJjZXZyUjEyYkVYN1h1QUFCZ3RCZ2lBVWFMTVJMNFAyTkx1eStLaWh0YWR3QUFNQnFxNnA4TWtRQ2p4UmdKL0ovTCYjMTA7bnI3eWk1WHh2TllkQUFBTXY2cjZweDBySjMvRkVBa3dXb3lSd0ZkNTZQVVRmeGRSLzl1NkF3Q0E0ZlhsSVRKT3kvbldMUUQwbHpFUyYjMTA7K0NydlBUdm5xcHUvMjdvREFJQmhWYTgwUkFLTXJtd2RBQXltMVZ0bTNwa1JQOVM2QXdDQVlWSXZtMTQvK2J1UldhMUxBR2pEbFpIQSYjMTA7UGVwVS9YWkZ6Ylh1QUFCZ1dOVHpwemRNUGNzUUNURGFqSkhBUGRxK2NlcXpVWGxlNnc0QUFJWkF0MzVuZXNQVTJhMHpBR2pQR0FucyYjMTA7VjQzbjh5dHFWK3NPQUFBV3ErcEcxZE9uTjAyOXZIVUpBSVBCR0FuczE4NTFFemRINUhOYmR3QUFzUGhVMVd4Vi91TDB4cW0vYmQwQyYjMTA7d09Bd1JnTDNhc2YxRTM5WEZSOXUzUUVBd0tKeVIzWHlwM2Rzbkh4OTZ4QUFCb3N4RXJoM1oyYzNzcnNob3JxdFV3QUFHSHdWTlJOUiYjMTA7Mzdkei9lUy90VzRCWVBBWUk0SDd0R1BEeWtzcTR2eldIUUFBRExyNmZLZmlDZE1icGo3VXVnU0F3V1NNQkE1SWpYV2VHeFUzdE80QSYjMTA7QUdCUTFmL0diSHpuOW8xVG4yMWRBc0RnTWtZQ0IrUkxEN041VnVzT0FBQUdVTlg3OThYNEU2YlBuTHE2ZFFvQWd5MWJCd0NMeStyTiYjMTA7TS8rUkdUL1F1Z01BZ01GUVVXKzdmV3p2TDF5NzdyamJXN2NBTVBqR1d3Y0FpMHNueDlaVnpIOG1JZzV2M1FJQVFHdjF5aDFUayt2aiYjMTA7dEp4dlhRTEE0dUEyYmVDZ2JOK3dmR2RHbk5XNkF3Q0ExdklQcGpkTS9hWWhFb0NEWVl3RUR0cERycDk0ZVVWOW9uVUhBQUQ5VjFYNyYjMTA7c2h1L09MMWg0aTlhdHdDdytIalBTT0IrV1hYK3JrZDM1dk5Ea1RuV3VnVUFnRDZwdWpHejgxUGJOMHk4cjNVS0FJdVRLeU9CKzJYbiYjMTA7NlNzL0dwRXZhdDBCQUVCL1ZOUVZZMW5mWVlnRTRGQVlJNEg3YjI3RkN5THFmMXRuQUFDd3NLcml3eFd6ajd0c3c4ckxXcmNBc0xnWiYjMTA7STRIN2Jmck16dDV1cDM0dHFyeHBPUURBc0txNjhQYnhPNzkzNTRaamIyaWRBc0RpNXowamdVTzJadlBNQ3lQanVhMDdBQURvcmFvNCYjMTA7ZThlR2liTWpzMXEzQURBY1hCa0pITHE1RlMrb3FrKzJ6Z0FBb0dmdXFJcGYyTEZ4OHZtR1NBQjZ5WldSUUUrY2VPN01JenVkK21obSYjMTA7TG0zZEFnREFJYmt1czM1cSsvcXBEN2NPQVdENHVESVM2SWtyenBqOGRFVCtZZXNPQUFEdXY2cjZlTXpXdHhzaUFWZ294a2lnWjNiYyYjMTA7TVBHeWl2cnYxaDBBQUJ5OGl2am4yOGYzZnRmMG1WTlh0MjRCWUhpNVRSdm9xWWVmdCtlRThVNzNFeEc1dkhVTEFBQUhvS295NDQrMyYjMTA7cjU5OG9mZUhCR0NoR1NPQm5sdXpaZWJKRVhGaDZ3NEFBTzVEMWMyUm5hZE9iNWg0ZStzVUFFYUQyN1NCbnB2ZU1QbUdxUHFiMWgwQSYjMTA7QU94ZlJYeDJ2dHQ5akNFU2dINHlSZ0lMNG9qYlozKzdLaTVyM1FFQXdEMTY4L2pTN21Pdk9PUG95MXVIQURCYTNLWU5MSmkxNTkzNCYjMTA7TGQzTy9JY3ljbG5yRmdBQUlxS3FJdU9zNmZXVGYrcjlJUUZvd1pXUndJTFp2bW5GSnlMeXQxcDNBQUFRRVZVM1p1UlBURytZK2hORCYjMTA7SkFDdHVESVNXSENyTisvK2g4ejhwZFlkQUFBajdKTE9YT2ZKbC8vV2lpdGFod0F3Mmx3WkNTeTRaVFYvdXZlUEJBQm9wT3F2WTNiRiYjMTA7NHcyUkFBd0NWMFlDZmJGcXk4dzNkaW91am93aldyY0FBSXlFaXRzcmF2Mk9qVk4vM3pvRkFMN01sWkZBWCt6Y01QbVppdmoxMWgwQSYjMTA7QUNPaFl2dDhOeDVuaUFSZzBCZ2pnYjdac1hIeTlSWHg4dFlkQUFERHJDcmVPTGFzKzZncnpwajhkT3NXQVBoYTQ2MERnTkh5ME9zbiYjMTA7bm5QTjBYdStOVEsrcDNVTEFNQXdxYWk5V2ZuYk96Wk9udCs2QlFEMngzdEdBbjEzNGl1dk8yWnNkdndqRWZtdzFpMEFBTU9nS2k3dCYjMTA7ZHVNMFYwTUNNT2pjcGczMDNSWFBlUEQxRVdNL0ZSRjN0RzRCQUZqc0t1SlZEN2g5MzZNTmtRQXNCcTZNQkpwWnMyWG15UkZ4WWVzTyYjMTA7QUlERnFDSnV6Y3pUcDlkUC9HUHJGZ0E0VUs2TUJKcVozakQ1aG9wNFFlc09BSURGcHFvK1hqbi9iWVpJQUJZYlYwWUNiVlhsNnExNyYjMTA7THN5SW4yK2RBZ0F3OEtxcUl2NXkyY3JKUDlwMld1NXJuUU1BQjhzWUNUUjM3QVhYSEhIRS9HSHZ5WWpIdG00QkFCaFVGWEYxVlBkWCYjMTA7ZG14YytWK3RXd0RnL25LYk50RGN0ZXVPdTcxaTMwOVcxWld0V3dBQUJsTzlmamJHdnNrUUNjQmk1OHBJWUdDczNiejdFUlh4d2NnOCYjMTA7cW5VTEFNQWdxSW92Um5ZMzd0aXc4cld0V3dDZ0Y0eVJ3RUJadlhYWDkwUTMzNVdaUzFxM0FBQzBWUjhZeTdGZnVtejlpaXRibHdCQSYjMTA7cnhnamdZR3pldXZNYWRtdDEwV203MUVBd01pcHFMMmR5T2R0bjVwNFdaeVc4NjE3QUtDWC9FWWZHRWhyTnU4K016TC9xblVIQUVDZiYjMTA7WGRLTitMV2RHeVkvMHpvRUFCYUNCOWdBQTJsNjQ5UTVGZldpMWgwQUFQMVFVWE5SZGRaeDEwODh6aEFKd0RCelpTUXd1S3B5OWRZOSYjMTA7cjh5STMyaWRBZ0N3Y09yVDJSMzdsZTJiVm55aWRRa0FMRFJYUmdLREs3TjJURTJzaTZvTFc2Y0FBUFJjMVh4VS9Gbk1Ubnk3SVJLQSYjMTA7VWVIS1NHRGduWHBoTGQyM2ErYk5rZm1qclZzQUFIcWhxajVaWS9YMG5hZXYvR2pyRmdEb0oxZEdBZ052MjJtNTc3Ynh2VDhmRWYvViYjMTA7dWdVQTRGQlUxTjZxK3FQbDQ1UGZib2dFWUJTNU1oSllORTcrbTEwUG10dmJlWGRtUEtaMUN3REFRYXQ2ZjJlOG5uNzV1cFdYdGs0QiYjMTA7Z0ZhTWtjQ2lzdXFDUFVmbFhMM0xJQWtBTEJZVmNWdGsvZjZPNnlhM3hOblpiZDBEQUMwWkk0RkZ4eUFKQUN3ZTlZN3VXR2Zkem5VVCYjMTA7bjJ0ZEFnQ0R3QmdKTEVvR1NRQmdrRlhGdGRHSjM5NnhmdkxDMWkwQU1FZzh3QVpZbEhhdW03aTV4dk9IcXVMRHJWc0FBTDZpdWxGeCYjMTA7WHM3VktZWklBUGg2cm93RUZyVTE1K3crTXBia215UGllMXUzQUFBajcyUGRUbmVkcDJRRHdQNFpJNEZGNzlnTHJqbmlBZk9IdlQwTSYjMTA7a2dCQUExWHh4WXg2M3ZUS3lmUGl0Snh2M1FNQWc4d1lDUXlGVXkrc3BmdDI3M2w5UlB4MDZ4WUFZSlRVNnpQaldkdlhUMTNUdWdRQSYjMTA7RmdOakpEQThMcXl4MWJ2My9FMUcvRnJyRkFCZ3lGVjlKcUt6YVhyanhIdGJwd0RBWW1LTUJJWkxWYTdlc3VkbG1mSGJyVk1BZ0NGVSYjMTA7ZFhObS9QRkRycC9jOHQ2emM2NTFEZ0FzTnNaSVlDaXQyVHp6ZTVIeEY2MDdBSUFoVVZVVithcktmWCt3YzhPeE43VE9BWURGeWhnSiYjMTA7REswMW0vYzh0YUw3ZDVtNXBIVUxBTEI0VmNXSE8xVy90WDNUMU1XdFd3QmdzVE5HQWtOdHpkYmRQMWlWLzV3UlI3WnVBUUFXbDZxNCYjMTA7SnJMN0J6dldULzFEWkZickhnQVlCc1pJWU9pdFBlL0diK2wydW0vTGlJZTJiZ0VBQmw5RjNKWlJMN3J6anR2Lzh1cG5IWDlINng0QSYjMTA7R0NiR1NHQWtuSEwrRGNmT2RjZmVGaEdQYXQwQ0FBeW9MNzB2NUpLeCtUKzY5UFNqcjIyZEF3RER5QmdKakl4akw3am1pQ1BtRDN0dCYjMTA7UnZ4czZ4WUFZTUJVdkNjNytUdmIxMDk4c25VS0FBd3pZeVF3V3FweXpkWTlMNHlJUDJpZEFnQU1oTXVqOG5lbk4wNjhyWFVJQUl5QyYjMTA7VHVzQWdMN0tyT2tOazgrdGlsK0lpdHRiNXdBQWJWVEVGNm9idjNuYzlSUGZZSWdFZ1A1eFpTUXdzdGFlZCtPM1ZHZit6UkY1UXVzVyYjMTA7QUtCZjZxYW8vUE03Nzd6dFhBK25BWUQrTTBZQ0krMlVjMitlbk92TVhSZ1ozOWU2QlFCWVVIZEV4Ri9ON3UyOCtLcG5ycmlwZFF3QSYjMTA7akNwakpNQ0ZOYlptMTU0WFJNWnpXNmNBQUQxV05WOFpyMXpTNmI3QUU3SUJvRDFqSk1DWHJOMDg4NlRLK29lSVhONjZCUUE0UkZVViYjMTA7R1JkV2QvNlBkbXc2WnJwMURnQndGMk1rd04yYzlJb2JUK3lPZFMrTWpFZTNiZ0VBN29jdmpaQ1I4WUxwOVZQYld1Y0FBRi9OR0FudyYjMTA7TlU2OXNKYnUyelh6WjVINXJOWXRBTUJCZWN0ODVSOWZzWEhpVTYxREFJQjdab3dFMkk5VlcyWitOS05lazVFclc3Y0FBUGZxTFJHZCYjMTA7czZjM3JQaDQ2eEFBNE40Wkl3SHV4Y25uN25ySVhLZno2c3o0d2RZdEFNRFhNVUlDd0NKampBUzRMMVc1ZHV2TUdWWDVvc2c0ckhVTyYjMTA7QUl5MHFvcklOMGQyL3NRSUNRQ0xqekVTNEFDdDNiejdFZDJJZjh6TWIyM2RBZ0FqcDJvK0l2OHBPdlVYSGt3REFJdVhNUkxnSUR6cSYjMTA7Z2xweTA5eWVQNHlzUDh6SThkWTlBREQwS3U2c3JGZVA1OWlMTGx1LzRzcldPUURBb1RGR0F0d1BhOCs3OFZ1Nk9mL3F6UHptMWkwQSYjMTA7TUl3cTRyYUkycnlrMC8yclMwOC8rdHJXUFFCQWJ4Z2pBZTZuUjExUVMyNmVuM2x1VlR3M001ZTI3Z0dBWVZCUk14bHg3dXplc1hPdSYjMTA7ZXVhS20xcjNBQUM5Wll3RU9FUnJ0dTQrTlNvdWlNanZhdDBDQUl2WTVWSHg4anZ2dk8wMVZ6L3IrRHRheHdBQUM4TVlDZEFMVmJsNiYjMTA7ODU2blo2ZGVISkhMVytjQXdHSlJWZStMckwvY2NmM1UyK1BzN0xidUFRQVdsakVTb0lkT2ZPVjF4M1QyamI4ME0zK3BkUXNBREt5cSYjMTA7K2NqNDUvbXFsMTZ4Y2VWSFd1Y0FBUDFqakFSWUFLdk8yL05kbWQzelBPQUdBTDZpSW02TmlGZk9kL09jS3pkTlhOVzZCd0RvUDJNayYjMTA7d0VLNXNNWlc3OTU5ZWxiK1NXU3VhSjBEQUExZEhsVmJZaTVlTlgzbTFDMnRZd0NBZG95UkFBdnNwQXR1bWVyT3pUNC9vazZQekxIVyYjMTA7UFFEUUYxVlZFZjhhbFp0M2JKeDRaMlJXNnlRQW9EMWpKRUNmbkx4bDE4bnoxWGx4WlB4azZ4WUFXRGgxVTBUOFhYVEd0MHlmdm54SCYjMTA7NnhvQVlMQVlJd0g2Yk0zbVBVK01xTCtNakVlM2JnR0FucW42VEdXZSs0RGI5djNqcDU1OTdHMnRjd0NBd1dTTUJHaWhLdGRzbnZtNSYjMTA7NnVRTE11SVJyWE1BNFA2b3FMMFI4WVpPZFA1Nis0YUo5N1h1QVFBR256RVNvS1d6cXJOMjVjeXZkRHZ4eHhsNVl1c2NBRGdRRmZIWiYjMTA7alBycnBVdkcvMzdiTTVidmFkMERBQ3dleGtpQUFYRHFoYlYwMzY0OXZ4NVp6NDNJaDdYdUFZQ3Y1U3BJQUtBWGpKRUFBK1J1bytUdiYjMTA7UitRSnJYc0FJS28rRXhGL3MzVHArR3RkQlFrQUhDcGpKTUFBZXVKWk5mNkZsVE5QN1diOFVXYXVidDBEd0lpcHVya2lYcGNacjU3ZSYjMTA7TVBXaDFqa0F3UEF3UmdJTXNMdEd5VDFQcms3OGJrUjhXK3NlQUlaWmRhUGlQN3FacjU0Ly9KWTNYL1cwRSs5c1hRUUFEQjlqSk1BaSYjMTA7c1hiTDdoL29WajRuTTM2d2RRc0F3Nk1xTHN2TVYyZDJYN3Q5L2RRMXJYc0FnT0ZtakFSWVpOWnUzZlBOM1c3M09SSHg1TXhjMHJvSCYjMTA7Z0VXbzZzWXYzWWI5OTI3REJnRDZ5UmdKc0VpZGN2NE54ODUyeDA2UHFQVVp1YkoxRHdBRHJ1TDJ5SHBiVk9jZmw2NWM4YzV0cCtXKyYjMTA7MWtrQXdPZ3hSZ0lzY212TzZTN3JMdG56QzUzSTN3cnZLd25BM1ZUVVhGYThLenFkZjFvNlAvdVdiWnVPdWJWMUV3QXcyb3lSQUVOayYjMTA7OWVhWjc4eUkzNnlzWDhqSVphMTdBR2lncWlMai9WSDVqNTN4SmY5OCtib2pkN2RPQWdENE1tTWt3QkE2OVpVM1RleWJuZnVWcWp3OSYjMTA7TTA1dTNRUEF3cXVJaXlQaURUV1diOWk1YnVKenJYc0FBTzZKTVJKZ21GWGw2dk4zUHpHNitmVE0vTm1JT0x4MUVnQTk4bjlYUU1ZLyYjMTA7ZDhjN2J6SkFBZ0NMZ1RFU1lFU3N1bURQVVdQZCtvVnVOMzQ5TXg3VHVnZUErNk82RmZHK3FIamplTGZlZU5rWks3L1F1Z2dBNEdBWSYjMTA7SXdGRzBPcnpacjRoczU1V2tiK1lHY2UyN2dGZy82cHFOaUxmbXhGdjdPYStmOW01NGRnYldqY0JBTnhmeGtpQVVYWmhqYTJabWZtKyYjMTA7Nk9ZdlZjVFBac2FEV2ljQkVCRlJOMVhFdjBmbFcybzgzN0Z6M2NUTnJZc0FBSHJCR0FsQVJFUTg5S1dmTzN6cDRRLzRxYXo2cFlqNCYjMTA7b2N4YzJyb0pZSlJVMVpXUitaYUs3bHRYakUyOTc1SjFPZHU2Q1FDZzE0eVJBSHlkRTE1KzQvSWxTK2QvTGlLZVhCbmZuNUhqclpzQSYjMTA7aGs1VlJlWkhxK290M2VpODdZcU5FNTlxblFRQXNOQ01rUURjcTFOZmVkUEV2bjF6UHhPR1NZQkRWbEV6VWZHT2pNNDd1cm4zWGQ3LyYjMTA7RVFBWU5jWklBQTdZOFZ0dVdyRWtabjg4b3ZQVFdmRWprWEZFNnlhQXdWYmRxdnhvUlB4N3ArcmZ0KythL0VpY25kM1dWUUFBclJnaiYjMTA7QWJoZkh2clN6eDIrN1BERGZ6Q2k4ek1SOVJNWk9kbTZDV0FnVk53UUVlL01pbjhmcS9GM1hYckdVVE90a3dBQUJvVXhFb0JEZDJHTiYjMTA7clpyWjg3aE94Wk1pNmtrUitVMnRrd0Q2cFNKdWphajNac1M3NStmelA2L1lOUEdaeUt6V1hRQUFnOGdZQ1VEUHJicGd6L0dkK1hwUyYjMTA7UlQwcEk3OHZJZzV2M1FUUUsxVTFHeGtmeUlqLzdHYSs1MkhYVFZ6ODNyTnpyblVYQU1CaVlJd0VZRUd0T2FlN3JEczI4MTJaK2NPWiYjMTA7OGNPdW1nUVduYXI1aVB4NFpGMVVrZSsrZmV6TzkxMjc3cmpiVzJjQkFDeEd4a2dBK3VxRTg2NS84SGlPL1ZCRS9GQkVmbDltSE51NiYjMTA7Q2VEdUttcHZWbncwTWkrcWJ2elBzcGo3bjIyYmpybTFkUmNBd0RBd1JnTFExRWtYN0RwbGZqNitQNnJ6dlJIMXZaazUwYm9KR0MwViYjMTA7Y1Z0R2ZDaWpMdXBtL2MvY1liZCs2S3FublhobjZ5NEFnR0ZrakFSZ2NKeFZuYlVyYi9xbTZzeC9UMFErc2FxK0t6T25XbWNCdzZZKyYjMTA7SHhVZmpJd1BaamMrK0pCZGs1ZDR6MGNBZ1A0d1JnSXd1S3B5N1phWlV5cnlpUlgxaE1qODdveDRhT3NzWVBINDBpM1hINHVJRDBURiYjMTA7aDhhcVBuRFpHU3UvMExvTEFHQlVHU01CV0ZSV1hiRG4rSnlyNzRpTTc0aUs3NGlzYjh2SThkWmR3R0NvcUN1eTRpTmZ2dXB4eWRHVCYjMTA7SDk5Mld1NXIzUVVBd0YyTWtRQXNhZzk5NmVjT1g3cnNnWS9xWkgxblJUd21zeDRUa1E5cjNRWDBRMzArS2o4YW1SK083RjZ5ZEh6OCYjMTA7a20zUFdMNm5kUlVBQVB0bmpBUmc2Sno0eXV1T0dkKzM1TkhkaU1kbTFLTXI0dHU5OXlRc2JoWHhoWWk2SkNvdWpzcExjbjdKSmRObiYjMTA7SHJtcmRSY0FBQWZIR0FuQVNManI5dTc1YjR2c2ZHdEVmV3RFZnF2M240VEJVMUZ6R2ZIWml2aGtSSDZpRS9YSkhGdjZpY3ZYSGJtNyYjMTA7ZFJzQUFJZk9HQW5BeUZwenppMHJZK20rYjhuS2IrbEdmVk5VUERJaVRzM01KYTNiWURUVTU2UGlNNUh4djFYeDZjeXhUOGZzVWR1bSYjMTA7eit6c2JWMEdBTURDTUVZQ3dOMDg4YXdhdjNybG5wT3JFNC9zVkR5eXNoNFpGZCtRR1ErUHlFN3JQbGlVcWo1WG1aZEd4R2VqRy85YiYjMTA7WTdHdHM2OCtQWDNtMUMydDB3QUE2QzlqSkFBY2dCTmVkY1ZoUys4ODZ1VDVxa2RreGFtUjhZaU1la1JWbk9SS1NvaUlpdHNqYTdvaSYjMTA7TDQrS3oyWW5MNnU1dWM4KzRNNzV5ejcxN0dOdmE1MEhBTUJnTUVZQ3dLRzRzTWJXN3I3NWhHNTMvcVJPcDA2cXlyV1ZjVkpVblpRWiYjMTA7eDd1YWttRlNGVitNcUoyWmVVVkVUVmMzTDQreDd2Wk81UGJ0NjZldWFkMEhBTURnTTBZQ3dBSlpjMDUzMmRpU21ZZlBabWQxUnEySyYjMTA7eWxVWnNTcWlWbFhrcW94NFFPdEd1THVLdUMyanJxeUlLN1B5aW9xNG9oTjFaYmZidlhMWllVdXYzUGFNNVh0YU53SUFzTGdaSXdHZyYjMTA7a1ZWYnJqMDZPdVBIZDdwNVFuVGorT3JrQ1ZseGZHU2NVRkVuWk9SazYwYUdTWFVqOG9hb3VMcXlybzJLcXpQeXl1ckVsWlhkbmVPNSYjMTA7N0VwUHJBWUFZS0VaSXdGZ1FKM3dxaXNPRzd2ekFRL3JkTWNma2xVUHFZempLK0loa2ZHUXFIaG9SajJrTW83SnlHV3RXMm1ycW5abiYjMTA7eHJWUjhZWEt2RG9qcm91SWF5cTYxM1F5cnh2TDd1Y3ZuVmg1UTV5Vzg2MWJBUUFZYmNaSUFGamtUbmo1amN1WEhUSDM0TzdjMkRIZCYjMTA7ckdNN1ZjZFV4SU1qYzJWRUhaMFZVeEU1RlZGVGtibWlkUy8zcmFKbU1uSW1xbVlpY2xkbDdJcW9tVTdrN3FyYW5aRTNWTmJNV0k1ZCYjMTA7TjcvdnFHdW56K3pzYmQwTUFBQUh3aGdKQUNQa2lXZlYrSlVyYjVnYWovSEpUdVJrTitjbk1uT2lJbGRreElxS1doRVJkLzExNWZLSSYjMTA7T0RJeWpzeXFCMFhtVWEzN0Y0MktPeVBpbHNpNEpTSnVpWWliSStLV3FManAvMzZzNHBic3hNMDFYelBaNlZ4ZjJaM3AxdXp1blZNUCYjMTA7bm5FRkl3QUF3OG9ZQ1FBY3NEWG43RDR5SW83TThYaFFkT0pCM2Fnam91TElxTTdobmFyREsrT29pRHlzSWc2UGpPVVowWW1LSXlNaiYjMTA7SStLb2lJaUtXaDUzL2NXUkVmSGxwNDBmbGZtbFg1ZFVIaFpSaDkzOWRTdmlpTXhjY3ArQkZiZEgxT3pYL0dqM1N3UGdWLzlmSysrSSYjMTA7cUwwUkVabnh4WXFZejhxYkkySStJbTZwakxtSXVEV3E5a1hrN1psNVowVDN6dXJtYloybzJlckVGeXRxTmpKdTZjeVAzeFNkdkNYSCYjMTA7T3JjOEtCNTA4eVhyY3ZZK1d3RUFBQUFBQUFBQUFBQUFBQUFBQUFBQUFBQUFBQUFBQUFBQUFBQUFBQUFBQUFBQUFBQUFBQUFBQUFBQSYjMTA7QUFBQUFBQUFBQUFBQUFBQUFBQUFBQUFBQUFBQUFBQUFBQUFBQUFBQUFBQUFBQUFBQUFBQUFBQUFBQUFBR0Z6L1B6VkU0RkhpdUd6WiYjMTA7QUFBQUpYUkZXSFJrWVhSbE9tTnlaV0YwWlFBeU1ESTBMVEExTFRFMlZERTBPakUwT2pBekt6QXlPakF3dExMOG93QUFBQ1YwUlZoMCYjMTA7WkdGMFpUcHRiMlJwWm5rQU1qQXlOQzB3TlMweE5sUXhORG94TkRvd015c3dNam93TU1YdlJCOEFBQUFaZEVWWWRGTnZablIzWVhKbCYjMTA7QUVGa2IySmxJRWx0WVdkbFVtVmhaSGx4eVdVOEFBQUFBRWxGVGtTdVFtQ0MiIHk9IjAiIHg9IjAiIGhlaWdodD0iNzM3IiB3aWR0aD0iMTMxNSIgaWQ9ImltYWdlMCIvPiYjeGE7PC9zdmc+;" vertex="1" parent="1">
          <mxGeometry x="1159.5" y="450" width="142.65" height="80" as="geometry" />
        </mxCell>
        <mxCell id="-p1IqklPGC9IZMc8WhPd-17" value="" style="endArrow=classic;html=1;rounded=0;" edge="1" parent="1">
          <mxGeometry width="50" height="50" relative="1" as="geometry">
            <mxPoint x="1310" y="240" as="sourcePoint" />
            <mxPoint x="1360" y="321.33" as="targetPoint" />
          </mxGeometry>
        </mxCell>
        <mxCell id="-p1IqklPGC9IZMc8WhPd-19" value="" style="endArrow=classic;html=1;rounded=0;" edge="1" parent="1">
          <mxGeometry width="50" height="50" relative="1" as="geometry">
            <mxPoint x="1310" y="480" as="sourcePoint" />
            <mxPoint x="1360" y="331.33" as="targetPoint" />
          </mxGeometry>
        </mxCell>
        <mxCell id="-p1IqklPGC9IZMc8WhPd-20" value="&lt;b&gt;&lt;font color=&quot;#59c2ff&quot; face=&quot;Helvetica&quot;&gt;DockerHub&lt;/font&gt;&lt;/b&gt;" style="text;html=1;align=center;verticalAlign=middle;resizable=0;points=[];autosize=1;strokeColor=#247BFF;fillColor=none;" vertex="1" parent="1">
          <mxGeometry x="1086.5" y="350" width="90" height="30" as="geometry" />
        </mxCell>
        <mxCell id="-p1IqklPGC9IZMc8WhPd-23" value="" style="shape=image;verticalLabelPosition=bottom;labelBackgroundColor=default;verticalAlign=top;aspect=fixed;imageAspect=0;image=data:image/svg+xml,PHN2ZyB4bWxucz0iaHR0cDovL3d3dy53My5vcmcvMjAwMC9zdmciIHZpZXdCb3g9IjAgMCA0MzUuODE2IDQzNy40NiIgaGVpZ2h0PSIyNTAwIiB3aWR0aD0iMjQ5MSI+PHBhdGggZmlsbD0iI2M2MzUyZSIgZD0iTTIxNy4zNDEuMDM5czEyOC40NzgtNS43ODMgMTk2LjU3IDEyMy4zMzdIMjA2LjQxNnMtMzkuMTg4LTEuMjg5LTcyLjU5MyA0Ni4yNTVjLTkuNjM0IDE5LjkxNi0xOS45MSA0MC40NzMtOC4zNDkgODAuOTM3QzEwOC43NzMgMjIyLjMwOSAzNi44MjMgOTcuMDQgMzYuODIzIDk3LjA0Uzg3LjU3OCA1LjE3NiAyMTcuMzQxLjAzOXoiLz48cGF0aCBmaWxsPSIjZjRkOTExIiBkPSJNNDA3LjIyMyAzMjcuODcxcy01OS4yNDcgMTE0LjE0My0yMDUuMTE4IDEwOC41MzNjMTcuOTk1LTMxLjE0OCAxMDMuNzcyLTE3OS42ODIgMTAzLjc3Mi0xNzkuNjgyczIwLjcwOS0zMy4yODktMy43NDQtODUuOTkxYy0xMi40MzEtMTguMzA1LTI1LjA5LTM3LjQ4Ni02NS45MTktNDcuNzEzIDMyLjgzNi0uMzI2IDE3Ny4yODUuMDIxIDE3Ny4yODUuMDIxczU0LjE2OCA4OS44OTEtNi4yNzYgMjA0LjgzMnoiLz48cGF0aCBmaWxsPSIjODFiMzU0IiBkPSJNMjguMzczIDMyOC43MzhzLTY5LjIyNC0xMDguMzk1IDguNTgtMjMxLjkwOGMxNy45NzkgMzEuMTYgMTAzLjcxIDE3OS43MiAxMDMuNzEgMTc5LjcyczE4LjQ2OSAzNC41NzggNzYuMzQxIDM5Ljc1NmMyMi4wNjEtMS42MDkgNDUuMDA3LTIuOTgyIDc0LjI3OS0zMy4yMjMtMTYuMTM5IDI4LjU5NC04OC42NzMgMTUzLjUyMS04OC42NzMgMTUzLjUyMVM5Ny42ODEgNDM4LjU2IDI4LjM3MyAzMjguNzM4eiIvPjxwYXRoIGZpbGw9IiM3YmFhNTAiIGQ9Ik0yMDIuMTA1IDQzNy40NmwyOS4xODctMTIxLjc5M3MzMi4wOTItMi41MDQgNTguOTgyLTMyLjAxN2MtMTYuNjkzIDI5LjM2NS04OC4xNjkgMTUzLjgxLTg4LjE2OSAxNTMuODF6Ii8+PHBhdGggZmlsbD0iI2ZmZiIgZD0iTTExOS41OSAyMjAuMDkzYzAtNTMuNjkgNDMuNTItOTcuMjE1IDk3LjIxNS05Ny4yMTUgNTMuNjkgMCA5Ny4yMTQgNDMuNTI0IDk3LjIxNCA5Ny4yMTUgMCA1My42OTMtNDMuNTIyIDk3LjIxOS05Ny4yMTQgOTcuMjE5LTUzLjY5NSAwLTk3LjIxNS00My41MjUtOTcuMjE1LTk3LjIxOXoiLz48bGluZWFyR3JhZGllbnQgZ3JhZGllbnRUcmFuc2Zvcm09Im1hdHJpeCgxIDAgMCAtMSAxMDQ1LjkzIDE1NTcuNjM2KSIgeTI9IjEyNjEuNDQxIiB4Mj0iLTgyOS4xMjgiIHkxPSIxNDE3LjMzOSIgeDE9Ii04MjkuMTI4IiBncmFkaWVudFVuaXRzPSJ1c2VyU3BhY2VPblVzZSIgaWQ9ImEiPjxzdG9wIHN0b3AtY29sb3I9IiNhMmMwZTYiIG9mZnNldD0iMCIvPjxzdG9wIHN0b3AtY29sb3I9IiM0MDZjYjEiIG9mZnNldD0iMSIvPjwvbGluZWFyR3JhZGllbnQ+PHBhdGggZmlsbD0idXJsKCNhKSIgZD0iTTEzNS44NiAyMjAuMDkzYzAtNDQuNzAyIDM2LjIzOC04MC45NDEgODAuOTQ1LTgwLjk0MSA0NC42OTggMCA4MC45NCAzNi4yMzkgODAuOTQgODAuOTQxIDAgNDQuNzAzLTM2LjI0MiA4MC45NDUtODAuOTQgODAuOTQ1LTQ0LjcwNy4wMDEtODAuOTQ1LTM2LjI0NC04MC45NDUtODAuOTQ1eiIvPjxwYXRoIGZpbGw9IiNlN2NlMTIiIGQ9Ik00MTMuNSAxMjMuMDM5bC0xMjAuMTgzIDM1LjIzN3MtMTguMTIzLTI2LjU5Ni01Ny4xMDQtMzUuMjU4YzMzLjc3Ni0uMTE1IDE3Ny4yODcuMDIxIDE3Ny4yODcuMDIxeiIvPjxwYXRoIGZpbGw9IiNiYzMzMmMiIGQ9Ik0xMjMuMTM3IDI0Ni4xOTdjLTE2Ljg5LTI5LjI1LTg2LjMxLTE0OS4xNi04Ni4zMS0xNDkuMTZsODkuMDI5IDg4LjA3cy05LjE0OSAxOC44Mi01LjY4IDQ1LjdsMi45NjEgMTUuMzl6Ii8+PC9zdmc+;" vertex="1" parent="1">
          <mxGeometry x="1443.69" y="490" width="53.38" height="53.56" as="geometry" />
        </mxCell>
        <mxCell id="-p1IqklPGC9IZMc8WhPd-25" value="" style="shape=image;html=1;verticalLabelPosition=bottom;verticalAlign=top;imageAspect=1;aspect=fixed;image=img/clipart/Gear_128x128.png" vertex="1" parent="1">
          <mxGeometry x="1460.3" y="347.75" width="29.41" height="34.5" as="geometry" />
        </mxCell>
        <mxCell id="-p1IqklPGC9IZMc8WhPd-24" value="" style="endArrow=classic;html=1;rounded=0;" edge="1" parent="1">
          <mxGeometry width="50" height="50" relative="1" as="geometry">
            <mxPoint x="1470" y="440" as="sourcePoint" />
            <mxPoint x="1470" y="480" as="targetPoint" />
          </mxGeometry>
        </mxCell>
        <mxCell id="-p1IqklPGC9IZMc8WhPd-27" value="&lt;b&gt;&lt;font color=&quot;#59c2ff&quot; face=&quot;Helvetica&quot;&gt;Les images sont&amp;nbsp; instanciées &lt;br&gt;et les conteneurs connectés entre eux.&lt;br&gt;&lt;br&gt;L&#39;application est disponible&amp;nbsp; sur le navigateur&lt;/font&gt;&lt;/b&gt;" style="text;html=1;align=center;verticalAlign=middle;resizable=0;points=[];autosize=1;strokeColor=#247BFF;fillColor=none;" vertex="1" parent="1">
          <mxGeometry x="1290" y="550" width="280" height="70" as="geometry" />
        </mxCell>
      </root>
    </mxGraphModel>
  </diagram>
</mxfile>
